{
.appVersion = "1268";
DisplayStrings = (
u,
w,
t,
k,
j
);
copyright = "mod of RobotoMono-Regular by Google.Copyright 2015 Google Inc. All Rights Reserved.";
customParameters = (
{
name = panose;
value = (
0,
0,
0,
0,
0,
0,
0,
0,
0,
0
);
},
{
name = unicodeRanges;
value = (
0,
1,
2,
3,
4,
5,
6,
7,
9,
29,
30,
31,
32,
33,
35,
36,
38,
45,
60,
69
);
},
{
name = codePageRanges;
value = (
1252,
1250,
1251,
1253,
1254,
1257,
1258,
"bit 29",
869,
857,
855,
852,
775,
850
);
},
{
name = fsType;
value = (
);
},
{
name = glyphOrder;
value = (
.notdef,
NULL,
CR,
space,
quotedbl,
numbersign,
dollar,
percent,
ampersand,
quotesingle,
parenleft,
parenright,
asterisk,
plus,
comma,
hyphen,
period,
slash,
zero,
one,
two,
three,
four,
five,
six,
seven,
eight,
nine,
colon,
semicolon,
less,
equal,
greater,
question,
at,
A,
B,
C,
D,
E,
F,
G,
H,
I,
J,
K,
L,
M,
N,
O,
P,
Q,
R,
S,
T,
U,
V,
W,
X,
Y,
Z,
bracketleft,
backslash,
bracketright,
asciicircum,
underscore,
grave,
a,
b,
c,
d,
e,
f,
g,
h,
i,
j,
k,
l,
m,
n,
o,
p,
q,
r,
s,
t,
u,
v,
w,
x,
y,
z,
braceleft,
bar,
braceright,
asciitilde,
exclamdown,
cent,
sterling,
currency,
yen,
brokenbar,
section,
dieresis,
copyright,
ordfeminine,
guillemotleft,
logicalnot,
registered,
macron,
degree,
plusminus,
twosuperior,
threesuperior,
acute,
mu,
paragraph,
periodcentered,
cedilla,
onesuperior,
ordmasculine,
guillemotright,
onequarter,
onehalf,
threequarters,
questiondown,
AE,
multiply,
Oslash,
Thorn,
germandbls,
ae,
eth,
divide,
oslash,
thorn,
Hbar,
dotlessi,
IJ,
ij,
kgreenlandic,
Lslash,
lslash,
Eng,
eng,
OE,
oe,
longs,
florin,
Ohorn,
ohorn,
Uhorn,
uhorn,
uni0237,
schwa,
circumflex,
caron,
breve,
dotaccent,
ring,
ogonek,
tilde,
hungarumlaut,
uni02F3,
gravecomb,
acutecomb,
tildecomb,
hook,
uni030F,
dotbelow,
tonos,
dieresistonos,
anoteleia,
Gamma,
Delta,
Theta,
Lambda,
Xi,
Pi,
Sigma,
Phi,
Psi,
Omega,
alpha,
beta,
gamma,
delta,
epsilon,
zeta,
eta,
theta,
iota,
lambda,
xi,
pi,
rho,
sigma1,
sigma,
tau,
upsilon,
phi,
psi,
omega,
uni03D1,
uni03D2,
uni03D6,

glyphs = (
{
glyphname = quotedbl;
layers = (
{
layerId = "E4B1A873-EC94-4624-AAD7-98A019FF1B0F";
paths = (
{
closed = 1;
nodes = (
"505 1536 LINE",
"355 1536 LINE",
"355 1411 LINE",
"354 1057 LINE",
"484 1057 LINE",
"505 1427 LINE",
"505 1427 LINE"
);
},
{
closed = 1;
nodes = (
"863 1536 LINE",
"713 1536 LINE",
"713 1411 LINE",
"712 1057 LINE",
"841 1057 LINE",
"862 1427 LINE",
"862 1427 LINE"
);
}
);
userData = {
assembly = "MPPEM[ ]\011/* MeasurePixelPerEm */
PUSHB[ ]\011/* 1 value pushed */
33 
LT[ ]\011/* LessThan */
IF[ ]\011/* If */
NPUSHB[ ]\011/* 13 values pushed */
2 1 0 0 1 89 3 1 1 1 62 0 76 
ELSE[ ]\011/* Else */
NPUSHB[ ]\011/* 19 values pushed */
3 1 1 0 0 1 85 3 1 1 1 0 89 2 1 0 1 0 77 
EIF[ ]\011/* EndIf */
PUSHB[ ]\011/* 7 values pushed */
18 18 18 17 4 8 24 
CALL[ ]\011/* CallFunction */";
};
width = 1229;
}
);
note = quotedbl;
unicode = 0022;
},
{
glyphname = numbersign;
layers = (
{
layerId = "E4B1A873-EC94-4624-AAD7-98A019FF1B0F";
paths = (
{
closed = 1;
nodes = (
"627 0 LINE",
"770 0 LINE",
"850 410 LINE",
"1102 410 LINE",
"1102 547 LINE",
"876 547 LINE",
"945 901 LINE",
"1177 901 LINE",
"1177 1040 LINE",
"972 1040 LINE",
"1054 1456 LINE",
"911 1456 LINE",
"829 1040 LINE",
"565 1040 LINE",
"647 1456 LINE",
"504 1456 LINE",
"422 1040 LINE",
"137 1040 LINE",
"137 901 LINE",
"395 901 LINE",
"326 547 LINE",
"61 547 LINE",
"61 410 LINE",
"300 410 LINE",
"220 0 LINE",
"363 0 LINE",
"443 410 LINE",
"707 410 LINE",
"707 410 LINE"
);
},
{
closed = 1;
nodes = (
"538 901 LINE",
"802 901 LINE",
"733 547 LINE",
"469 547 LINE",
"469 547 LINE"
);
}
);
userData = {
assembly = "MPPEM[ ]\011/* MeasurePixelPerEm */
PUSHB[ ]\011/* 1 value pushed */
23 
LT[ ]\011/* LessThan */
IF[ ]\011/* If */
NPUSHB[ ]\011/* 39 values pushed */
14 11 2 3 12 2 2 0 1 3 0 97 8 1 6 6 60 75 15 10 2 4 4 5 89 9 7 2 5 5 63 75 13 1 1 1 61 1 76 
ELSE[ ]\011/* Else */
NPUSHB[ ]\011/* 37 values pushed */
9 7 2 5 15 10 2 4 3 5 4 98 14 11 2 3 12 2 2 0 1 3 0 97 8 1 6 6 60 75 13 1 1 1 61 1 76 
EIF[ ]\011/* EndIf */
NPUSHB[ ]\011/* 26 values pushed */
31 30 29 28 27 26 25 24 23 22 21 20 19 18 17 17 17 17 17 17 17 17 16 16 8 29 
CALL[ ]\011/* CallFunction */";
};
width = 1229;
}
);
note = numbersign;
unicode = 0023;
},
{
glyphname = dollar;
layers = (
{
layerId = "E4B1A873-EC94-4624-AAD7-98A019FF1B0F";
paths = (
{
closed = 1;
nodes = (
"907 320 OFFCURVE",
"868 233 OFFCURVE",
"796 172 OFFCURVE",
"692 140 OFFCURVE",
"627 140 QCURVE SMOOTH",
"576 140 OFFCURVE",
"476 168 OFFCURVE",
"397 234 OFFCURVE",
"347 345 OFFCURVE",
"347 429 QCURVE",
"162 429 LINE",
"162 316 OFFCURVE",
"228 154 OFFCURVE",
"338 47 OFFCURVE",
"481 -9 OFFCURVE",
"559 -17 QCURVE",
"559 -208 LINE",
"708 -208 LINE",
"708 -16 LINE",
"795 -7 OFFCURVE",
"938 53 OFFCURVE",
"1038 152 OFFCURVE",
"1093 290 OFFCURVE",
"1093 377 QCURVE SMOOTH",
"1093 466 OFFCURVE",
"1038 600 OFFCURVE",
"934 702 OFFCURVE",
"784 778 OFFCURVE",
"690 809 QCURVE SMOOTH",
"613 835 OFFCURVE",
"504 890 OFFCURVE",
"435 954 OFFCURVE",
"403 1032 OFFCURVE",
"403 1082 QCURVE SMOOTH",
"404 1189 OFFCURVE",
"528 1315 OFFCURVE",
"649 1315 QCURVE SMOOTH",
"708 1315 OFFCURVE",
"800 1269 OFFCURVE",
"863 1188 OFFCURVE",
"896 1075 OFFCURVE",
"896 1008 QCURVE",
"1080 1008 LINE",
"1079 1212 OFFCURVE",
"893 1449 OFFCURVE",
"725 1472 QCURVE",
"725 1692 LINE",
"576 1692 LINE",
"576 1472 LINE",
"495 1462 OFFCURVE",
"362 1400 OFFCURVE",
"269 1299 OFFCURVE",
"218 1163 OFFCURVE",
"218 1079 QCURVE SMOOTH",
"218 990 OFFCURVE",
"276 854 OFFCURVE",
"383 749 OFFCURVE",
"533 673 OFFCURVE",
"626 644 QCURVE SMOOTH",
"773 596 OFFCURVE",
"908 466 OFFCURVE",
"907 375 QCURVE",
"907 375 LINE"
);
}
);
userData = {
assembly = "NPUSHB[ ]\011/* 63 values pushed */
16 13 2 2 0 46 43 2 3 5 2 74 0 1 2 4 2 1 4 112 0 4 5 2 4 5 110 0 0 0 2 1 0 2 99 0 5 3 3 5 87 0 5 5 3 89 0 3 5 3 77 58 56 52 51 45 44 36 20 30 6 8 23 
CALL[ ]\011/* CallFunction */";
};
width = 1229;
}
);
note = dollar;
unicode = 0024;
},
{
glyphname = percent;
layers = (
{
layerId = "E4B1A873-EC94-4624-AAD7-98A019FF1B0F";
paths = (
{
closed = 1;
nodes = (
"44 1117 LINE SMOOTH",
"44 1060 OFFCURVE",
"79 958 OFFCURVE",
"147 881 OFFCURVE",
"248 836 OFFCURVE",
"313 836 QCURVE SMOOTH",
"378 836 OFFCURVE",
"478 881 OFFCURVE",
"545 958 OFFCURVE",
"580 1060 OFFCURVE",
"580 1117 QCURVE SMOOTH",
"580 1194 LINE SMOOTH",
"580 1251 OFFCURVE",
"545 1354 OFFCURVE",
"478 1432 OFFCURVE",
"377 1477 OFFCURVE",
"311 1477 QCURVE SMOOTH",
"246 1477 OFFCURVE",
"146 1432 OFFCURVE",
"79 1354 OFFCURVE",
"44 1251 OFFCURVE",
"44 1194 QCURVE",
"44 1194 LINE"
);
},
{
closed = 1;
nodes = (
"182 1194 LINE SMOOTH",
"182 1225 OFFCURVE",
"196 1284 OFFCURVE",
"227 1329 OFFCURVE",
"276 1356 OFFCURVE",
"311 1356 QCURVE SMOOTH",
"347 1356 OFFCURVE",
"396 1329 OFFCURVE",
"427 1284 OFFCURVE",
"442 1225 OFFCURVE",
"442 1194 QCURVE SMOOTH",
"442 1117 LINE SMOOTH",
"442 1086 OFFCURVE",
"427 1029 OFFCURVE",
"397 984 OFFCURVE",
"348 957 OFFCURVE",
"313 957 QCURVE SMOOTH",
"277 957 OFFCURVE",
"228 984 OFFCURVE",
"196 1029 OFFCURVE",
"182 1086 OFFCURVE",
"182 1117 QCURVE",
"182 1117 LINE"
);
},
{
closed = 1;
nodes = (
"645 260 LINE SMOOTH",
"645 203 OFFCURVE",
"680 101 OFFCURVE",
"748 24 OFFCURVE",
"849 -21 OFFCURVE",
"915 -21 QCURVE SMOOTH",
"980 -21 OFFCURVE",
"1079 24 OFFCURVE",
"1147 101 OFFCURVE",
"1182 203 OFFCURVE",
"1182 260 QCURVE SMOOTH",
"1182 338 LINE SMOOTH",
"1182 395 OFFCURVE",
"1147 497 OFFCURVE",
"1079 575 OFFCURVE",
"979 620 OFFCURVE",
"913 620 QCURVE SMOOTH",
"848 620 OFFCURVE",
"748 575 OFFCURVE",
"680 497 OFFCURVE",
"645 395 OFFCURVE",
"645 338 QCURVE",
"645 338 LINE"
);
},
{
closed = 1;
nodes = (
"783 338 LINE SMOOTH",
"783 369 OFFCURVE",
"797 427 OFFCURVE",
"828 472 OFFCURVE",
"877 499 OFFCURVE",
"913 499 QCURVE SMOOTH",
"948 499 OFFCURVE",
"998 472 OFFCURVE",
"1029 427 OFFCURVE",
"1043 369 OFFCURVE",
"1043 338 QCURVE SMOOTH",
"1043 260 LINE SMOOTH",
"1043 229 OFFCURVE",
"1029 171 OFFCURVE",
"999 126 OFFCURVE",
"950 99 OFFCURVE",
"915 99 QCURVE SMOOTH",
"879 99 OFFCURVE",
"829 126 OFFCURVE",
"798 171 OFFCURVE",
"783 229 OFFCURVE",
"783 260 QCURVE",
"783 260 LINE"
);
},
{
closed = 1;
nodes = (
"965 1225 LINE",
"854 1287 LINE",
"287 250 LINE",
"398 188 LINE",
"398 188 LINE"
);
}
);
userData = {
assembly = "NPUSHB[ ]\011/* 59 values pushed */
91 90 2 2 3 89 1 6 7 2 74 0 2 0 1 4 2 1 99 0 4 0 7 6 4 7 99 0 3 3 0 91 0 0 0 68 75 0 6 6 5 91 0 5 5 69 5 76 41 41 41 41 41 41 41 36 8 8 28 
CALL[ ]\011/* CallFunction */";
};
width = 1229;
}
);
note = percent;
unicode = 0025;
},
{
glyphname = ampersand;
layers = (
{
layerId = "E4B1A873-EC94-4624-AAD7-98A019FF1B0F";
paths = (
{
closed = 1;
nodes = (
"107 287 OFFCURVE",
"168 142 OFFCURVE",
"280 38 OFFCURVE",
"440 -20 OFFCURVE",
"539 -20 QCURVE SMOOTH",
"637 -20 OFFCURVE",
"815 47 OFFCURVE",
"889 110 QCURVE",
"972 0 LINE",
"1193 0 LINE",
"1012 237 LINE",
"1082 325 OFFCURVE",
"1155 544 OFFCURVE",
"1155 672 QCURVE",
"988 672 LINE",
"987 584 OFFCURVE",
"947 432 OFFCURVE",
"912 368 QCURVE",
"605 771 LINE",
"699 851 LINE",
"743 884 OFFCURVE",
"819 952 OFFCURVE",
"874 1028 OFFCURVE",
"905 1115 OFFCURVE",
"905 1168 QCURVE SMOOTH",
"905 1230 OFFCURVE",
"861 1342 OFFCURVE",
"780 1427 OFFCURVE",
"664 1477 OFFCURVE",
"593 1477 QCURVE SMOOTH",
"511 1477 OFFCURVE",
"379 1431 OFFCURVE",
"285 1342 OFFCURVE",
"234 1211 OFFCURVE",
"234 1126 QCURVE SMOOTH",
"234 1038 OFFCURVE",
"313 876 OFFCURVE",
"380 785 QCURVE",
"319 742 OFFCURVE",
"219 653 OFFCURVE",
"147 554 OFFCURVE",
"107 440 OFFCURVE",
"107 373 QCURVE",
"107 373 LINE"
);
},
{
closed = 1;
nodes = (
"478 130 OFFCURVE",
"386 168 OFFCURVE",
"324 234 OFFCURVE",
"292 322 OFFCURVE",
"292 373 QCURVE SMOOTH",
"292 392 OFFCURVE",
"303 449 OFFCURVE",
"336 518 OFFCURVE",
"398 596 OFFCURVE",
"448 637 QCURVE SMOOTH",
"476 661 LINE",
"799 230 LINE",
"742 182 OFFCURVE",
"610 130 OFFCURVE",
"539 130 QCURVE",
"539 130 LINE"
);
},
{
closed = 1;
nodes = (
"420 1168 OFFCURVE",
"442 1239 OFFCURVE",
"485 1293 OFFCURVE",
"550 1325 OFFCURVE",
"593 1325 QCURVE SMOOTH",
"626 1325 OFFCURVE",
"678 1298 OFFCURVE",
"715 1255 OFFCURVE",
"734 1198 OFFCURVE",
"734 1168 QCURVE SMOOTH",
"734 1145 OFFCURVE",
"725 1097 OFFCURVE",
"703 1050 OFFCURVE",
"663 1004 OFFCURVE",
"632 983 QCURVE",
"515 890 LINE",
"470 955 OFFCURVE",
"420 1072 OFFCURVE",
"420 1128 QCURVE",
"420 1128 LINE"
);
}
);
userData = {
assembly = "NPUSHB[ ]\011/* 19 values pushed */
61 24 5 3 1 5 47 46 32 25 4 4 1 35 1 2 4 3 74 
MPPEM[ ]\011/* MeasurePixelPerEm */
PUSHB[ ]\011/* 1 value pushed */
25 
LT[ ]\011/* LessThan */
IF[ ]\011/* If */
NPUSHB[ ]\011/* 34 values pushed */
0 5 5 0 91 0 0 0 68 75 0 1 1 2 91 3 1 2 2 61 75 6 1 4 4 2 91 3 1 2 2 61 2 76 
ELSE[ ]\011/* Else */
NPUSHB[ ]\011/* 32 values pushed */
0 5 5 0 91 0 0 0 68 75 0 1 1 2 89 0 2 2 61 75 6 1 4 4 3 91 0 3 3 69 3 76 
EIF[ ]\011/* EndIf */
NPUSHB[ ]\011/* 15 values pushed */
44 43 73 71 43 57 44 57 35 20 30 44 7 8 24 
CALL[ ]\011/* CallFunction */";
};
width = 1229;
}
);
note = ampersand;
unicode = 0026;
},
{
glyphname = quotesingle;
layers = (
{
layerId = "E4B1A873-EC94-4624-AAD7-98A019FF1B0F";
paths = (
{
closed = 1;
nodes = (
"653 1536 LINE",
"495 1536 LINE",
"495 1409 LINE",
"494 1057 LINE",
"632 1057 LINE",
"653 1425 LINE",
"653 1425 LINE"
);
}
);
userData = {
assembly = "MPPEM[ ]\011/* MeasurePixelPerEm */
PUSHB[ ]\011/* 1 value pushed */
33 
LT[ ]\011/* LessThan */
IF[ ]\011/* If */
NPUSHB[ ]\011/* 11 values pushed */
0 0 0 1 89 0 1 1 62 0 76 
ELSE[ ]\011/* Else */
NPUSHB[ ]\011/* 16 values pushed */
0 1 0 0 1 85 0 1 1 0 89 0 0 1 0 77 
EIF[ ]\011/* EndIf */
PUSHB[ ]\011/* 5 values pushed */
18 17 2 8 22 
CALL[ ]\011/* CallFunction */";
};
width = 1229;
}
);
note = quotesingle;
unicode = 0027;
},
{
glyphname = parenleft;
layers = (
{
layerId = "E4B1A873-EC94-4624-AAD7-98A019FF1B0F";
paths = (
{
closed = 1;
nodes = (
"357 581 LINE SMOOTH",
"357 438 OFFCURVE",
"402 186 OFFCURVE",
"477 -29 OFFCURVE",
"576 -206 OFFCURVE",
"685 -345 OFFCURVE",
"796 -442 OFFCURVE",
"846 -470 QCURVE",
"885 -357 LINE",
"823 -307 OFFCURVE",
"700 -142 OFFCURVE",
"603 90 OFFCURVE",
"542 392 OFFCURVE",
"542 579 QCURVE SMOOTH",
"542 593 LINE SMOOTH",
"542 780 OFFCURVE",
"603 1081 OFFCURVE",
"700 1312 OFFCURVE",
"823 1474 OFFCURVE",
"885 1521 QCURVE",
"846 1643 LINE",
"796 1615 OFFCURVE",
"686 1517 OFFCURVE",
"577 1379 OFFCURVE",
"478 1201 OFFCURVE",
"402 986 OFFCURVE",
"357 734 OFFCURVE",
"357 591 QCURVE",
"357 591 LINE"
);
}
);
userData = {
assembly = "PUSHB[ ]\011/* 4 values pushed */
20 7 1 48 
CALL[ ]\011/* CallFunction */";
};
width = 1229;
}
);
note = parenleft;
unicode = 0028;
},
{
glyphname = parenright;
layers = (
{
layerId = "E4B1A873-EC94-4624-AAD7-98A019FF1B0F";
paths = (
{
closed = 1;
nodes = (
"849 591 LINE SMOOTH",
"849 734 OFFCURVE",
"804 986 OFFCURVE",
"728 1201 OFFCURVE",
"629 1379 OFFCURVE",
"520 1517 OFFCURVE",
"409 1615 OFFCURVE",
"359 1643 QCURVE",
"320 1530 LINE",
"377 1484 OFFCURVE",
"498 1320 OFFCURVE",
"599 1085 OFFCURVE",
"663 780 OFFCURVE",
"663 593 QCURVE SMOOTH",
"663 579 LINE SMOOTH",
"663 392 OFFCURVE",
"602 88 OFFCURVE",
"505 -146 OFFCURVE",
"382 -311 OFFCURVE",
"320 -357 QCURVE",
"359 -470 LINE",
"409 -442 OFFCURVE",
"520 -345 OFFCURVE",
"629 -206 OFFCURVE",
"728 -29 OFFCURVE",
"804 186 OFFCURVE",
"849 438 OFFCURVE",
"849 581 QCURVE",
"849 581 LINE"
);
}
);
userData = {
assembly = "PUSHB[ ]\011/* 4 values pushed */
20 7 1 48 
CALL[ ]\011/* CallFunction */";
};
width = 1229;
}
);
note = parenright;
unicode = 0029;
},
{
glyphname = asterisk;
layers = (
{
layerId = "E4B1A873-EC94-4624-AAD7-98A019FF1B0F";
paths = (
{
closed = 1;
nodes = (
"276 356 LINE",
"422 250 LINE",
"634 604 LINE",
"848 241 LINE",
"994 351 LINE",
"738 675 LINE",
"1120 769 LINE",
"1066 947 LINE",
"703 797 LINE",
"732 1224 LINE",
"554 1224 LINE",
"579 803 LINE",
"214 954 LINE",
"160 779 LINE",
"537 683 LINE",
"537 683 LINE"
);
}
);
userData = {
assembly = "NPUSHB[ ]\011/* 23 values pushed */
14 13 12 11 10 9 8 7 6 3 2 1 12 0 71 0 0 0 105 20 1 8 21 
CALL[ ]\011/* CallFunction */";
};
width = 1229;
}
);
note = asterisk;
unicode = 002A;
},
{
glyphname = plus;
layers = (
{
layerId = "E4B1A873-EC94-4624-AAD7-98A019FF1B0F";
paths = (
{
closed = 1;
nodes = (
"710 1206 LINE",
"525 1206 LINE",
"525 781 LINE",
"119 781 LINE",
"119 597 LINE",
"525 597 LINE",
"525 146 LINE",
"710 146 LINE",
"710 597 LINE",
"1117 597 LINE",
"1117 781 LINE",
"710 781 LINE",
"710 781 LINE"
);
}
);
userData = {
assembly = "NPUSHB[ ]\011/* 35 values pushed */
0 5 0 2 5 85 4 1 0 3 1 1 2 0 1 97 0 5 5 2 89 0 2 5 2 77 17 17 17 17 17 16 6 8 26 
CALL[ ]\011/* CallFunction */";
};
width = 1229;
}
);
note = plus;
unicode = 002B;
},
{
glyphname = comma;
layers = (
{
layerId = "E4B1A873-EC94-4624-AAD7-98A019FF1B0F";
paths = (
{
closed = 1;
nodes = (
"643 219 LINE",
"442 219 LINE",
"442 40 LINE SMOOTH",
"442 -45 OFFCURVE",
"402 -203 OFFCURVE",
"354 -273 QCURVE",
"469 -336 LINE",
"511 -300 OFFCURVE",
"575 -208 OFFCURVE",
"620 -107 OFFCURVE",
"643 -4 OFFCURVE",
"643 43 QCURVE",
"643 43 LINE"
);
}
);
userData = {
assembly = "NPUSHB[ ]\011/* 13 values pushed */
6 5 2 0 71 0 0 0 105 26 1 8 21 
CALL[ ]\011/* CallFunction */";
};
width = 1229;
}
);
note = comma;
unicode = 002C;
},
{
glyphname = hyphen;
layers = (
{
layerId = "E4B1A873-EC94-4624-AAD7-98A019FF1B0F";
paths = (
{
closed = 1;
nodes = (
"983 713 LINE",
"218 713 LINE",
"218 561 LINE",
"983 561 LINE",
"983 561 LINE"
);
}
);
userData = {
assembly = "NPUSHB[ ]\011/* 21 values pushed */
0 1 0 0 1 85 0 1 1 0 89 0 0 1 0 77 17 16 2 8 22 
CALL[ ]\011/* CallFunction */";
};
width = 1230;
}
);
note = hyphen;
unicode = 002D;
},
{
glyphname = period;
layers = (
{
layerId = "E4B1A873-EC94-4624-AAD7-98A019FF1B0F";
paths = (
{
closed = 1;
nodes = (
"496 91 OFFCURVE",
"515 40 OFFCURVE",
"551 2 OFFCURVE",
"605 -19 OFFCURVE",
"641 -19 QCURVE SMOOTH",
"677 -19 OFFCURVE",
"732 2 OFFCURVE",
"769 40 OFFCURVE",
"788 91 OFFCURVE",
"788 120 QCURVE SMOOTH",
"788 150 OFFCURVE",
"769 202 OFFCURVE",
"732 241 OFFCURVE",
"677 263 OFFCURVE",
"641 263 QCURVE SMOOTH",
"605 263 OFFCURVE",
"551 241 OFFCURVE",
"515 202 OFFCURVE",
"496 150 OFFCURVE",
"496 120 QCURVE",
"496 120 LINE"
);
}
);
userData = {
assembly = "NPUSHB[ ]\011/* 16 values pushed */
0 0 0 1 91 0 1 1 69 1 76 40 36 2 8 22 
CALL[ ]\011/* CallFunction */";
};
width = 1229;
}
);
note = period;
unicode = 002E;
},
{
glyphname = slash;
layers = (
{
layerId = "E4B1A873-EC94-4624-AAD7-98A019FF1B0F";
paths = (
{
closed = 1;
nodes = (
"1025 1456 LINE",
"860 1456 LINE",
"252 -125 LINE",
"418 -125 LINE",
"418 -125 LINE"
);
}
);
userData = {
assembly = "NPUSHB[ ]\011/* 16 values pushed */
0 0 1 0 115 0 1 1 60 1 76 17 16 2 8 22 
CALL[ ]\011/* CallFunction */";
};
width = 1229;
}
);
note = slash;
unicode = 002F;
},
{
glyphname = zero;
layers = (
{
layerId = "E4B1A873-EC94-4624-AAD7-98A019FF1B0F";
paths = (
{
closed = 1;
nodes = (
"1088 898 LINE SMOOTH",
"1088 1037 OFFCURVE",
"1024 1252 OFFCURVE",
"903 1400 OFFCURVE",
"728 1477 OFFCURVE",
"616 1477 QCURVE SMOOTH",
"505 1477 OFFCURVE",
"330 1400 OFFCURVE",
"209 1252 OFFCURVE",
"145 1037 OFFCURVE",
"145 898 QCURVE SMOOTH",
"145 557 LINE SMOOTH",
"145 418 OFFCURVE",
"210 203 OFFCURVE",
"332 56 OFFCURVE",
"507 -20 OFFCURVE",
"618 -20 QCURVE SMOOTH",
"730 -20 OFFCURVE",
"904 56 OFFCURVE",
"1024 203 OFFCURVE",
"1088 418 OFFCURVE",
"1088 557 QCURVE",
"1088 557 LINE"
);
},
{
closed = 1;
nodes = (
"331 939 LINE SMOOTH",
"331 1128 OFFCURVE",
"470 1325 OFFCURVE",
"616 1325 QCURVE SMOOTH",
"745 1325 OFFCURVE",
"882 1174 OFFCURVE",
"898 1029 QCURVE",
"331 594 LINE",
"331 594 LINE"
);
},
{
closed = 1;
nodes = (
"902 518 LINE SMOOTH",
"902 330 OFFCURVE",
"765 130 OFFCURVE",
"618 130 QCURVE SMOOTH",
"493 130 OFFCURVE",
"353 278 OFFCURVE",
"336 419 QCURVE",
"902 852 LINE",
"902 852 LINE"
);
}
);
userData = {
assembly = "NPUSHB[ ]\011/* 37 values pushed */
31 30 23 22 4 3 2 1 74 0 2 2 1 91 0 1 1 68 75 0 3 3 0 91 0 0 0 69 0 76 38 40 41 36 4 8 24 
CALL[ ]\011/* CallFunction */";
};
width = 1229;
}
);
note = zero;
unicode = 0030;
},
{
glyphname = one;
layers = (
{
layerId = "E4B1A873-EC94-4624-AAD7-98A019FF1B0F";
paths = (
{
closed = 1;
nodes = (
"774 1456 LINE",
"759 1456 LINE",
"208 1244 LINE",
"208 1075 LINE",
"589 1220 LINE",
"589 0 LINE",
"774 0 LINE",
"774 0 LINE"
);
}
);
userData = {
assembly = "NPUSHB[ ]\011/* 17 values pushed */
5 4 3 2 4 0 72 0 0 0 61 0 76 16 1 8 21 
CALL[ ]\011/* CallFunction */";
};
width = 1229;
}
);
note = one;
unicode = 0031;
},
{
glyphname = two;
layers = (
{
layerId = "E4B1A873-EC94-4624-AAD7-98A019FF1B0F";
paths = (
{
closed = 1;
nodes = (
"1067 151 LINE",
"336 151 LINE",
"727 575 LINE SMOOTH",
"782 635 OFFCURVE",
"881 756 OFFCURVE",
"956 880 OFFCURVE",
"1000 1007 OFFCURVE",
"1000 1072 QCURVE SMOOTH",
"1000 1159 OFFCURVE",
"939 1307 OFFCURVE",
"825 1415 OFFCURVE",
"660 1476 OFFCURVE",
"557 1476 QCURVE SMOOTH",
"445 1476 OFFCURVE",
"270 1404 OFFCURVE",
"149 1282 OFFCURVE",
"85 1119 OFFCURVE",
"85 1027 QCURVE",
"271 1027 LINE",
"271 1095 OFFCURVE",
"306 1205 OFFCURVE",
"377 1282 OFFCURVE",
"484 1324 OFFCURVE",
"557 1324 QCURVE SMOOTH",
"617 1324 OFFCURVE",
"712 1283 OFFCURVE",
"779 1213 OFFCURVE",
"814 1118 OFFCURVE",
"814 1064 QCURVE SMOOTH",
"814 1020 OFFCURVE",
"792 937 OFFCURVE",
"740 844 OFFCURVE",
"654 734 OFFCURVE",
"590 663 QCURVE SMOOTH",
"113 133 LINE",
"113 0 LINE",
"1067 0 LINE",
"1067 0 LINE"
);
}
);
userData = {
assembly = "NPUSHB[ ]\011/* 43 values pushed */
2 1 0 4 1 74 0 2 1 4 1 2 4 112 0 1 1 3 91 0 3 3 68 75 0 4 4 0 89 0 0 0 61 0 76 26 36 20 43 16 5 8 25 
CALL[ ]\011/* CallFunction */";
};
width = 1229;
}
);
note = two;
unicode = 0032;
},
{
glyphname = three;
layers = (
{
layerId = "E4B1A873-EC94-4624-AAD7-98A019FF1B0F";
paths = (
{
closed = 1;
nodes = (
"390 667 LINE",
"522 667 LINE SMOOTH",
"591 667 OFFCURVE",
"706 635 OFFCURVE",
"787 569 OFFCURVE",
"832 470 OFFCURVE",
"832 402 QCURVE SMOOTH",
"832 333 OFFCURVE",
"793 232 OFFCURVE",
"721 164 OFFCURVE",
"619 131 OFFCURVE",
"556 131 QCURVE SMOOTH",
"493 131 OFFCURVE",
"390 167 OFFCURVE",
"318 233 OFFCURVE",
"279 327 OFFCURVE",
"279 384 QCURVE",
"94 384 LINE",
"94 288 OFFCURVE",
"167 138 OFFCURVE",
"291 34 OFFCURVE",
"460 -20 OFFCURVE",
"556 -20 QCURVE SMOOTH",
"654 -20 OFFCURVE",
"823 37 OFFCURVE",
"947 146 OFFCURVE",
"1017 304 OFFCURVE",
"1017 406 QCURVE SMOOTH",
"1017 456 OFFCURVE",
"994 558 OFFCURVE",
"937 650 OFFCURVE",
"842 724 OFFCURVE",
"771 747 QCURVE",
"830 772 OFFCURVE",
"915 847 OFFCURVE",
"969 932 OFFCURVE",
"995 1022 OFFCURVE",
"995 1064 QCURVE SMOOTH",
"995 1165 OFFCURVE",
"931 1319 OFFCURVE",
"815 1423 OFFCURVE",
"653 1476 OFFCURVE",
"555 1476 QCURVE SMOOTH",
"454 1476 OFFCURVE",
"289 1413 OFFCURVE",
"171 1304 OFFCURVE",
"106 1157 OFFCURVE",
"106 1074 QCURVE",
"292 1074 LINE",
"292 1131 OFFCURVE",
"330 1223 OFFCURVE",
"399 1289 OFFCURVE",
"496 1324 OFFCURVE",
"555 1324 QCURVE SMOOTH",
"680 1324 OFFCURVE",
"810 1195 OFFCURVE",
"810 1068 QCURVE SMOOTH",
"810 1013 OFFCURVE",
"772 921 OFFCURVE",
"699 855 OFFCURVE",
"592 817 OFFCURVE",
"522 817 QCURVE SMOOTH",
"390 817 LINE",
"390 817 LINE"
);
}
);
userData = {
assembly = "NPUSHB[ ]\011/* 66 values pushed */
30 1 7 0 1 74 0 2 1 0 1 2 0 112 0 5 7 6 7 5 6 112 0 0 0 7 5 0 7 99 0 1 1 3 91 0 3 3 68 75 0 6 6 4 91 0 4 4 69 4 76 62 60 52 50 46 45 41 39 36 20 38 32 8 8 24 
CALL[ ]\011/* CallFunction */";
};
width = 1229;
}
);
note = three;
unicode = 0033;
},
{
glyphname = four;
layers = (
{
layerId = "E4B1A873-EC94-4624-AAD7-98A019FF1B0F";
paths = (
{
closed = 1;
nodes = (
"924 1456 LINE",
"727 1456 LINE",
"75 447 LINE",
"75 338 LINE",
"739 338 LINE",
"739 0 LINE",
"924 0 LINE",
"924 338 LINE",
"1127 338 LINE",
"1127 489 LINE",
"924 489 LINE",
"924 489 LINE"
);
},
{
closed = 1;
nodes = (
"709 1154 LINE",
"739 1210 LINE",
"739 489 LINE",
"280 489 LINE",
"280 489 LINE"
);
}
);
userData = {
assembly = "NPUSHB[ ]\011/* 40 values pushed */
13 1 0 4 8 1 1 0 2 74 5 1 0 3 1 1 2 0 1 98 0 4 4 60 75 0 2 2 61 2 76 17 18 17 17 17 16 6 8 26 
CALL[ ]\011/* CallFunction */";
};
width = 1229;
}
);
note = four;
unicode = 0034;
},
{
glyphname = five;
layers = (
{
layerId = "E4B1A873-EC94-4624-AAD7-98A019FF1B0F";
paths = (
{
closed = 1;
nodes = (
"388 692 LINE",
"413 714 OFFCURVE",
"460 748 OFFCURVE",
"514 772 OFFCURVE",
"581 785 OFFCURVE",
"627 785 QCURVE SMOOTH",
"697 785 OFFCURVE",
"805 735 OFFCURVE",
"879 648 OFFCURVE",
"918 530 OFFCURVE",
"918 462 QCURVE SMOOTH",
"918 387 OFFCURVE",
"883 265 OFFCURVE",
"814 178 OFFCURVE",
"712 131 OFFCURVE",
"646 131 QCURVE SMOOTH",
"529 131 OFFCURVE",
"380 259 OFFCURVE",
"363 383 QCURVE",
"187 383 LINE",
"197 282 OFFCURVE",
"276 130 OFFCURVE",
"399 30 OFFCURVE",
"557 -20 OFFCURVE",
"646 -20 QCURVE SMOOTH",
"762 -20 OFFCURVE",
"934 53 OFFCURVE",
"1047 182 OFFCURVE",
"1103 360 OFFCURVE",
"1103 464 QCURVE SMOOTH",
"1103 574 OFFCURVE",
"1043 754 OFFCURVE",
"931 881 OFFCURVE",
"771 951 OFFCURVE",
"670 951 QCURVE SMOOTH",
"591 951 OFFCURVE",
"471 913 OFFCURVE",
"428 888 QCURVE",
"469 1276 LINE",
"1060 1276 LINE",
"1060 1456 LINE",
"313 1456 LINE",
"240 730 LINE",
"240 730 LINE"
);
}
);
userData = {
assembly = "NPUSHB[ ]\011/* 57 values pushed */
5 1 6 2 42 1 4 6 2 74 0 4 6 5 6 4 5 112 0 2 0 6 4 2 6 99 0 1 1 0 89 0 0 0 60 75 0 5 5 3 91 0 3 3 69 3 76 40 34 20 40 35 17 17 7 8 27 
CALL[ ]\011/* CallFunction */";
};
width = 1229;
}
);
note = five;
unicode = 0035;
},
{
glyphname = six;
layers = (
{
layerId = "E4B1A873-EC94-4624-AAD7-98A019FF1B0F";
paths = (
{
closed = 1;
nodes = (
"840 1457 LINE SMOOTH",
"697 1457 OFFCURVE",
"483 1389 OFFCURVE",
"328 1271 OFFCURVE",
"226 1110 OFFCURVE",
"166 926 OFFCURVE",
"141 725 OFFCURVE",
"141 625 QCURVE SMOOTH",
"141 538 LINE SMOOTH",
"141 471 OFFCURVE",
"167 337 OFFCURVE",
"218 213 OFFCURVE",
"296 105 OFFCURVE",
"400 26 OFFCURVE",
"531 -20 OFFCURVE",
"610 -20 QCURVE SMOOTH",
"721 -20 OFFCURVE",
"890 58 OFFCURVE",
"1004 193 OFFCURVE",
"1061 373 OFFCURVE",
"1061 475 QCURVE SMOOTH",
"1061 564 OFFCURVE",
"1013 736 OFFCURVE",
"911 872 OFFCURVE",
"753 955 OFFCURVE",
"644 955 QCURVE SMOOTH",
"594 955 OFFCURVE",
"503 932 OFFCURVE",
"424 893 OFFCURVE",
"356 840 OFFCURVE",
"330 809 QCURVE",
"334 870 OFFCURVE",
"362 988 OFFCURVE",
"414 1096 OFFCURVE",
"493 1187 OFFCURVE",
"603 1253 OFFCURVE",
"748 1291 OFFCURVE",
"840 1291 QCURVE SMOOTH",
"856 1291 LINE",
"856 1457 LINE",
"856 1457 LINE"
);
},
{
closed = 1;
nodes = (
"681 801 OFFCURVE",
"781 745 OFFCURVE",
"847 651 OFFCURVE",
"879 530 OFFCURVE",
"879 466 QCURVE SMOOTH",
"879 394 OFFCURVE",
"844 271 OFFCURVE",
"775 183 OFFCURVE",
"675 133 OFFCURVE",
"610 133 QCURVE SMOOTH",
"554 133 OFFCURVE",
"452 186 OFFCURVE",
"374 288 OFFCURVE",
"328 437 OFFCURVE",
"328 533 QCURVE SMOOTH",
"328 595 LINE",
"345 641 OFFCURVE",
"403 717 OFFCURVE",
"479 771 OFFCURVE",
"567 801 OFFCURVE",
"614 801 QCURVE",
"614 801 LINE"
);
}
);
userData = {
assembly = "NPUSHB[ ]\011/* 55 values pushed */
9 1 4 1 45 1 5 4 2 74 0 1 6 1 4 5 1 4 99 0 0 0 3 91 0 3 3 60 75 0 5 5 2 91 0 2 2 69 2 76 41 40 52 50 40 60 41 60 29 40 42 33 7 8 24 
CALL[ ]\011/* CallFunction */";
};
width = 1229;
}
);
note = six;
unicode = 0036;
},
{
glyphname = seven;
layers = (
{
layerId = "E4B1A873-EC94-4624-AAD7-98A019FF1B0F";
paths = (
{
closed = 1;
nodes = (
"1096 1456 LINE",
"112 1456 LINE",
"112 1294 LINE",
"900 1294 LINE",
"299 0 LINE",
"493 0 LINE",
"1096 1352 LINE",
"1096 1352 LINE"
);
}
);
userData = {
assembly = "NPUSHB[ ]\011/* 28 values pushed */
0 1 1 2 1 74 0 1 1 2 89 0 2 2 60 75 0 0 0 61 0 76 17 17 17 3 8 23 
CALL[ ]\011/* CallFunction */";
};
width = 1229;
}
);
note = seven;
unicode = 0037;
},
{
glyphname = eight;
layers = (
{
layerId = "E4B1A873-EC94-4624-AAD7-98A019FF1B0F";
paths = (
{
closed = 1;
nodes = (
"1070 1171 OFFCURVE",
"1004 1320 OFFCURVE",
"888 1422 OFFCURVE",
"730 1476 OFFCURVE",
"638 1476 QCURVE SMOOTH",
"545 1476 OFFCURVE",
"388 1422 OFFCURVE",
"275 1320 OFFCURVE",
"211 1171 OFFCURVE",
"211 1076 QCURVE SMOOTH",
"211 1022 OFFCURVE",
"241 924 OFFCURVE",
"295 841 OFFCURVE",
"373 774 OFFCURVE",
"421 750 QCURVE",
"365 726 OFFCURVE",
"275 654 OFFCURVE",
"211 563 OFFCURVE",
"177 454 OFFCURVE",
"177 393 QCURVE SMOOTH",
"177 293 OFFCURVE",
"249 139 OFFCURVE",
"374 34 OFFCURVE",
"543 -20 OFFCURVE",
"641 -20 QCURVE SMOOTH",
"737 -20 OFFCURVE",
"905 35 OFFCURVE",
"1030 140 OFFCURVE",
"1103 294 OFFCURVE",
"1103 393 QCURVE SMOOTH",
"1103 454 OFFCURVE",
"1068 562 OFFCURVE",
"1003 654 OFFCURVE",
"912 725 OFFCURVE",
"856 749 QCURVE",
"953 797 OFFCURVE",
"1069 967 OFFCURVE",
"1070 1076 QCURVE",
"1070 1076 LINE"
);
},
{
closed = 1;
nodes = (
"918 334 OFFCURVE",
"877 235 OFFCURVE",
"804 167 OFFCURVE",
"702 131 OFFCURVE",
"641 131 QCURVE SMOOTH",
"577 131 OFFCURVE",
"474 167 OFFCURVE",
"402 235 OFFCURVE",
"363 334 OFFCURVE",
"363 397 QCURVE SMOOTH",
"363 458 OFFCURVE",
"402 560 OFFCURVE",
"474 633 OFFCURVE",
"576 673 OFFCURVE",
"639 673 QCURVE SMOOTH",
"700 673 OFFCURVE",
"803 633 OFFCURVE",
"877 560 OFFCURVE",
"918 458 OFFCURVE",
"918 397 QCURVE",
"918 397 LINE"
);
},
{
closed = 1;
nodes = (
"884 1017 OFFCURVE",
"848 925 OFFCURVE",
"783 860 OFFCURVE",
"693 825 OFFCURVE",
"640 825 QCURVE SMOOTH",
"586 825 OFFCURVE",
"497 860 OFFCURVE",
"432 925 OFFCURVE",
"397 1016 OFFCURVE",
"397 1073 QCURVE SMOOTH",
"397 1130 OFFCURVE",
"432 1223 OFFCURVE",
"496 1289 OFFCURVE",
"584 1324 OFFCURVE",
"638 1324 QCURVE SMOOTH",
"692 1324 OFFCURVE",
"782 1287 OFFCURVE",
"847 1220 OFFCURVE",
"884 1128 OFFCURVE",
"884 1073 QCURVE",
"884 1073 LINE"
);
}
);
userData = {
assembly = "NPUSHB[ ]\011/* 50 values pushed */
23 3 2 2 5 1 74 0 5 0 2 3 5 2 99 0 4 4 1 91 0 1 1 68 75 0 3 3 0 91 0 0 0 69 0 76 74 72 64 62 54 52 44 42 34 32 44 6 8 21 
CALL[ ]\011/* CallFunction */";
};
width = 1229;
}
);
note = eight;
unicode = 0038;
},
{
glyphname = nine;
layers = (
{
layerId = "E4B1A873-EC94-4624-AAD7-98A019FF1B0F";
paths = (
{
closed = 1;
nodes = (
"354 164 LINE",
"354 -1 LINE",
"373 -1 LINE SMOOTH",
"524 -1 OFFCURVE",
"744 69 OFFCURVE",
"898 189 OFFCURVE",
"994 350 OFFCURVE",
"1047 532 OFFCURVE",
"1065 727 OFFCURVE",
"1065 820 QCURVE SMOOTH",
"1065 887 LINE SMOOTH",
"1065 959 OFFCURVE",
"1043 1102 OFFCURVE",
"996 1233 OFFCURVE",
"922 1346 OFFCURVE",
"819 1429 OFFCURVE",
"684 1476 OFFCURVE",
"600 1476 QCURVE SMOOTH",
"488 1476 OFFCURVE",
"319 1395 OFFCURVE",
"206 1258 OFFCURVE",
"149 1075 OFFCURVE",
"149 972 QCURVE SMOOTH",
"149 884 OFFCURVE",
"197 710 OFFCURVE",
"299 572 OFFCURVE",
"456 487 OFFCURVE",
"564 487 QCURVE SMOOTH",
"620 487 OFFCURVE",
"715 510 OFFCURVE",
"793 550 OFFCURVE",
"855 603 OFFCURVE",
"879 633 QCURVE",
"876 572 OFFCURVE",
"854 455 OFFCURVE",
"807 350 OFFCURVE",
"733 263 OFFCURVE",
"622 199 OFFCURVE",
"472 164 OFFCURVE",
"373 164 QCURVE",
"373 164 LINE"
);
},
{
closed = 1;
nodes = (
"527 640 OFFCURVE",
"428 699 OFFCURVE",
"363 795 OFFCURVE",
"331 918 OFFCURVE",
"331 982 QCURVE SMOOTH",
"331 1054 OFFCURVE",
"367 1179 OFFCURVE",
"436 1270 OFFCURVE",
"536 1322 OFFCURVE",
"601 1322 QCURVE SMOOTH",
"658 1322 OFFCURVE",
"759 1266 OFFCURVE",
"836 1161 OFFCURVE",
"881 1009 OFFCURVE",
"881 912 QCURVE SMOOTH",
"881 852 LINE",
"864 805 OFFCURVE",
"805 728 OFFCURVE",
"730 671 OFFCURVE",
"641 640 OFFCURVE",
"594 640 QCURVE",
"594 640 LINE"
);
}
);
userData = {
assembly = "NPUSHB[ ]\011/* 64 values pushed */
45 1 4 5 7 1 1 4 2 74 7 1 4 0 1 0 4 1 99 0 5 5 2 91 0 2 2 68 75 6 1 0 0 3 91 0 3 3 61 3 76 41 40 1 0 52 50 40 60 41 60 37 36 23 21 13 11 0 39 1 39 8 8 20 
CALL[ ]\011/* CallFunction */";
};
width = 1229;
}
);
note = nine;
unicode = 0039;
},
{
glyphname = less;
layers = (
{
layerId = "E4B1A873-EC94-4624-AAD7-98A019FF1B0F";
paths = (
{
closed = 1;
nodes = (
"1018 903 LINE",
"1018 1099 LINE",
"170 721 LINE",
"170 575 LINE",
"1018 196 LINE",
"1018 392 LINE",
"406 628 LINE",
"353 646 LINE",
"406 663 LINE",
"406 663 LINE"
);
}
);
userData = {
assembly = "PUSHB[ ]\011/* 4 values pushed */
7 4 1 48 
CALL[ ]\011/* CallFunction */";
};
width = 1229;
}
);
note = less;
unicode = 003C;
},
{
glyphname = equal;
layers = (
{
layerId = "E4B1A873-EC94-4624-AAD7-98A019FF1B0F";
paths = (
{
closed = 1;
nodes = (
"1066 941 LINE",
"173 941 LINE",
"173 780 LINE",
"1066 780 LINE",
"1066 780 LINE"
);
},
{
closed = 1;
nodes = (
"1066 525 LINE",
"173 525 LINE",
"173 365 LINE",
"1066 365 LINE",
"1066 365 LINE"
);
}
);
userData = {
assembly = "NPUSHB[ ]\011/* 31 values pushed */
0 1 0 0 3 1 0 97 0 3 2 2 3 85 0 3 3 2 89 0 2 3 2 77 17 17 17 16 4 8 24 
CALL[ ]\011/* CallFunction */";
};
width = 1229;
}
);
note = equal;
unicode = 003D;
},
{
glyphname = greater;
layers = (
{
layerId = "E4B1A873-EC94-4624-AAD7-98A019FF1B0F";
paths = (
{
closed = 1;
nodes = (
"825 669 LINE",
"885 650 LINE",
"825 633 LINE",
"178 389 LINE",
"178 197 LINE",
"1061 576 LINE",
"1061 722 LINE",
"178 1100 LINE",
"178 909 LINE",
"178 909 LINE"
);
}
);
userData = {
assembly = "PUSHB[ ]\011/* 4 values pushed */
4 1 1 48 
CALL[ ]\011/* CallFunction */";
};
width = 1229;
}
);
note = greater;
unicode = 003E;
},
{
glyphname = question;
layers = (
{
layerId = "E4B1A873-EC94-4624-AAD7-98A019FF1B0F";
paths = (
{
closed = 1;
nodes = (
"696 410 LINE",
"696 449 OFFCURVE",
"700 510 OFFCURVE",
"716 564 OFFCURVE",
"749 616 OFFCURVE",
"779 645 QCURVE SMOOTH",
"826 687 OFFCURVE",
"923 785 OFFCURVE",
"1001 898 OFFCURVE",
"1051 1025 OFFCURVE",
"1051 1097 QCURVE SMOOTH",
"1051 1187 OFFCURVE",
"993 1327 OFFCURVE",
"883 1425 OFFCURVE",
"724 1476 OFFCURVE",
"623 1476 QCURVE SMOOTH",
"532 1476 OFFCURVE",
"375 1427 OFFCURVE",
"260 1334 OFFCURVE",
"192 1200 OFFCURVE",
"191 1116 QCURVE",
"376 1116 LINE",
"376 1168 OFFCURVE",
"418 1243 OFFCURVE",
"487 1292 OFFCURVE",
"576 1315 OFFCURVE",
"623 1315 QCURVE SMOOTH",
"740 1315 OFFCURVE",
"866 1200 OFFCURVE",
"866 1091 QCURVE SMOOTH",
"866 1041 OFFCURVE",
"828 951 OFFCURVE",
"769 870 OFFCURVE",
"698 796 OFFCURVE",
"664 761 QCURVE SMOOTH",
"614 715 OFFCURVE",
"554 648 OFFCURVE",
"522 575 OFFCURVE",
"512 482 OFFCURVE",
"511 410 QCURVE",
"511 410 LINE"
);
},
{
closed = 1;
nodes = (
"490 51 OFFCURVE",
"547 -11 OFFCURVE",
"604 -11 QCURVE SMOOTH",
"661 -11 OFFCURVE",
"720 51 OFFCURVE",
"720 97 QCURVE SMOOTH",
"720 145 OFFCURVE",
"661 209 OFFCURVE",
"604 209 QCURVE SMOOTH",
"547 209 OFFCURVE",
"490 145 OFFCURVE",
"490 97 QCURVE",
"490 97 LINE"
);
}
);
userData = {
assembly = "MPPEM[ ]\011/* MeasurePixelPerEm */
PUSHB[ ]\011/* 1 value pushed */
10 
LT[ ]\011/* LessThan */
IF[ ]\011/* If */
NPUSHB[ ]\011/* 37 values pushed */
0 1 0 3 0 1 3 112 6 1 3 4 0 3 4 110 0 0 0 2 91 0 2 2 68 75 0 4 4 5 91 0 5 5 61 5 76 
ELSE[ ]\011/* Else */
MPPEM[ ]\011/* MeasurePixelPerEm */
PUSHB[ ]\011/* 1 value pushed */
12 
LT[ ]\011/* LessThan */
IF[ ]\011/* If */
NPUSHB[ ]\011/* 37 values pushed */
0 1 0 3 0 1 3 112 6 1 3 4 0 3 4 110 0 0 0 2 91 0 2 2 68 75 0 4 4 5 91 0 5 5 69 5 76 
ELSE[ ]\011/* Else */
MPPEM[ ]\011/* MeasurePixelPerEm */
PUSHB[ ]\011/* 1 value pushed */
14 
LT[ ]\011/* LessThan */
IF[ ]\011/* If */
NPUSHB[ ]\011/* 37 values pushed */
0 1 0 3 0 1 3 112 6 1 3 4 0 3 4 110 0 0 0 2 91 0 2 2 68 75 0 4 4 5 91 0 5 5 61 5 76 
ELSE[ ]\011/* Else */
NPUSHB[ ]\011/* 37 values pushed */
0 1 0 3 0 1 3 112 6 1 3 4 0 3 4 110 0 0 0 2 91 0 2 2 68 75 0 4 4 5 91 0 5 5 69 5 76 
EIF[ ]\011/* EndIf */
EIF[ ]\011/* EndIf */
EIF[ ]\011/* EndIf */
NPUSHB[ ]\011/* 16 values pushed */
0 0 50 48 44 42 0 39 0 39 36 20 44 7 8 23 
CALL[ ]\011/* CallFunction */";
};
width = 1229;
}
);
note = question;
unicode = 003F;
},
{
glyphname = at;
layers = (
{
layerId = "E4B1A873-EC94-4624-AAD7-98A019FF1B0F";
paths = (
{
closed = 1;
nodes = (
"1163 940 OFFCURVE",
"1099 1187 OFFCURVE",
"970 1363 OFFCURVE",
"780 1458 OFFCURVE",
"658 1458 QCURVE SMOOTH",
"572 1458 OFFCURVE",
"419 1402 OFFCURVE",
"291 1300 OFFCURVE",
"188 1159 OFFCURVE",
"115 989 OFFCURVE",
"73 794 OFFCURVE",
"69 691 QCURVE SMOOTH",
"64 538 OFFCURVE",
"123 281 OFFCURVE",
"256 95 OFFCURVE",
"467 -8 OFFCURVE",
"614 -8 QCURVE SMOOTH",
"646 -8 OFFCURVE",
"718 1 OFFCURVE",
"788 20 OFFCURVE",
"852 48 OFFCURVE",
"877 67 QCURVE",
"845 184 LINE",
"823 169 OFFCURVE",
"769 145 OFFCURVE",
"709 128 OFFCURVE",
"647 119 OFFCURVE",
"617 119 QCURVE SMOOTH",
"505 119 OFFCURVE",
"340 196 OFFCURVE",
"234 343 OFFCURVE",
"186 555 OFFCURVE",
"191 691 QCURVE SMOOTH",
"195 831 OFFCURVE",
"265 1067 OFFCURVE",
"387 1237 OFFCURVE",
"554 1332 OFFCURVE",
"655 1332 QCURVE SMOOTH",
"751 1332 OFFCURVE",
"901 1258 OFFCURVE",
"1004 1118 OFFCURVE",
"1054 916 OFFCURVE",
"1050 789 QCURVE SMOOTH",
"1049 716 OFFCURVE",
"1029 586 OFFCURVE",
"991 489 OFFCURVE",
"934 432 OFFCURVE",
"897 432 QCURVE SMOOTH",
"881 432 OFFCURVE",
"853 442 OFFCURVE",
"834 471 OFFCURVE",
"824 522 OFFCURVE",
"827 563 QCURVE SMOOTH",
"871 1067 LINE",
"845 1103 OFFCURVE",
"757 1156 OFFCURVE",
"690 1156 QCURVE SMOOTH",
"619 1156 OFFCURVE",
"501 1089 OFFCURVE",
"412 964 OFFCURVE",
"356 785 OFFCURVE",
"347 674 QCURVE SMOOTH",
"341 596 OFFCURVE",
"358 466 OFFCURVE",
"403 372 OFFCURVE",
"475 320 OFFCURVE",
"524 320 QCURVE SMOOTH",
"586 320 OFFCURVE",
"689 385 OFFCURVE",
"724 441 QCURVE",
"741 384 OFFCURVE",
"822 320 OFFCURVE",
"883 320 QCURVE SMOOTH",
"957 320 OFFCURVE",
"1059 406 OFFCURVE",
"1124 542 OFFCURVE",
"1156 709 OFFCURVE",
"1159 789 QCURVE",
"1159 789 LINE"
);
},
{
closed = 1;
nodes = (
"478 756 OFFCURVE",
"511 889 OFFCURVE",
"565 982 OFFCURVE",
"644 1033 OFFCURVE",
"697 1033 QCURVE SMOOTH",
"727 1033 OFFCURVE",
"755 1020 QCURVE",
"716 575 LINE",
"686 512 OFFCURVE",
"606 458 OFFCURVE",
"557 458 QCURVE SMOOTH",
"509 458 OFFCURVE",
"465 572 OFFCURVE",
"470 674 QCURVE",
"470 674 LINE"
);
}
);
userData = {
assembly = "MPPEM[ ]\011/* MeasurePixelPerEm */
PUSHB[ ]\011/* 1 value pushed */
20 
LT[ ]\011/* LessThan */
IF[ ]\011/* If */
NPUSHB[ ]\011/* 20 values pushed */
24 1 9 2 85 78 8 3 3 9 55 1 5 0 56 1 6 5 4 74 
ELSE[ ]\011/* Else */
NPUSHB[ ]\011/* 23 values pushed */
24 1 9 2 85 78 2 8 9 8 1 3 8 55 1 5 0 56 1 6 5 5 74 
EIF[ ]\011/* EndIf */
MPPEM[ ]\011/* MeasurePixelPerEm */
PUSHB[ ]\011/* 1 value pushed */
20 
LT[ ]\011/* LessThan */
IF[ ]\011/* If */
NPUSHB[ ]\011/* 39 values pushed */
0 2 0 9 3 2 9 99 8 1 3 1 1 0 5 3 0 99 0 4 4 7 91 0 7 7 60 75 0 5 5 6 91 0 6 6 61 6 76 
ELSE[ ]\011/* Else */
NPUSHB[ ]\011/* 44 values pushed */
0 2 0 9 8 2 9 99 0 8 3 0 8 87 0 3 1 1 0 5 3 0 99 0 4 4 7 91 0 7 7 60 75 0 5 5 6 91 0 6 6 61 6 76 
EIF[ ]\011/* EndIf */
NPUSHB[ ]\011/* 14 values pushed */
88 86 38 42 41 40 40 39 40 36 36 10 8 29 
CALL[ ]\011/* CallFunction */";
};
width = 1229;
}
);
note = at;
unicode = 0040;
},
{
glyphname = A;
layers = (
{
layerId = "E4B1A873-EC94-4624-AAD7-98A019FF1B0F";
paths = (
{
closed = 1;
nodes = (
"984 0 LINE",
"1168 0 LINE",
"706 1456 LINE",
"551 1456 LINE",
"81 0 LINE",
"266 0 LINE",
"383 377 LINE",
"869 377 LINE",
"869 377 LINE"
);
},
{
closed = 1;
nodes = (
"628 1170 LINE",
"820 538 LINE",
"433 538 LINE",
"433 538 LINE"
);
}
);
userData = {
assembly = "NPUSHB[ ]\011/* 34 values pushed */
10 1 4 2 1 74 0 4 0 0 1 4 0 98 0 2 2 60 75 3 1 1 1 61 1 76 17 17 17 17 16 5 8 25 
CALL[ ]\011/* CallFunction */";
};
width = 1229;
}
);
note = A;
unicode = 0041;
},
{
glyphname = B;
layers = (
{
layerId = "E4B1A873-EC94-4624-AAD7-98A019FF1B0F";
paths = (
{
closed = 1;
nodes = (
"638 0 LINE SMOOTH",
"731 1 OFFCURVE",
"906 57 OFFCURVE",
"1040 162 OFFCURVE",
"1120 318 OFFCURVE",
"1119 420 QCURVE SMOOTH",
"1119 485 OFFCURVE",
"1080 597 OFFCURVE",
"1010 686 OFFCURVE",
"913 749 OFFCURVE",
"855 766 QCURVE",
"901 786 OFFCURVE",
"983 842 OFFCURVE",
"1044 917 OFFCURVE",
"1079 1011 OFFCURVE",
"1080 1068 QCURVE SMOOTH",
"1081 1170 OFFCURVE",
"1001 1316 OFFCURVE",
"867 1410 OFFCURVE",
"695 1455 OFFCURVE",
"605 1456 QCURVE SMOOTH",
"172 1456 LINE",
"172 0 LINE",
"172 0 LINE"
);
},
{
closed = 1;
nodes = (
"653 681 LINE SMOOTH",
"712 679 OFFCURVE",
"814 643 OFFCURVE",
"890 576 OFFCURVE",
"933 480 OFFCURVE",
"932 418 QCURVE SMOOTH",
"932 357 OFFCURVE",
"885 261 OFFCURVE",
"805 195 OFFCURVE",
"701 158 OFFCURVE",
"643 157 QCURVE SMOOTH",
"358 157 LINE",
"358 681 LINE",
"358 681 LINE"
);
},
{
closed = 1;
nodes = (
"358 1298 LINE",
"611 1298 LINE SMOOTH",
"665 1297 OFFCURVE",
"768 1271 OFFCURVE",
"847 1216 OFFCURVE",
"894 1130 OFFCURVE",
"894 1069 QCURVE SMOOTH",
"894 1012 OFFCURVE",
"846 926 OFFCURVE",
"768 867 OFFCURVE",
"668 836 OFFCURVE",
"616 835 QCURVE SMOOTH",
"358 835 LINE",
"358 835 LINE"
);
}
);
userData = {
assembly = "NPUSHB[ ]\011/* 59 values pushed */
12 1 3 4 1 74 0 4 7 1 3 2 4 3 99 0 5 5 0 91 0 0 0 60 75 0 2 2 1 91 6 1 1 1 61 1 76 23 23 0 0 48 46 38 36 23 35 23 34 26 24 0 22 0 21 33 8 8 21 
CALL[ ]\011/* CallFunction */";
};
width = 1229;
}
);
note = B;
unicode = 0042;
},
{
glyphname = C;
layers = (
{
layerId = "E4B1A873-EC94-4624-AAD7-98A019FF1B0F";
paths = (
{
closed = 1;
nodes = (
"932 438 LINE",
"923 372 OFFCURVE",
"879 259 OFFCURVE",
"805 176 OFFCURVE",
"698 130 OFFCURVE",
"625 130 QCURVE SMOOTH",
"558 130 OFFCURVE",
"458 173 OFFCURVE",
"384 248 OFFCURVE",
"336 346 OFFCURVE",
"306 457 OFFCURVE",
"293 572 OFFCURVE",
"293 626 QCURVE SMOOTH",
"293 831 LINE SMOOTH",
"293 885 OFFCURVE",
"306 1000 OFFCURVE",
"336 1110 OFFCURVE",
"385 1208 OFFCURVE",
"458 1282 OFFCURVE",
"559 1325 OFFCURVE",
"625 1325 QCURVE SMOOTH",
"698 1325 OFFCURVE",
"805 1276 OFFCURVE",
"879 1190 OFFCURVE",
"923 1076 OFFCURVE",
"932 1010 QCURVE",
"1117 1010 LINE",
"1105 1114 OFFCURVE",
"1030 1286 OFFCURVE",
"906 1409 OFFCURVE",
"734 1476 OFFCURVE",
"625 1476 QCURVE SMOOTH",
"534 1476 OFFCURVE",
"388 1425 OFFCURVE",
"273 1335 OFFCURVE",
"190 1212 OFFCURVE",
"135 1068 OFFCURVE",
"108 910 OFFCURVE",
"107 829 QCURVE SMOOTH",
"107 626 LINE SMOOTH",
"108 545 OFFCURVE",
"135 387 OFFCURVE",
"190 243 OFFCURVE",
"273 121 OFFCURVE",
"388 31 OFFCURVE",
"535 -20 OFFCURVE",
"625 -20 QCURVE SMOOTH",
"730 -20 OFFCURVE",
"901 47 OFFCURVE",
"1026 168 OFFCURVE",
"1104 337 OFFCURVE",
"1117 438 QCURVE",
"1117 438 LINE"
);
}
);
userData = {
assembly = "NPUSHB[ ]\011/* 51 values pushed */
0 2 3 5 3 2 5 112 6 1 5 4 3 5 4 110 0 3 3 1 91 0 1 1 68 75 0 4 4 0 91 0 0 0 69 0 76 0 0 0 51 0 51 45 36 20 45 36 7 8 25 
CALL[ ]\011/* CallFunction */";
};
width = 1229;
}
);
note = C;
unicode = 0043;
},
{
glyphname = D;
layers = (
{
layerId = "E4B1A873-EC94-4624-AAD7-98A019FF1B0F";
paths = (
{
closed = 1;
nodes = (
"492 0 LINE SMOOTH",
"644 1 OFFCURVE",
"883 100 OFFCURVE",
"1048 277 OFFCURVE",
"1135 524 OFFCURVE",
"1136 674 QCURVE SMOOTH",
"1136 781 LINE SMOOTH",
"1135 931 OFFCURVE",
"1048 1178 OFFCURVE",
"883 1355 OFFCURVE",
"644 1454 OFFCURVE",
"492 1456 QCURVE SMOOTH",
"155 1456 LINE",
"155 0 LINE",
"155 0 LINE"
);
},
{
closed = 1;
nodes = (
"492 1304 LINE SMOOTH",
"610 1302 OFFCURVE",
"782 1222 OFFCURVE",
"894 1083 OFFCURVE",
"950 894 OFFCURVE",
"951 783 QCURVE SMOOTH",
"951 674 LINE SMOOTH",
"950 563 OFFCURVE",
"895 373 OFFCURVE",
"782 233 OFFCURVE",
"610 152 OFFCURVE",
"492 151 QCURVE SMOOTH",
"343 151 LINE",
"343 1304 LINE",
"343 1304 LINE"
);
}
);
userData = {
assembly = "NPUSHB[ ]\011/* 41 values pushed */
5 1 3 3 0 91 0 0 0 60 75 0 2 2 1 91 4 1 1 1 61 1 76 14 14 0 0 14 27 14 26 17 15 0 13 0 12 33 6 8 21 
CALL[ ]\011/* CallFunction */";
};
width = 1229;
}
);
note = D;
unicode = 0044;
},
{
glyphname = E;
layers = (
{
layerId = "E4B1A873-EC94-4624-AAD7-98A019FF1B0F";
paths = (
{
closed = 1;
nodes = (
"975 830 LINE",
"367 830 LINE",
"367 1298 LINE",
"1067 1298 LINE",
"1067 1456 LINE",
"182 1456 LINE",
"182 0 LINE",
"1076 0 LINE",
"1076 157 LINE",
"367 157 LINE",
"367 673 LINE",
"975 673 LINE",
"975 673 LINE"
);
}
);
userData = {
assembly = "NPUSHB[ ]\011/* 38 values pushed */
0 5 0 0 1 5 0 97 0 4 4 3 89 0 3 3 60 75 0 1 1 2 89 0 2 2 61 2 76 17 17 17 17 17 16 6 8 26 
CALL[ ]\011/* CallFunction */";
};
width = 1229;
}
);
note = E;
unicode = 0045;
},
{
glyphname = F;
layers = (
{
layerId = "E4B1A873-EC94-4624-AAD7-98A019FF1B0F";
paths = (
{
closed = 1;
nodes = (
"984 800 LINE",
"378 800 LINE",
"378 1298 LINE",
"1085 1298 LINE",
"1085 1456 LINE",
"191 1456 LINE",
"191 0 LINE",
"378 0 LINE",
"378 643 LINE",
"984 643 LINE",
"984 643 LINE"
);
}
);
userData = {
assembly = "NPUSHB[ ]\011/* 32 values pushed */
0 4 0 0 1 4 0 97 0 3 3 2 89 0 2 2 60 75 0 1 1 61 1 76 17 17 17 17 16 5 8 25 
CALL[ ]\011/* CallFunction */";
};
width = 1229;
}
);
note = F;
unicode = 0046;
},
{
glyphname = G;
layers = (
{
layerId = "E4B1A873-EC94-4624-AAD7-98A019FF1B0F";
paths = (
{
closed = 1;
nodes = (
"1113 725 LINE",
"641 725 LINE",
"641 569 LINE",
"937 569 LINE",
"935 242 LINE",
"912 209 OFFCURVE",
"844 168 OFFCURVE",
"766 144 OFFCURVE",
"683 136 OFFCURVE",
"645 137 QCURVE SMOOTH",
"579 138 OFFCURVE",
"475 183 OFFCURVE",
"396 259 OFFCURVE",
"340 359 OFFCURVE",
"304 471 OFFCURVE",
"287 588 OFFCURVE",
"286 643 QCURVE SMOOTH",
"286 814 LINE SMOOTH",
"286 868 OFFCURVE",
"300 984 OFFCURVE",
"332 1096 OFFCURVE",
"382 1197 OFFCURVE",
"458 1273 OFFCURVE",
"560 1318 OFFCURVE",
"626 1318 QCURVE SMOOTH",
"695 1318 OFFCURVE",
"799 1275 OFFCURVE",
"874 1199 OFFCURVE",
"920 1092 OFFCURVE",
"931 1029 QCURVE",
"1114 1029 LINE",
"1105 1131 OFFCURVE",
"1027 1296 OFFCURVE",
"899 1413 OFFCURVE",
"727 1476 OFFCURVE",
"625 1476 QCURVE SMOOTH",
"533 1476 OFFCURVE",
"385 1422 OFFCURVE",
"268 1329 OFFCURVE",
"184 1202 OFFCURVE",
"128 1054 OFFCURVE",
"101 893 OFFCURVE",
"100 812 QCURVE SMOOTH",
"100 643 LINE SMOOTH",
"101 561 OFFCURVE",
"132 400 OFFCURVE",
"193 253 OFFCURVE",
"283 127 OFFCURVE",
"403 34 OFFCURVE",
"554 -19 OFFCURVE",
"644 -20 QCURVE SMOOTH",
"786 -21 OFFCURVE",
"1024 83 OFFCURVE",
"1116 191 QCURVE",
"1116 191 LINE"
);
}
);
userData = {
assembly = "NPUSHB[ ]\011/* 54 values pushed */
49 0 2 4 5 1 74 0 2 3 6 3 2 6 112 0 6 0 5 4 6 5 97 0 3 3 1 91 0 1 1 68 75 0 4 4 0 91 0 0 0 69 0 76 17 21 45 36 20 45 34 7 8 27 
CALL[ ]\011/* CallFunction */";
};
width = 1229;
}
);
note = G;
unicode = 0047;
},
{
glyphname = H;
layers = (
{
layerId = "E4B1A873-EC94-4624-AAD7-98A019FF1B0F";
paths = (
{
closed = 1;
nodes = (
"1087 1456 LINE",
"912 1456 LINE",
"912 830 LINE",
"315 830 LINE",
"315 1456 LINE",
"141 1456 LINE",
"141 0 LINE",
"315 0 LINE",
"315 673 LINE",
"912 673 LINE",
"912 0 LINE",
"1087 0 LINE",
"1087 0 LINE"
);
}
);
userData = {
assembly = "NPUSHB[ ]\011/* 30 values pushed */
0 4 0 1 0 4 1 97 5 1 3 3 60 75 2 1 0 0 61 0 76 17 17 17 17 17 16 6 8 26 
CALL[ ]\011/* CallFunction */";
};
width = 1229;
}
);
note = H;
unicode = 0048;
},
{
glyphname = I;
layers = (
{
layerId = "E4B1A873-EC94-4624-AAD7-98A019FF1B0F";
paths = (
{
closed = 1;
nodes = (
"174 1295 LINE",
"515 1295 LINE",
"515 160 LINE",
"174 160 LINE",
"174 0 LINE",
"1054 0 LINE",
"1054 160 LINE",
"705 160 LINE",
"705 1295 LINE",
"1054 1295 LINE",
"1054 1456 LINE",
"174 1456 LINE",
"174 1456 LINE"
);
}
);
userData = {
assembly = "NPUSHB[ ]\011/* 32 values pushed */
5 1 1 1 0 89 0 0 0 60 75 4 1 2 2 3 89 0 3 3 61 3 76 17 17 17 17 17 16 6 8 26 
CALL[ ]\011/* CallFunction */";
};
width = 1229;
}
);
note = I;
unicode = 0049;
},
{
glyphname = J;
layers = (
{
layerId = "E4B1A873-EC94-4624-AAD7-98A019FF1B0F";
paths = (
{
closed = 1;
nodes = (
"857 443 LINE SMOOTH",
"855 381 OFFCURVE",
"816 270 OFFCURVE",
"743 186 OFFCURVE",
"639 137 OFFCURVE",
"573 137 QCURVE SMOOTH",
"509 137 OFFCURVE",
"406 179 OFFCURVE",
"332 256 OFFCURVE",
"289 360 OFFCURVE",
"286 421 QCURVE",
"98 421 LINE",
"107 320 OFFCURVE",
"181 157 OFFCURVE",
"304 42 OFFCURVE",
"471 -20 OFFCURVE",
"573 -20 QCURVE SMOOTH",
"674 -20 OFFCURVE",
"845 49 OFFCURVE",
"971 172 OFFCURVE",
"1044 342 OFFCURVE",
"1046 443 QCURVE SMOOTH",
"1046 1456 LINE",
"857 1456 LINE",
"857 1456 LINE"
);
}
);
userData = {
assembly = "NPUSHB[ ]\011/* 31 values pushed */
0 2 0 3 0 2 3 112 0 0 0 60 75 0 3 3 1 91 0 1 1 69 1 76 36 20 37 16 4 8 24 
CALL[ ]\011/* CallFunction */";
};
width = 1229;
}
);
note = J;
unicode = 004A;
},
{
glyphname = K;
layers = (
{
layerId = "E4B1A873-EC94-4624-AAD7-98A019FF1B0F";
paths = (
{
closed = 1;
nodes = (
"963 0 LINE",
"1188 0 LINE",
"645 819 LINE",
"1154 1456 LINE",
"929 1456 LINE",
"502 921 LINE",
"361 745 LINE",
"361 1456 LINE",
"172 1456 LINE",
"172 0 LINE",
"361 0 LINE",
"361 492 LINE",
"523 676 LINE",
"523 676 LINE"
);
}
);
userData = {
assembly = "NPUSHB[ ]\011/* 28 values pushed */
10 6 1 3 0 1 1 74 2 1 1 1 60 75 3 1 0 0 61 0 76 18 19 17 18 4 8 24 
CALL[ ]\011/* CallFunction */";
};
width = 1229;
}
);
note = K;
unicode = 004B;
},
{
glyphname = L;
layers = (
{
layerId = "E4B1A873-EC94-4624-AAD7-98A019FF1B0F";
paths = (
{
closed = 1;
nodes = (
"383 1456 LINE",
"198 1456 LINE",
"198 0 LINE",
"1095 0 LINE",
"1095 157 LINE",
"383 157 LINE",
"383 157 LINE"
);
}
);
userData = {
assembly = "NPUSHB[ ]\011/* 22 values pushed */
0 2 2 60 75 0 0 0 1 90 0 1 1 61 1 76 17 17 16 3 8 23 
CALL[ ]\011/* CallFunction */";
};
width = 1229;
}
);
note = L;
unicode = 004C;
},
{
glyphname = M;
layers = (
{
layerId = "E4B1A873-EC94-4624-AAD7-98A019FF1B0F";
paths = (
{
closed = 1;
nodes = (
"148 1456 LINE",
"148 0 LINE",
"328 0 LINE",
"328 581 LINE",
"313 1168 LINE",
"560 405 LINE",
"666 405 LINE",
"935 1189 LINE",
"920 581 LINE",
"920 0 LINE",
"1100 0 LINE",
"1100 1456 LINE",
"870 1456 LINE",
"614 728 LINE",
"377 1456 LINE",
"377 1456 LINE"
);
}
);
userData = {
assembly = "NPUSHB[ ]\011/* 43 values pushed */
10 7 1 3 2 0 1 74 0 2 0 1 0 2 1 112 5 4 2 0 0 60 75 3 1 1 1 61 1 76 0 0 0 14 0 14 19 19 17 18 6 8 24 
CALL[ ]\011/* CallFunction */";
};
width = 1229;
}
);
note = M;
unicode = 004D;
},
{
glyphname = N;
layers = (
{
layerId = "E4B1A873-EC94-4624-AAD7-98A019FF1B0F";
paths = (
{
closed = 1;
nodes = (
"1086 1456 LINE",
"899 1456 LINE",
"896 370 LINE",
"331 1456 LINE",
"143 1456 LINE",
"143 0 LINE",
"330 0 LINE",
"333 1088 LINE",
"898 0 LINE",
"1086 0 LINE",
"1086 0 LINE"
);
}
);
userData = {
assembly = "NPUSHB[ ]\011/* 27 values pushed */
7 2 2 0 2 1 74 3 1 2 2 60 75 1 1 0 0 61 0 76 18 17 18 16 4 8 24 
CALL[ ]\011/* CallFunction */";
};
width = 1229;
}
);
note = N;
unicode = 004E;
},
{
glyphname = O;
layers = (
{
layerId = "E4B1A873-EC94-4624-AAD7-98A019FF1B0F";
paths = (
{
closed = 1;
nodes = (
"1121 810 LINE SMOOTH",
"1120 888 OFFCURVE",
"1095 1048 OFFCURVE",
"1042 1196 OFFCURVE",
"961 1325 OFFCURVE",
"849 1421 OFFCURVE",
"703 1476 OFFCURVE",
"613 1476 QCURVE SMOOTH",
"523 1476 OFFCURVE",
"378 1421 OFFCURVE",
"266 1324 OFFCURVE",
"185 1195 OFFCURVE",
"132 1047 OFFCURVE",
"107 888 OFFCURVE",
"106 810 QCURVE SMOOTH",
"106 644 LINE SMOOTH",
"107 566 OFFCURVE",
"133 408 OFFCURVE",
"186 260 OFFCURVE",
"268 131 OFFCURVE",
"380 35 OFFCURVE",
"525 -20 OFFCURVE",
"615 -20 QCURVE SMOOTH",
"705 -20 OFFCURVE",
"850 35 OFFCURVE",
"962 131 OFFCURVE",
"1043 259 OFFCURVE",
"1095 407 OFFCURVE",
"1120 566 OFFCURVE",
"1121 644 QCURVE",
"1121 644 LINE"
);
},
{
closed = 1;
nodes = (
"938 644 LINE SMOOTH",
"937 592 OFFCURVE",
"926 478 OFFCURVE",
"897 367 OFFCURVE",
"850 266 OFFCURVE",
"779 189 OFFCURVE",
"680 143 OFFCURVE",
"615 143 QCURVE SMOOTH",
"550 143 OFFCURVE",
"452 189 OFFCURVE",
"380 266 OFFCURVE",
"332 368 OFFCURVE",
"302 479 OFFCURVE",
"289 593 OFFCURVE",
"288 644 QCURVE SMOOTH",
"288 812 LINE SMOOTH",
"289 863 OFFCURVE",
"302 976 OFFCURVE",
"331 1087 OFFCURVE",
"379 1188 OFFCURVE",
"451 1265 OFFCURVE",
"549 1311 OFFCURVE",
"613 1311 QCURVE SMOOTH",
"678 1311 OFFCURVE",
"776 1266 OFFCURVE",
"848 1189 OFFCURVE",
"896 1088 OFFCURVE",
"925 977 OFFCURVE",
"937 864 OFFCURVE",
"938 812 QCURVE",
"938 812 LINE"
);
}
);
userData = {
assembly = "NPUSHB[ ]\011/* 28 values pushed */
0 2 2 1 91 0 1 1 68 75 0 3 3 0 91 0 0 0 69 0 76 45 45 45 38 4 8 24 
CALL[ ]\011/* CallFunction */";
};
width = 1229;
}
);
note = O;
unicode = 004F;
},
{
glyphname = P;
layers = (
{
layerId = "E4B1A873-EC94-4624-AAD7-98A019FF1B0F";
paths = (
{
closed = 1;
nodes = (
"663 584 LINE SMOOTH",
"761 585 OFFCURVE",
"936 643 OFFCURVE",
"1068 753 OFFCURVE",
"1145 914 OFFCURVE",
"1145 1019 QCURVE SMOOTH",
"1145 1124 OFFCURVE",
"1068 1286 OFFCURVE",
"936 1396 OFFCURVE",
"761 1454 OFFCURVE",
"663 1456 QCURVE SMOOTH",
"191 1456 LINE",
"191 0 LINE",
"376 0 LINE",
"376 584 LINE",
"376 584 LINE"
);
},
{
closed = 1;
nodes = (
"376 1304 LINE",
"663 1304 LINE SMOOTH",
"727 1303 OFFCURVE",
"836 1263 OFFCURVE",
"915 1189 OFFCURVE",
"960 1083 OFFCURVE",
"960 1017 QCURVE SMOOTH",
"960 951 OFFCURVE",
"915 848 OFFCURVE",
"835 776 OFFCURVE",
"727 737 OFFCURVE",
"663 736 QCURVE SMOOTH",
"376 736 LINE",
"376 736 LINE"
);
}
);
userData = {
assembly = "NPUSHB[ ]\011/* 40 values pushed */
0 3 5 1 2 0 3 2 99 0 4 4 1 91 0 1 1 60 75 0 0 0 61 0 76 0 0 27 25 17 15 0 14 0 13 33 17 6 8 22 
CALL[ ]\011/* CallFunction */";
};
width = 1229;
}
);
note = P;
unicode = 0050;
},
{
glyphname = Q;
layers = (
{
layerId = "E4B1A873-EC94-4624-AAD7-98A019FF1B0F";
paths = (
{
closed = 1;
nodes = (
"1134 791 LINE SMOOTH",
"1133 871 OFFCURVE",
"1107 1036 OFFCURVE",
"1054 1188 OFFCURVE",
"971 1321 OFFCURVE",
"856 1419 OFFCURVE",
"707 1476 OFFCURVE",
"614 1476 QCURVE SMOOTH",
"521 1476 OFFCURVE",
"372 1419 OFFCURVE",
"257 1320 OFFCURVE",
"175 1187 OFFCURVE",
"121 1035 OFFCURVE",
"95 871 OFFCURVE",
"94 791 QCURVE SMOOTH",
"94 663 LINE SMOOTH",
"95 583 OFFCURVE",
"121 420 OFFCURVE",
"175 268 OFFCURVE",
"259 135 OFFCURVE",
"374 37 OFFCURVE",
"522 -20 OFFCURVE",
"615 -20 QCURVE SMOOTH",
"687 -20 OFFCURVE",
"749 -2 QCURVE",
"1037 -246 LINE",
"1164 -125 LINE",
"913 84 LINE",
"971 133 OFFCURVE",
"1054 266 OFFCURVE",
"1107 418 OFFCURVE",
"1133 582 OFFCURVE",
"1134 663 QCURVE",
"1134 663 LINE"
);
},
{
closed = 1;
nodes = (
"950 663 LINE SMOOTH",
"949 608 OFFCURVE",
"938 489 OFFCURVE",
"909 373 OFFCURVE",
"861 269 OFFCURVE",
"787 190 OFFCURVE",
"684 143 OFFCURVE",
"615 143 QCURVE SMOOTH",
"547 143 OFFCURVE",
"444 190 OFFCURVE",
"370 270 OFFCURVE",
"321 374 OFFCURVE",
"291 490 OFFCURVE",
"278 609 OFFCURVE",
"278 663 QCURVE SMOOTH",
"278 793 LINE SMOOTH",
"278 847 OFFCURVE",
"291 966 OFFCURVE",
"321 1081 OFFCURVE",
"370 1185 OFFCURVE",
"444 1264 OFFCURVE",
"546 1311 OFFCURVE",
"614 1311 QCURVE SMOOTH",
"683 1311 OFFCURVE",
"786 1265 OFFCURVE",
"860 1186 OFFCURVE",
"909 1082 OFFCURVE",
"938 967 OFFCURVE",
"949 848 OFFCURVE",
"950 793 QCURVE",
"950 793 LINE"
);
}
);
userData = {
assembly = "NPUSHB[ ]\011/* 40 values pushed */
8 5 2 0 3 1 74 7 6 2 0 71 0 2 2 1 91 0 1 1 68 75 0 3 3 0 91 0 0 0 69 0 76 45 45 45 41 4 8 24 
CALL[ ]\011/* CallFunction */";
};
width = 1229;
}
);
note = Q;
unicode = 0051;
},
{
glyphname = R;
layers = (
{
layerId = "E4B1A873-EC94-4624-AAD7-98A019FF1B0F";
paths = (
{
closed = 1;
nodes = (
"942 0 LINE",
"1137 0 LINE",
"1138 12 LINE",
"829 634 LINE",
"889 660 OFFCURVE",
"989 734 OFFCURVE",
"1061 830 OFFCURVE",
"1102 948 OFFCURVE",
"1102 1019 QCURVE SMOOTH",
"1102 1129 OFFCURVE",
"1025 1292 OFFCURVE",
"890 1400 OFFCURVE",
"710 1454 OFFCURVE",
"608 1456 QCURVE SMOOTH",
"181 1456 LINE",
"181 0 LINE",
"365 0 LINE",
"365 594 LINE",
"656 594 LINE",
"656 594 LINE"
);
},
{
closed = 1;
nodes = (
"365 1304 LINE",
"608 1304 LINE SMOOTH",
"675 1303 OFFCURVE",
"788 1267 OFFCURVE",
"870 1196 OFFCURVE",
"916 1091 OFFCURVE",
"916 1021 QCURVE SMOOTH",
"916 955 OFFCURVE",
"868 854 OFFCURVE",
"785 784 OFFCURVE",
"675 747 OFFCURVE",
"613 746 QCURVE SMOOTH",
"365 746 LINE",
"365 746 LINE"
);
}
);
userData = {
assembly = "NPUSHB[ ]\011/* 40 values pushed */
15 1 0 4 1 74 0 4 0 0 1 4 0 97 0 5 5 2 91 0 2 2 60 75 3 1 1 1 61 1 76 40 33 42 33 17 16 6 8 26 
CALL[ ]\011/* CallFunction */";
};
width = 1229;
}
);
note = R;
unicode = 0052;
},
{
glyphname = S;
layers = (
{
layerId = "E4B1A873-EC94-4624-AAD7-98A019FF1B0F";
paths = (
{
closed = 1;
nodes = (
"936 308 OFFCURVE",
"884 221 OFFCURVE",
"802 164 OFFCURVE",
"697 137 OFFCURVE",
"643 137 QCURVE SMOOTH",
"575 137 OFFCURVE",
"460 174 OFFCURVE",
"372 247 OFFCURVE",
"316 352 OFFCURVE",
"307 420 QCURVE",
"118 420 LINE",
"121 316 OFFCURVE",
"213 153 OFFCURVE",
"360 40 OFFCURVE",
"546 -20 OFFCURVE",
"643 -20 QCURVE SMOOTH",
"730 -20 OFFCURVE",
"904 29 OFFCURVE",
"1042 126 OFFCURVE",
"1129 272 OFFCURVE",
"1129 370 QCURVE SMOOTH",
"1129 435 OFFCURVE",
"1092 542 OFFCURVE",
"1026 631 OFFCURVE",
"938 701 OFFCURVE",
"836 757 OFFCURVE",
"726 800 OFFCURVE",
"672 817 QCURVE SMOOTH",
"623 832 OFFCURVE",
"512 872 OFFCURVE",
"417 932 OFFCURVE",
"355 1019 OFFCURVE",
"354 1082 QCURVE SMOOTH",
"354 1140 OFFCURVE",
"401 1228 OFFCURVE",
"480 1288 OFFCURVE",
"581 1318 OFFCURVE",
"634 1318 QCURVE SMOOTH",
"700 1318 OFFCURVE",
"805 1277 OFFCURVE",
"881 1203 OFFCURVE",
"927 1100 OFFCURVE",
"935 1037 QCURVE",
"1125 1037 LINE",
"1123 1137 OFFCURVE",
"1041 1299 OFFCURVE",
"905 1413 OFFCURVE",
"729 1476 OFFCURVE",
"634 1476 QCURVE SMOOTH",
"548 1476 OFFCURVE",
"378 1423 OFFCURVE",
"244 1321 OFFCURVE",
"161 1173 OFFCURVE",
"161 1079 QCURVE SMOOTH",
"161 985 OFFCURVE",
"244 846 OFFCURVE",
"375 744 OFFCURVE",
"534 674 OFFCURVE",
"611 649 QCURVE SMOOTH",
"664 632 OFFCURVE",
"779 590 OFFCURVE",
"875 527 OFFCURVE",
"936 435 OFFCURVE",
"936 368 QCURVE",
"936 368 LINE"
);
}
);
userData = {
assembly = "NPUSHB[ ]\011/* 48 values pushed */
0 1 2 4 2 1 4 112 0 4 5 2 4 5 110 0 2 2 0 91 0 0 0 68 75 0 5 5 3 91 0 3 3 69 3 76 60 58 54 53 49 47 36 20 46 6 8 23 
CALL[ ]\011/* CallFunction */";
};
width = 1229;
}
);
note = S;
unicode = 0053;
},
{
glyphname = T;
layers = (
{
layerId = "E4B1A873-EC94-4624-AAD7-98A019FF1B0F";
paths = (
{
closed = 1;
nodes = (
"1156 1456 LINE",
"76 1456 LINE",
"76 1298 LINE",
"526 1298 LINE",
"526 0 LINE",
"706 0 LINE",
"706 1298 LINE",
"1156 1298 LINE",
"1156 1298 LINE"
);
}
);
userData = {
assembly = "NPUSHB[ ]\011/* 24 values pushed */
2 1 0 0 3 89 0 3 3 60 75 0 1 1 61 1 76 17 17 17 16 4 8 24 
CALL[ ]\011/* CallFunction */";
};
width = 1229;
}
);
note = T;
unicode = 0054;
},
{
glyphname = U;
layers = (
{
layerId = "E4B1A873-EC94-4624-AAD7-98A019FF1B0F";
paths = (
{
closed = 1;
nodes = (
"909 1456 LINE",
"906 470 LINE SMOOTH",
"904 405 OFFCURVE",
"866 285 OFFCURVE",
"793 192 OFFCURVE",
"685 137 OFFCURVE",
"614 137 QCURVE SMOOTH",
"543 137 OFFCURVE",
"434 193 OFFCURVE",
"361 285 OFFCURVE",
"322 405 OFFCURVE",
"321 470 QCURVE SMOOTH",
"317 1456 LINE",
"141 1456 LINE",
"139 470 LINE SMOOTH",
"140 368 OFFCURVE",
"210 189 OFFCURVE",
"334 56 OFFCURVE",
"508 -20 OFFCURVE",
"614 -20 QCURVE SMOOTH",
"718 -20 OFFCURVE",
"892 57 OFFCURVE",
"1018 190 OFFCURVE",
"1088 368 OFFCURVE",
"1090 470 QCURVE SMOOTH",
"1088 1456 LINE",
"1088 1456 LINE"
);
}
);
userData = {
assembly = "NPUSHB[ ]\011/* 30 values pushed */
4 3 2 1 1 60 75 0 2 2 0 91 0 0 0 69 0 76 0 0 0 25 0 25 37 21 37 5 8 23 
CALL[ ]\011/* CallFunction */";
};
width = 1229;
}
);
note = U;
unicode = 0055;
},
{
glyphname = V;
layers = (
{
layerId = "E4B1A873-EC94-4624-AAD7-98A019FF1B0F";
paths = (
{
closed = 1;
nodes = (
"269 1456 LINE",
"71 1456 LINE",
"531 0 LINE",
"692 0 LINE",
"1151 1456 LINE",
"954 1456 LINE",
"610 298 LINE",
"610 298 LINE"
);
}
);
userData = {
assembly = "NPUSHB[ ]\011/* 18 values pushed */
2 1 0 0 60 75 0 1 1 61 1 76 17 17 17 3 8 23 
CALL[ ]\011/* CallFunction */";
};
width = 1229;
}
);
note = V;
unicode = 0056;
},
{
glyphname = W;
layers = (
{
layerId = "E4B1A873-EC94-4624-AAD7-98A019FF1B0F";
paths = (
{
closed = 1;
nodes = (
"708 1456 LINE",
"547 1456 LINE",
"360 394 LINE",
"249 1456 LINE",
"73 1456 LINE",
"250 0 LINE",
"440 0 LINE",
"629 1097 LINE",
"816 0 LINE",
"1005 0 LINE",
"1182 1456 LINE",
"1007 1456 LINE",
"896 394 LINE",
"896 394 LINE"
);
}
);
userData = {
assembly = "NPUSHB[ ]\011/* 29 values pushed */
10 5 2 1 0 1 74 4 3 2 0 0 60 75 2 1 1 1 61 1 76 18 17 18 17 17 5 8 25 
CALL[ ]\011/* CallFunction */";
};
width = 1229;
}
);
note = W;
unicode = 0057;
},
{
glyphname = X;
layers = (
{
layerId = "E4B1A873-EC94-4624-AAD7-98A019FF1B0F";
paths = (
{
closed = 1;
nodes = (
"315 1456 LINE",
"98 1456 LINE",
"521 734 LINE",
"87 0 LINE",
"306 0 LINE",
"629 582 LINE",
"951 0 LINE",
"1167 0 LINE",
"734 734 LINE",
"1157 1456 LINE",
"939 1456 LINE",
"625 885 LINE",
"625 885 LINE"
);
}
);
userData = {
assembly = "NPUSHB[ ]\011/* 28 values pushed */
9 6 3 3 1 0 1 74 3 1 0 0 60 75 2 1 1 1 61 1 76 18 18 18 17 4 8 24 
CALL[ ]\011/* CallFunction */";
};
width = 1229;
}
);
note = X;
unicode = 0058;
},
{
glyphname = Y;
layers = (
{
layerId = "E4B1A873-EC94-4624-AAD7-98A019FF1B0F";
paths = (
{
closed = 1;
nodes = (
"272 1456 LINE",
"61 1456 LINE",
"514 543 LINE",
"517 0 LINE",
"689 0 LINE",
"692 543 LINE",
"1145 1456 LINE",
"935 1456 LINE",
"603 725 LINE",
"603 725 LINE"
);
}
);
userData = {
assembly = "NPUSHB[ ]\011/* 25 values pushed */
6 3 2 1 0 1 74 2 1 0 0 60 75 0 1 1 61 1 76 18 18 17 3 8 23 
CALL[ ]\011/* CallFunction */";
};
width = 1229;
}
);
note = Y;
unicode = 0059;
},
{
glyphname = Z;
layers = (
{
layerId = "E4B1A873-EC94-4624-AAD7-98A019FF1B0F";
paths = (
{
closed = 1;
nodes = (
"1052 1315 LINE",
"1050 1456 LINE",
"127 1456 LINE",
"127 1298 LINE",
"839 1298 LINE",
"114 144 LINE",
"116 0 LINE",
"1079 0 LINE",
"1079 157 LINE",
"325 157 LINE",
"325 157 LINE"
);
}
);
userData = {
assembly = "NPUSHB[ ]\011/* 38 values pushed */
9 1 2 3 4 1 1 0 2 74 0 2 2 3 89 0 3 3 60 75 0 0 0 1 89 0 1 1 61 1 76 17 18 17 16 4 8 24 
CALL[ ]\011/* CallFunction */";
};
width = 1229;
}
);
note = Z;
unicode = 005A;
},
{
glyphname = bracketleft;
layers = (
{
layerId = "E4B1A873-EC94-4624-AAD7-98A019FF1B0F";
paths = (
{
closed = 1;
nodes = (
"822 1664 LINE",
"426 1664 LINE",
"426 -312 LINE",
"822 -312 LINE",
"822 -160 LINE",
"601 -160 LINE",
"601 1512 LINE",
"822 1512 LINE",
"822 1512 LINE"
);
}
);
userData = {
assembly = "NPUSHB[ ]\011/* 31 values pushed */
0 3 0 0 1 3 0 97 0 1 2 2 1 85 0 1 1 2 89 0 2 1 2 77 17 17 17 16 4 8 24 
CALL[ ]\011/* CallFunction */";
};
width = 1229;
}
);
note = bracketleft;
unicode = 005B;
},
{
glyphname = backslash;
layers = (
{
layerId = "E4B1A873-EC94-4624-AAD7-98A019FF1B0F";
paths = (
{
closed = 1;
nodes = (
"839 -125 LINE",
"1006 -125 LINE",
"398 1456 LINE",
"231 1456 LINE",
"231 1456 LINE"
);
}
);
userData = {
assembly = "NPUSHB[ ]\011/* 16 values pushed */
0 1 0 1 115 0 0 0 60 0 76 17 16 2 8 22 
CALL[ ]\011/* CallFunction */";
};
width = 1229;
}
);
note = backslash;
unicode = 005C;
},
{
glyphname = bracketright;
layers = (
{
layerId = "E4B1A873-EC94-4624-AAD7-98A019FF1B0F";
paths = (
{
closed = 1;
nodes = (
"405 1512 LINE",
"627 1512 LINE",
"627 -160 LINE",
"405 -160 LINE",
"405 -312 LINE",
"802 -312 LINE",
"802 1664 LINE",
"405 1664 LINE",
"405 1664 LINE"
);
}
);
userData = {
assembly = "NPUSHB[ ]\011/* 31 values pushed */
0 0 0 3 2 0 3 97 0 2 1 1 2 85 0 2 2 1 89 0 1 2 1 77 17 17 17 16 4 8 24 
CALL[ ]\011/* CallFunction */";
};
width = 1229;
}
);
note = bracketright;
unicode = 005D;
},
{
glyphname = asciicircum;
layers = (
{
layerId = "E4B1A873-EC94-4624-AAD7-98A019FF1B0F";
paths = (
{
closed = 1;
nodes = (
"598 1163 LINE",
"613 1231 LINE",
"628 1163 LINE",
"826 677 LINE",
"997 677 LINE",
"678 1456 LINE",
"551 1456 LINE",
"231 677 LINE",
"403 677 LINE",
"403 677 LINE"
);
}
);
userData = {
assembly = "NPUSHB[ ]\011/* 24 values pushed */
7 1 0 1 1 74 2 1 0 1 0 115 0 1 1 60 1 76 17 17 16 3 8 23 
CALL[ ]\011/* CallFunction */";
};
width = 1229;
}
);
note = asciicircum;
unicode = 005E;
},
{
glyphname = underscore;
layers = (
{
layerId = "E4B1A873-EC94-4624-AAD7-98A019FF1B0F";
paths = (
{
closed = 1;
nodes = (
"1072 0 LINE",
"155 0 LINE",
"155 -151 LINE",
"1072 -151 LINE",
"1072 -151 LINE"
);
}
);
userData = {
assembly = "NPUSHB[ ]\011/* 21 values pushed */
0 1 0 0 1 85 0 1 1 0 89 0 0 1 0 77 17 16 2 8 22 
CALL[ ]\011/* CallFunction */";
};
width = 1229;
}
);
note = underscore;
unicode = 005F;
},
{
glyphname = grave;
layers = (
{
layerId = "E4B1A873-EC94-4624-AAD7-98A019FF1B0F";
paths = (
{
closed = 1;
nodes = (
"638 1481 LINE",
"415 1481 LINE",
"663 1215 LINE",
"813 1215 LINE",
"813 1215 LINE"
);
}
);
userData = {
assembly = "MPPEM[ ]\011/* MeasurePixelPerEm */
PUSHB[ ]\011/* 1 value pushed */
10 
LT[ ]\011/* LessThan */
IF[ ]\011/* If */
NPUSHB[ ]\011/* 11 values pushed */
0 0 1 0 115 0 1 1 60 1 76 
ELSE[ ]\011/* Else */
MPPEM[ ]\011/* MeasurePixelPerEm */
PUSHB[ ]\011/* 1 value pushed */
12 
LT[ ]\011/* LessThan */
IF[ ]\011/* If */
NPUSHB[ ]\011/* 11 values pushed */
0 0 1 0 115 0 1 1 62 1 76 
ELSE[ ]\011/* Else */
MPPEM[ ]\011/* MeasurePixelPerEm */
PUSHB[ ]\011/* 1 value pushed */
14 
LT[ ]\011/* LessThan */
IF[ ]\011/* If */
NPUSHB[ ]\011/* 11 values pushed */
0 0 1 0 115 0 1 1 60 1 76 
ELSE[ ]\011/* Else */
MPPEM[ ]\011/* MeasurePixelPerEm */
PUSHB[ ]\011/* 1 value pushed */
16 
LT[ ]\011/* LessThan */
IF[ ]\011/* If */
NPUSHB[ ]\011/* 11 values pushed */
0 0 1 0 115 0 1 1 62 1 76 
ELSE[ ]\011/* Else */
MPPEM[ ]\011/* MeasurePixelPerEm */
PUSHB[ ]\011/* 1 value pushed */
18 
LT[ ]\011/* LessThan */
IF[ ]\011/* If */
NPUSHB[ ]\011/* 11 values pushed */
0 0 1 0 115 0 1 1 60 1 76 
ELSE[ ]\011/* Else */
MPPEM[ ]\011/* MeasurePixelPerEm */
PUSHB[ ]\011/* 1 value pushed */
22 
LT[ ]\011/* LessThan */
IF[ ]\011/* If */
NPUSHB[ ]\011/* 11 values pushed */
0 0 1 0 115 0 1 1 62 1 76 
ELSE[ ]\011/* Else */
MPPEM[ ]\011/* MeasurePixelPerEm */
PUSHB[ ]\011/* 1 value pushed */
23 
LT[ ]\011/* LessThan */
IF[ ]\011/* If */
NPUSHB[ ]\011/* 11 values pushed */
0 0 1 0 115 0 1 1 60 1 76 
ELSE[ ]\011/* Else */
MPPEM[ ]\011/* MeasurePixelPerEm */
PUSHB[ ]\011/* 1 value pushed */
25 
LT[ ]\011/* LessThan */
IF[ ]\011/* If */
NPUSHB[ ]\011/* 11 values pushed */
0 0 1 0 115 0 1 1 62 1 76 
ELSE[ ]\011/* Else */
MPPEM[ ]\011/* MeasurePixelPerEm */
PUSHB[ ]\011/* 1 value pushed */
27 
LT[ ]\011/* LessThan */
IF[ ]\011/* If */
NPUSHB[ ]\011/* 11 values pushed */
0 0 1 0 115 0 1 1 60 1 76 
ELSE[ ]\011/* Else */
MPPEM[ ]\011/* MeasurePixelPerEm */
PUSHB[ ]\011/* 1 value pushed */
42 
LT[ ]\011/* LessThan */
IF[ ]\011/* If */
NPUSHB[ ]\011/* 11 values pushed */
0 0 1 0 115 0 1 1 62 1 76 
ELSE[ ]\011/* Else */
NPUSHB[ ]\011/* 9 values pushed */
0 1 0 1 114 0 0 0 105 
EIF[ ]\011/* EndIf */
EIF[ ]\011/* EndIf */
EIF[ ]\011/* EndIf */
EIF[ ]\011/* EndIf */
EIF[ ]\011/* EndIf */
EIF[ ]\011/* EndIf */
EIF[ ]\011/* EndIf */
EIF[ ]\011/* EndIf */
EIF[ ]\011/* EndIf */
EIF[ ]\011/* EndIf */
PUSHB[ ]\011/* 5 values pushed */
17 16 2 8 22 
CALL[ ]\011/* CallFunction */";
};
width = 1229;
}
);
note = grave;
unicode = 0060;
},
{
glyphname = a;
lastChange = "2019-10-18 12:09:01 +0000";
layers = (
{
layerId = "E4B1A873-EC94-4624-AAD7-98A019FF1B0F";
paths = (
{
closed = 1;
nodes = (
"445 -20 OFFCURVE",
"306 30 OFFCURVE",
"209 115 OFFCURVE",
"156 232 OFFCURVE",
"156 300 QCURVE SMOOTH",
"156 389 OFFCURVE",
"227 523 OFFCURVE",
"357 612 OFFCURVE",
"540 656 OFFCURVE",
"653 656 QCURVE SMOOTH",
"855 656 LINE",
"855 741 LINE SMOOTH",
"855 790 OFFCURVE",
"819 868 OFFCURVE",
"753 923 OFFCURVE",
"658 953 OFFCURVE",
"599 953 QCURVE SMOOTH",
"544 953 OFFCURVE",
"457 925 OFFCURVE",
"397 879 OFFCURVE",
"364 816 OFFCURVE",
"364 782 QCURVE",
"178 782 LINE",
"179 841 OFFCURVE",
"238 955 OFFCURVE",
"349 1046 OFFCURVE",
"508 1102 OFFCURVE",
"609 1102 QCURVE SMOOTH",
"701 1102 OFFCURVE",
"859 1057 OFFCURVE",
"974 966 OFFCURVE",
"1034 822 OFFCURVE",
"1040 739 QCURVE SMOOTH",
"1036 499 OFFCURVE",
"1034 309 QCURVE",
"1034 30 OFFCURVE",
"678 -19 OFFCURVE",
"584 -20 OFFCURVE",
"531 -20 QCURVE SMOOTH"
);
},
{
closed = 1;
nodes = (
"156 306 LINE",
"342 306 LINE",
"358 104 LINE",
"358 -416 LINE",
"156 -416 LINE"
);
},
{
closed = 1;
nodes = (
"558 141 LINE",
"612 141 OFFCURVE",
"869 169 OFFCURVE",
"855 306 QCURVE",
"855 525 LINE",
"683 525 LINE SMOOTH",
"521 525 OFFCURVE",
"341 429 OFFCURVE",
"341 326 QCURVE SMOOTH",
"341 286 OFFCURVE",
"368 218 OFFCURVE",
"422 169 OFFCURVE",
"504 141 OFFCURVE",
"558 141 QCURVE"
);
}
);
userData = {
assembly = "NPUSHB[ ]\011/* 65 values pushed */
52 1 5 6 45 3 2 0 5 2 74 0 3 2 1 2 3 1 112 0 1 0 6 5 1 6 99 0 2 2 4 91 0 4 4 71 75 7 1 5 5 0 91 0 0 0 69 0 76 48 47 55 53 47 61 48 61 36 20 37 40 39 8 8 25 
CALL[ ]\011/* CallFunction */";
};
width = 1229;
}
);
note = a;
unicode = 0061;
changeCount = 132;
},
{
glyphname = b;
layers = (
{
layerId = "E4B1A873-EC94-4624-AAD7-98A019FF1B0F";
paths = (
{
closed = 1;
nodes = (
"1091 550 LINE SMOOTH",
"1091 671 OFFCURVE",
"1035 874 OFFCURVE",
"927 1020 OFFCURVE",
"767 1102 OFFCURVE",
"663 1102 QCURVE SMOOTH",
"563 1102 OFFCURVE",
"413 1032 OFFCURVE",
"360 966 QCURVE",
"360 1536 LINE",
"175 1536 LINE",
"175 0 LINE",
"345 0 LINE",
"354 123 LINE",
"408 54 OFFCURVE",
"561 -20 OFFCURVE",
"665 -20 QCURVE SMOOTH",
"768 -20 OFFCURVE",
"927 64 OFFCURVE",
"1035 212 OFFCURVE",
"1091 413 OFFCURVE",
"1091 529 QCURVE",
"1091 529 LINE"
);
},
{
closed = 1;
nodes = (
"906 529 LINE SMOOTH",
"906 450 OFFCURVE",
"873 308 OFFCURVE",
"804 200 OFFCURVE",
"695 137 OFFCURVE",
"619 137 QCURVE SMOOTH",
"571 137 OFFCURVE",
"491 162 OFFCURVE",
"427 208 OFFCURVE",
"378 269 OFFCURVE",
"360 305 QCURVE",
"360 778 LINE",
"377 814 OFFCURVE",
"426 875 OFFCURVE",
"489 920 OFFCURVE",
"569 945 OFFCURVE",
"617 945 QCURVE SMOOTH",
"697 945 OFFCURVE",
"807 881 OFFCURVE",
"875 772 OFFCURVE",
"906 629 OFFCURVE",
"906 550 QCURVE",
"906 550 LINE"
);
}
);
userData = {
assembly = "MPPEM[ ]\011/* MeasurePixelPerEm */
PUSHB[ ]\011/* 1 value pushed */
25 
LT[ ]\011/* LessThan */
IF[ ]\011/* If */
NPUSHB[ ]\011/* 15 values pushed */
13 1 4 3 33 32 2 5 4 8 1 0 5 3 74 
ELSE[ ]\011/* Else */
NPUSHB[ ]\011/* 15 values pushed */
13 1 4 3 33 32 2 5 4 8 1 1 5 3 74 
EIF[ ]\011/* EndIf */
MPPEM[ ]\011/* MeasurePixelPerEm */
PUSHB[ ]\011/* 1 value pushed */
25 
LT[ ]\011/* LessThan */
IF[ ]\011/* If */
NPUSHB[ ]\011/* 27 values pushed */
0 2 2 62 75 0 4 4 3 91 0 3 3 71 75 0 5 5 0 91 1 1 0 0 69 0 76 
ELSE[ ]\011/* Else */
MPPEM[ ]\011/* MeasurePixelPerEm */
PUSHB[ ]\011/* 1 value pushed */
33 
LT[ ]\011/* LessThan */
IF[ ]\011/* If */
NPUSHB[ ]\011/* 31 values pushed */
0 2 2 62 75 0 4 4 3 91 0 3 3 71 75 0 1 1 61 75 0 5 5 0 91 0 0 0 69 0 76 
ELSE[ ]\011/* Else */
NPUSHB[ ]\011/* 31 values pushed */
0 4 4 3 91 0 3 3 71 75 0 2 2 1 89 0 1 1 61 75 0 5 5 0 91 0 0 0 69 0 76 
EIF[ ]\011/* EndIf */
EIF[ ]\011/* EndIf */
NPUSHB[ ]\011/* 9 values pushed */
41 41 35 17 19 36 6 8 26 
CALL[ ]\011/* CallFunction */";
};
width = 1229;
}
);
note = b;
unicode = 0062;
},
{
glyphname = c;
layers = (
{
layerId = "E4B1A873-EC94-4624-AAD7-98A019FF1B0F";
paths = (
{
closed = 1;
nodes = (
"548 130 OFFCURVE",
"431 199 OFFCURVE",
"360 310 OFFCURVE",
"329 449 OFFCURVE",
"329 520 QCURVE SMOOTH",
"329 562 LINE SMOOTH",
"329 632 OFFCURVE",
"360 770 OFFCURVE",
"432 881 OFFCURVE",
"549 950 OFFCURVE",
"635 950 QCURVE SMOOTH",
"691 950 OFFCURVE",
"788 912 OFFCURVE",
"858 846 OFFCURVE",
"899 759 OFFCURVE",
"900 710 QCURVE",
"1075 710 LINE",
"1075 792 OFFCURVE",
"1009 936 OFFCURVE",
"892 1041 OFFCURVE",
"731 1102 OFFCURVE",
"635 1102 QCURVE SMOOTH",
"512 1102 OFFCURVE",
"328 1014 OFFCURVE",
"205 865 OFFCURVE",
"143 669 OFFCURVE",
"143 562 QCURVE SMOOTH",
"143 520 LINE SMOOTH",
"143 412 OFFCURVE",
"205 217 OFFCURVE",
"328 68 OFFCURVE",
"512 -20 OFFCURVE",
"635 -20 QCURVE SMOOTH",
"721 -20 OFFCURVE",
"879 39 OFFCURVE",
"1001 138 OFFCURVE",
"1074 269 OFFCURVE",
"1075 341 QCURVE",
"900 341 LINE",
"899 296 OFFCURVE",
"854 219 OFFCURVE",
"780 162 OFFCURVE",
"685 130 OFFCURVE",
"635 130 QCURVE",
"635 130 LINE"
);
}
);
userData = {
assembly = "NPUSHB[ ]\011/* 56 values pushed */
0 4 5 1 5 4 1 112 0 1 0 5 1 0 110 0 5 5 3 91 0 3 3 71 75 6 1 0 0 2 91 0 2 2 69 2 76 1 0 34 32 28 27 23 21 12 10 6 5 0 43 1 43 7 8 20 
CALL[ ]\011/* CallFunction */";
};
width = 1229;
}
);
note = c;
unicode = 0063;
},
{
glyphname = d;
layers = (
{
layerId = "E4B1A873-EC94-4624-AAD7-98A019FF1B0F";
paths = (
{
closed = 1;
nodes = (
"139 529 LINE SMOOTH",
"139 413 OFFCURVE",
"201 212 OFFCURVE",
"313 64 OFFCURVE",
"472 -20 OFFCURVE",
"570 -20 QCURVE SMOOTH",
"670 -20 OFFCURVE",
"820 48 OFFCURVE",
"874 114 QCURVE",
"882 0 LINE",
"1052 0 LINE",
"1052 1536 LINE",
"867 1536 LINE",
"867 975 LINE",
"814 1037 OFFCURVE",
"669 1102 OFFCURVE",
"572 1102 QCURVE SMOOTH",
"473 1102 OFFCURVE",
"313 1020 OFFCURVE",
"200 874 OFFCURVE",
"139 671 OFFCURVE",
"139 550 QCURVE",
"139 550 LINE"
);
},
{
closed = 1;
nodes = (
"324 550 LINE SMOOTH",
"324 629 OFFCURVE",
"358 772 OFFCURVE",
"429 881 OFFCURVE",
"540 945 OFFCURVE",
"618 945 QCURVE SMOOTH",
"709 945 OFFCURVE",
"831 860 OFFCURVE",
"867 794 QCURVE",
"867 292 LINE",
"849 257 OFFCURVE",
"801 200 OFFCURVE",
"739 159 OFFCURVE",
"663 137 OFFCURVE",
"616 137 QCURVE SMOOTH",
"539 137 OFFCURVE",
"429 200 OFFCURVE",
"358 308 OFFCURVE",
"324 450 OFFCURVE",
"324 529 QCURVE",
"324 529 LINE"
);
}
);
userData = {
assembly = "NPUSHB[ ]\011/* 15 values pushed */
8 1 5 0 33 32 2 4 5 13 1 2 4 3 74 
MPPEM[ ]\011/* MeasurePixelPerEm */
PUSHB[ ]\011/* 1 value pushed */
25 
LT[ ]\011/* LessThan */
IF[ ]\011/* If */
NPUSHB[ ]\011/* 27 values pushed */
0 1 1 62 75 0 5 5 0 91 0 0 0 71 75 0 4 4 2 91 3 1 2 2 61 2 76 
ELSE[ ]\011/* Else */
MPPEM[ ]\011/* MeasurePixelPerEm */
PUSHB[ ]\011/* 1 value pushed */
33 
LT[ ]\011/* LessThan */
IF[ ]\011/* If */
NPUSHB[ ]\011/* 31 values pushed */
0 1 1 62 75 0 5 5 0 91 0 0 0 71 75 0 2 2 61 75 0 4 4 3 91 0 3 3 69 3 76 
ELSE[ ]\011/* Else */
NPUSHB[ ]\011/* 31 values pushed */
0 5 5 0 91 0 0 0 71 75 0 1 1 2 89 0 2 2 61 75 0 4 4 3 91 0 3 3 69 3 76 
EIF[ ]\011/* EndIf */
EIF[ ]\011/* EndIf */
NPUSHB[ ]\011/* 9 values pushed */
39 41 35 17 19 36 6 8 26 
CALL[ ]\011/* CallFunction */";
};
width = 1229;
}
);
note = d;
unicode = 0064;
},
{
glyphname = e;
lastChange = "2019-10-18 12:31:48 +0000";
layers = (
{
layerId = "E4B1A873-EC94-4624-AAD7-98A019FF1B0F";
paths = (
{
closed = 1;
nodes = (
"731 -20 OFFCURVE",
"865 15 OFFCURVE",
"971 73 OFFCURVE",
"1052 148 OFFCURVE",
"1079 189 QCURVE",
"966 277 LINE",
"915 211 OFFCURVE",
"761 131 OFFCURVE",
"662 131 QCURVE SMOOTH",
"587 131 OFFCURVE",
"463 187 OFFCURVE",
"374 284 OFFCURVE",
"323 414 OFFCURVE",
"320 488 QCURVE",
"1093 488 LINE",
"1093 571 LINE SMOOTH",
"1093 684 OFFCURVE",
"1036 878 OFFCURVE",
"920 1021 OFFCURVE",
"745 1102 OFFCURVE",
"628 1102 QCURVE SMOOTH",
"535 1102 OFFCURVE",
"358 1026 OFFCURVE",
"219 883 OFFCURVE",
"135 676 OFFCURVE",
"135 545 QCURVE SMOOTH",
"135 503 LINE SMOOTH",
"135 390 OFFCURVE",
"211 198 OFFCURVE",
"347 58 OFFCURVE",
"538 -20 OFFCURVE",
"652 -20 QCURVE",
"652 -20 LINE"
);
},
{
closed = 1;
nodes = (
"699 950 OFFCURVE",
"802 898 OFFCURVE",
"870 814 OFFCURVE",
"905 708 OFFCURVE",
"908 654 QCURVE SMOOTH",
"908 640 LINE",
"326 640 LINE",
"337 715 OFFCURVE",
"392 830 OFFCURVE",
"472 909 OFFCURVE",
"572 950 OFFCURVE",
"628 950 QCURVE",
"628 950 LINE"
);
},
{
closed = 1;
nodes = (
"1028 912 OFFCURVE",
"866 1058 OFFCURVE",
"708 1113 OFFCURVE",
"608 1134 QCURVE SMOOTH",
"532 1150 OFFCURVE",
"433 1181 OFFCURVE",
"374 1221 OFFCURVE",
"350 1271 OFFCURVE",
"350 1303 QCURVE SMOOTH",
"350 1334 OFFCURVE",
"380 1392 OFFCURVE",
"439 1436 OFFCURVE",
"528 1462 OFFCURVE",
"587 1462 QCURVE SMOOTH",
"644 1462 OFFCURVE",
"735 1430 OFFCURVE",
"799 1378 OFFCURVE",
"835 1311 OFFCURVE",
"835 1276 QCURVE",
"1020 1276 LINE",
"1020 1347 OFFCURVE",
"959 1470 OFFCURVE",
"847 1562 OFFCURVE",
"687 1614 OFFCURVE",
"587 1614 QCURVE SMOOTH",
"494 1614 OFFCURVE",
"339 1564 OFFCURVE",
"227 1478 OFFCURVE",
"165 1363 OFFCURVE",
"165 1297 QCURVE SMOOTH",
"165 1230 OFFCURVE",
"225 1129 OFFCURVE",
"334 1054 OFFCURVE",
"487 1001 OFFCURVE",
"580 981 QCURVE SMOOTH",
"656 965 OFFCURVE",
"758 929 OFFCURVE",
"820 885 OFFCURVE"
);
},
{
closed = 1;
nodes = (
"894 185 LINE",
"894 -426 LINE",
"1079 -426 LINE",
"1079 189 LINE"
);
},
{
closed = 1;
nodes = (
"135 484 LINE",
"135 -426 LINE",
"320 -426 LINE",
"320 488 LINE"
);
}
);
userData = {
assembly = "NPUSHB[ ]\011/* 61 values pushed */
27 26 2 3 2 1 74 0 5 0 2 3 5 2 97 7 1 4 4 1 91 0 1 1 71 75 0 3 3 0 91 6 1 0 0 69 0 76 33 32 1 0 38 37 32 43 33 43 24 22 18 17 12 10 0 31 1 31 8 8 20 
CALL[ ]\011/* CallFunction */";
};
width = 1229;
}
);
note = e;
unicode = 0065;
changeCount = 67;
},
{
glyphname = f;
layers = (
{
layerId = "E4B1A873-EC94-4624-AAD7-98A019FF1B0F";
paths = (
{
closed = 1;
nodes = (
"636 0 LINE",
"636 939 LINE",
"1053 939 LINE",
"1053 1082 LINE",
"636 1082 LINE",
"636 1158 LINE SMOOTH",
"636 1291 OFFCURVE",
"767 1421 OFFCURVE",
"897 1422 QCURVE SMOOTH",
"959 1422 OFFCURVE",
"1068 1401 OFFCURVE",
"1109 1387 QCURVE",
"1131 1540 LINE",
"1065 1557 OFFCURVE",
"940 1579 OFFCURVE",
"874 1579 QCURVE SMOOTH",
"778 1579 OFFCURVE",
"622 1525 OFFCURVE",
"511 1419 OFFCURVE",
"450 1262 OFFCURVE",
"450 1158 QCURVE SMOOTH",
"450 1082 LINE",
"152 1082 LINE",
"152 939 LINE",
"450 939 LINE",
"450 0 LINE",
"450 0 LINE"
);
}
);
userData = {
assembly = "NPUSHB[ ]\011/* 52 values pushed */
13 1 3 2 14 1 1 3 2 74 0 2 0 3 1 2 3 99 5 1 0 0 1 89 4 1 1 1 63 75 7 1 6 6 61 6 76 0 0 0 25 0 25 17 19 37 37 17 17 8 8 26 
CALL[ ]\011/* CallFunction */";
};
width = 1230;
}
);
note = f;
unicode = 0066;
},
{
glyphname = g;
layers = (
{
layerId = "E4B1A873-EC94-4624-AAD7-98A019FF1B0F";
paths = (
{
closed = 1;
nodes = (
"140 529 LINE SMOOTH",
"140 413 OFFCURVE",
"200 212 OFFCURVE",
"311 64 OFFCURVE",
"471 -20 OFFCURVE",
"570 -20 QCURVE SMOOTH",
"667 -20 OFFCURVE",
"814 45 OFFCURVE",
"868 107 QCURVE",
"868 14 LINE SMOOTH",
"868 -56 OFFCURVE",
"828 -164 OFFCURVE",
"753 -237 OFFCURVE",
"647 -275 OFFCURVE",
"581 -275 QCURVE SMOOTH",
"544 -275 OFFCURVE",
"470 -260 OFFCURVE",
"396 -226 OFFCURVE",
"324 -169 OFFCURVE",
"290 -128 QCURVE",
"194 -239 LINE",
"231 -292 OFFCURVE",
"334 -364 OFFCURVE",
"445 -407 OFFCURVE",
"553 -426 OFFCURVE",
"595 -426 QCURVE SMOOTH",
"697 -426 OFFCURVE",
"865 -366 OFFCURVE",
"986 -250 OFFCURVE",
"1053 -84 OFFCURVE",
"1053 23 QCURVE SMOOTH",
"1053 1082 LINE",
"885 1082 LINE",
"876 964 LINE",
"823 1031 OFFCURVE",
"672 1102 OFFCURVE",
"572 1102 QCURVE SMOOTH",
"471 1102 OFFCURVE",
"311 1020 OFFCURVE",
"199 874 OFFCURVE",
"140 671 OFFCURVE",
"140 550 QCURVE",
"140 550 LINE"
);
},
{
closed = 1;
nodes = (
"325 550 LINE SMOOTH",
"325 629 OFFCURVE",
"358 772 OFFCURVE",
"429 881 OFFCURVE",
"540 945 OFFCURVE",
"618 945 QCURVE SMOOTH",
"664 945 OFFCURVE",
"740 922 OFFCURVE",
"802 881 OFFCURVE",
"850 825 OFFCURVE",
"868 791 QCURVE",
"868 295 LINE",
"850 260 OFFCURVE",
"802 202 OFFCURVE",
"741 160 OFFCURVE",
"664 137 OFFCURVE",
"616 137 QCURVE SMOOTH",
"539 137 OFFCURVE",
"429 200 OFFCURVE",
"358 308 OFFCURVE",
"325 450 OFFCURVE",
"325 529 QCURVE",
"325 529 LINE"
);
}
);
userData = {
assembly = "MPPEM[ ]\011/* MeasurePixelPerEm */
PUSHB[ ]\011/* 1 value pushed */
25 
LT[ ]\011/* LessThan */
IF[ ]\011/* If */
NPUSHB[ ]\011/* 20 values pushed */
8 1 6 0 53 52 2 5 6 33 1 4 5 22 21 2 3 4 4 74 
ELSE[ ]\011/* Else */
NPUSHB[ ]\011/* 20 values pushed */
8 1 6 1 53 52 2 5 6 33 1 4 5 22 21 2 3 4 4 74 
EIF[ ]\011/* EndIf */
MPPEM[ ]\011/* MeasurePixelPerEm */
PUSHB[ ]\011/* 1 value pushed */
25 
LT[ ]\011/* LessThan */
IF[ ]\011/* If */
NPUSHB[ ]\011/* 32 values pushed */
0 6 6 0 91 1 1 0 0 71 75 0 5 5 4 91 0 4 4 69 75 0 3 3 2 91 0 2 2 65 2 76 
ELSE[ ]\011/* Else */
NPUSHB[ ]\011/* 36 values pushed */
0 1 1 63 75 0 6 6 0 91 0 0 0 71 75 0 5 5 4 91 0 4 4 69 75 0 3 3 2 91 0 2 2 65 2 76 
EIF[ ]\011/* EndIf */
NPUSHB[ ]\011/* 10 values pushed */
41 41 39 41 37 19 36 7 8 27 
CALL[ ]\011/* CallFunction */";
};
width = 1229;
}
);
note = g;
unicode = 0067;
},
{
glyphname = h;
layers = (
{
layerId = "E4B1A873-EC94-4624-AAD7-98A019FF1B0F";
paths = (
{
closed = 1;
nodes = (
"359 1536 LINE",
"174 1536 LINE",
"174 0 LINE",
"359 0 LINE",
"359 786 LINE",
"404 858 OFFCURVE",
"549 945 OFFCURVE",
"638 945 QCURVE SMOOTH",
"756 946 OFFCURVE",
"883 816 OFFCURVE",
"883 683 QCURVE SMOOTH",
"883 0 LINE",
"1068 0 LINE",
"1068 681 LINE SMOOTH",
"1068 790 OFFCURVE",
"1015 949 OFFCURVE",
"917 1053 OFFCURVE",
"778 1102 OFFCURVE",
"693 1102 QCURVE SMOOTH",
"587 1101 OFFCURVE",
"417 1006 OFFCURVE",
"359 921 QCURVE",
"359 921 LINE"
);
}
);
userData = {
assembly = "PUSHB[ ]\011/* 7 values pushed */
17 0 2 1 2 1 74 
MPPEM[ ]\011/* MeasurePixelPerEm */
PUSHB[ ]\011/* 1 value pushed */
33 
LT[ ]\011/* LessThan */
IF[ ]\011/* If */
NPUSHB[ ]\011/* 22 values pushed */
0 4 4 62 75 0 2 2 0 91 0 0 0 71 75 3 1 1 1 61 1 76 
ELSE[ ]\011/* Else */
NPUSHB[ ]\011/* 22 values pushed */
0 2 2 0 91 0 0 0 71 75 0 4 4 1 89 3 1 1 1 61 1 76 
EIF[ ]\011/* EndIf */
PUSHB[ ]\011/* 8 values pushed */
17 19 35 21 34 5 8 25 
CALL[ ]\011/* CallFunction */";
};
width = 1229;
}
);
note = h;
unicode = 0068;
},
{
glyphname = i;
lastChange = "2019-10-18 12:22:09 +0000";
layers = (
{
layerId = "E4B1A873-EC94-4624-AAD7-98A019FF1B0F";
paths = (
{
closed = 1;
nodes = (
"93 1255 LINE",
"93 0 LINE",
"269 0 LINE",
"269 861 LINE",
"284 899 OFFCURVE",
"348 945 OFFCURVE",
"406 945 QCURVE SMOOTH",
"469 946 OFFCURVE",
"530 909 OFFCURVE",
"539 842 QCURVE",
"703 833 LINE",
"706 855 OFFCURVE",
"724 896 OFFCURVE",
"756 927 OFFCURVE",
"804 945 OFFCURVE",
"837 945 QCURVE SMOOTH",
"962 946 OFFCURVE",
"962 810 QCURVE SMOOTH",
"962 0 LINE",
"1138 0 LINE",
"1138 808 LINE SMOOTH",
"1138 956 OFFCURVE",
"1010 1102 OFFCURVE",
"891 1102 QCURVE SMOOTH",
"816 1101 OFFCURVE",
"711 1038 OFFCURVE",
"679 986 QCURVE",
"629 1102 OFFCURVE",
"480 1102 QCURVE SMOOTH",
"404 1101 OFFCURVE",
"297 1037 OFFCURVE",
"264 980 QCURVE",
"259 1255 LINE",
"259 1255 LINE"
);
},
{
closed = 1;
nodes = (
"539 1255 LINE",
"539 166 LINE SMOOTH",
"539 89 OFFCURVE",
"500 -16 OFFCURVE",
"432 -80 OFFCURVE",
"340 -107 OFFCURVE",
"288 -107 QCURVE SMOOTH",
"274 -107 OFFCURVE",
"225 -106 OFFCURVE",
"172 -103 OFFCURVE",
"120 -98 OFFCURVE",
"103 -95 QCURVE",
"90 -247 LINE",
"145 -257 OFFCURVE",
"244 -264 OFFCURVE",
"301 -264 QCURVE SMOOTH",
"401 -264 OFFCURVE",
"558 -207 OFFCURVE",
"667 -98 OFFCURVE",
"724 62 OFFCURVE",
"724 166 QCURVE SMOOTH",
"724 1255 LINE"
);
},
{
closed = 1;
nodes = (
"513 1495 OFFCURVE",
"567 1434 OFFCURVE",
"623 1434 QCURVE SMOOTH",
"679 1434 OFFCURVE",
"735 1495 OFFCURVE",
"735 1540 QCURVE SMOOTH",
"735 1585 OFFCURVE",
"679 1648 OFFCURVE",
"623 1648 QCURVE SMOOTH",
"567 1648 OFFCURVE",
"513 1585 OFFCURVE",
"513 1540 QCURVE",
"513 1540 LINE"
);
},
{
closed = 1;
nodes = (
"65 1494 OFFCURVE",
"120 1434 OFFCURVE",
"176 1434 QCURVE SMOOTH",
"231 1434 OFFCURVE",
"287 1494 OFFCURVE",
"287 1539 QCURVE SMOOTH",
"287 1585 OFFCURVE",
"231 1648 OFFCURVE",
"176 1648 QCURVE SMOOTH",
"120 1648 OFFCURVE",
"65 1585 OFFCURVE",
"65 1539 QCURVE",
"65 1539 LINE"
);
}
);
userData = {
assembly = "NPUSHB[ ]\011/* 42 values pushed */
0 6 6 5 91 0 5 5 68 75 0 4 4 0 89 0 0 0 63 75 3 1 1 1 2 89 0 2 2 61 2 76 36 35 17 17 17 17 16 7 8 27 
CALL[ ]\011/* CallFunction */";
};
width = 1229;
}
);
note = i;
unicode = 0069;
changeCount = 2;
},
{
glyphname = j;
lastChange = "2019-10-18 12:41:44 +0000";
layers = (
{
layerId = "E4B1A873-EC94-4624-AAD7-98A019FF1B0F";
paths = (
{
closed = 1;
nodes = (
"93 1255 LINE",
"93 0 LINE",
"269 0 LINE",
"269 861 LINE",
"284 899 OFFCURVE",
"348 945 OFFCURVE",
"406 945 QCURVE SMOOTH",
"469 946 OFFCURVE",
"530 909 OFFCURVE",
"539 842 QCURVE",
"703 833 LINE",
"706 855 OFFCURVE",
"724 896 OFFCURVE",
"756 927 OFFCURVE",
"804 945 OFFCURVE",
"837 945 QCURVE SMOOTH",
"962 946 OFFCURVE",
"962 810 QCURVE SMOOTH",
"962 0 LINE",
"1138 0 LINE",
"1138 808 LINE SMOOTH",
"1138 956 OFFCURVE",
"1010 1102 OFFCURVE",
"891 1102 QCURVE SMOOTH",
"816 1101 OFFCURVE",
"711 1038 OFFCURVE",
"679 986 QCURVE",
"629 1102 OFFCURVE",
"480 1102 QCURVE SMOOTH",
"404 1101 OFFCURVE",
"297 1037 OFFCURVE",
"264 980 QCURVE",
"259 1255 LINE",
"259 1255 LINE"
);
},
{
closed = 1;
nodes = (
"539 1255 LINE",
"539 166 LINE SMOOTH",
"539 89 OFFCURVE",
"500 -16 OFFCURVE",
"432 -80 OFFCURVE",
"340 -107 OFFCURVE",
"288 -107 QCURVE SMOOTH",
"274 -107 OFFCURVE",
"225 -106 OFFCURVE",
"172 -103 OFFCURVE",
"120 -98 OFFCURVE",
"103 -95 QCURVE",
"90 -247 LINE",
"145 -257 OFFCURVE",
"244 -264 OFFCURVE",
"301 -264 QCURVE SMOOTH",
"401 -264 OFFCURVE",
"558 -207 OFFCURVE",
"667 -98 OFFCURVE",
"724 62 OFFCURVE",
"724 166 QCURVE SMOOTH",
"724 1255 LINE"
);
},
{
closed = 1;
nodes = (
"513 1495 OFFCURVE",
"567 1434 OFFCURVE",
"623 1434 QCURVE SMOOTH",
"679 1434 OFFCURVE",
"735 1495 OFFCURVE",
"735 1540 QCURVE SMOOTH",
"735 1585 OFFCURVE",
"679 1648 OFFCURVE",
"623 1648 QCURVE SMOOTH",
"567 1648 OFFCURVE",
"513 1585 OFFCURVE",
"513 1540 QCURVE",
"513 1540 LINE"
);
},
{
closed = 1;
nodes = (
"65 1494 OFFCURVE",
"120 1434 OFFCURVE",
"176 1434 QCURVE SMOOTH",
"231 1434 OFFCURVE",
"287 1494 OFFCURVE",
"287 1539 QCURVE SMOOTH",
"287 1585 OFFCURVE",
"231 1648 OFFCURVE",
"176 1648 QCURVE SMOOTH",
"120 1648 OFFCURVE",
"65 1585 OFFCURVE",
"65 1539 QCURVE",
"65 1539 LINE"
);
}
);
userData = {
assembly = "NPUSHB[ ]\011/* 50 values pushed */
11 1 2 3 10 1 1 2 2 74 0 5 5 4 91 0 4 4 68 75 0 3 3 0 89 0 0 0 63 75 0 2 2 1 91 0 1 1 73 1 76 36 35 21 68 53 16 6 8 26 
CALL[ ]\011/* CallFunction */";
};
width = 1229;
}
);
note = j;
unicode = 006A;
changeCount = 6;
},
{
glyphname = k;
lastChange = "2019-10-18 12:38:54 +0000";
layers = (
{
layerId = "E4B1A873-EC94-4624-AAD7-98A019FF1B0F";
paths = (
{
closed = 1;
nodes = (
"122 529 LINE SMOOTH",
"122 412 OFFCURVE",
"163 212 OFFCURVE",
"239 64 OFFCURVE",
"349 -20 OFFCURVE",
"418 -20 QCURVE SMOOTH",
"487 -20 OFFCURVE",
"596 64 OFFCURVE",
"673 212 OFFCURVE",
"714 412 OFFCURVE",
"714 529 QCURVE SMOOTH",
"714 551 LINE SMOOTH",
"714 668 OFFCURVE",
"673 869 OFFCURVE",
"596 1017 OFFCURVE",
"486 1102 OFFCURVE",
"417 1102 QCURVE SMOOTH",
"349 1102 OFFCURVE",
"239 1017 OFFCURVE",
"163 869 OFFCURVE",
"122 668 OFFCURVE",
"122 551 QCURVE",
"122 551 LINE"
);
},
{
closed = 1;
nodes = (
"281 550 LINE SMOOTH",
"281 621 OFFCURVE",
"297 751 OFFCURVE",
"331 849 OFFCURVE",
"383 908 OFFCURVE",
"417 908 QCURVE SMOOTH",
"452 908 OFFCURVE",
"504 849 OFFCURVE",
"538 751 OFFCURVE",
"554 621 OFFCURVE",
"554 550 QCURVE SMOOTH",
"554 530 LINE SMOOTH",
"554 458 OFFCURVE",
"538 328 OFFCURVE",
"504 230 OFFCURVE",
"452 172 OFFCURVE",
"418 172 QCURVE SMOOTH",
"384 172 OFFCURVE",
"331 230 OFFCURVE",
"297 328 OFFCURVE",
"281 458 OFFCURVE",
"281 530 QCURVE",
"281 530 LINE"
);
},
{
closed = 1;
nodes = (
"903 -12 LINE",
"1107 -12 LINE",
"747 619 LINE",
"1059 1070 LINE",
"863 1070 LINE",
"610 714 LINE",
"656 493 LINE",
"620 493 LINE"
);
},
{
closed = 1;
nodes = (
"329 1702 LINE",
"329 1440 LINE",
"122 1440 LINE",
"122 1256 LINE",
"329 1256 LINE",
"329 999 LINE",
"515 999 LINE",
"515 1256 LINE",
"927 1256 LINE",
"927 1440 LINE",
"515 1440 LINE",
"515 1702 LINE",
"515 1702 LINE"
);
}
);
userData = {
assembly = "PUSHB[ ]\011/* 8 values pushed */
10 6 1 3 0 2 1 74 
MPPEM[ ]\011/* MeasurePixelPerEm */
PUSHB[ ]\011/* 1 value pushed */
33 
LT[ ]\011/* LessThan */
IF[ ]\011/* If */
NPUSHB[ ]\011/* 17 values pushed */
0 1 1 62 75 0 2 2 63 75 3 1 0 0 61 0 76 
ELSE[ ]\011/* Else */
NPUSHB[ ]\011/* 23 values pushed */
0 1 1 0 89 3 1 0 0 61 75 0 2 2 63 75 3 1 0 0 61 0 76 
EIF[ ]\011/* EndIf */
PUSHB[ ]\011/* 7 values pushed */
18 19 17 18 4 8 24 
CALL[ ]\011/* CallFunction */";
};
width = 1229;
}
);
note = k;
unicode = 006B;
changeCount = 11;
},
{
glyphname = l;
layers = (
{
layerId = "E4B1A873-EC94-4624-AAD7-98A019FF1B0F";
paths = (
{
closed = 1;
nodes = (
"203 1375 LINE",
"571 1375 LINE",
"571 160 LINE",
"203 160 LINE",
"203 0 LINE",
"1109 0 LINE",
"1109 160 LINE",
"756 160 LINE",
"756 1536 LINE",
"203 1536 LINE",
"203 1536 LINE"
);
}
);
userData = {
assembly = "MPPEM[ ]\011/* MeasurePixelPerEm */
PUSHB[ ]\011/* 1 value pushed */
33 
LT[ ]\011/* LessThan */
IF[ ]\011/* If */
NPUSHB[ ]\011/* 22 values pushed */
0 4 4 0 89 0 0 0 62 75 3 1 1 1 2 89 0 2 2 61 2 76 
ELSE[ ]\011/* Else */
NPUSHB[ ]\011/* 20 values pushed */
0 0 0 4 1 0 4 97 3 1 1 1 2 89 0 2 2 61 2 76 
EIF[ ]\011/* EndIf */
PUSHB[ ]\011/* 8 values pushed */
17 17 17 17 16 5 8 25 
CALL[ ]\011/* CallFunction */";
};
width = 1229;
}
);
note = l;
unicode = 006C;
},
{
glyphname = m;
lastChange = "2019-10-18 12:17:12 +0000";
layers = (
{
layerId = "E4B1A873-EC94-4624-AAD7-98A019FF1B0F";
paths = (
{
closed = 1;
nodes = (
"93 1255 LINE",
"93 0 LINE",
"269 0 LINE",
"269 861 LINE",
"284 899 OFFCURVE",
"348 945 OFFCURVE",
"406 945 QCURVE SMOOTH",
"469 946 OFFCURVE",
"530 909 OFFCURVE",
"539 842 QCURVE",
"703 833 LINE",
"706 855 OFFCURVE",
"724 896 OFFCURVE",
"756 927 OFFCURVE",
"804 945 OFFCURVE",
"837 945 QCURVE SMOOTH",
"962 946 OFFCURVE",
"962 810 QCURVE SMOOTH",
"962 0 LINE",
"1138 0 LINE",
"1138 808 LINE SMOOTH",
"1138 956 OFFCURVE",
"1010 1102 OFFCURVE",
"891 1102 QCURVE SMOOTH",
"816 1101 OFFCURVE",
"711 1038 OFFCURVE",
"679 986 QCURVE",
"629 1102 OFFCURVE",
"480 1102 QCURVE SMOOTH",
"404 1101 OFFCURVE",
"297 1037 OFFCURVE",
"264 980 QCURVE",
"259 1255 LINE",
"259 1255 LINE"
);
},
{
closed = 1;
nodes = (
"539 1255 LINE",
"539 166 LINE SMOOTH",
"539 89 OFFCURVE",
"500 -16 OFFCURVE",
"432 -80 OFFCURVE",
"340 -107 OFFCURVE",
"288 -107 QCURVE SMOOTH",
"274 -107 OFFCURVE",
"225 -106 OFFCURVE",
"172 -103 OFFCURVE",
"120 -98 OFFCURVE",
"103 -95 QCURVE",
"90 -247 LINE",
"145 -257 OFFCURVE",
"244 -264 OFFCURVE",
"301 -264 QCURVE SMOOTH",
"401 -264 OFFCURVE",
"558 -207 OFFCURVE",
"667 -98 OFFCURVE",
"724 62 OFFCURVE",
"724 166 QCURVE SMOOTH",
"724 1255 LINE"
);
},
{
closed = 1;
nodes = (
"513 1495 OFFCURVE",
"567 1434 OFFCURVE",
"623 1434 QCURVE SMOOTH",
"679 1434 OFFCURVE",
"735 1495 OFFCURVE",
"735 1540 QCURVE SMOOTH",
"735 1585 OFFCURVE",
"679 1648 OFFCURVE",
"623 1648 QCURVE SMOOTH",
"567 1648 OFFCURVE",
"513 1585 OFFCURVE",
"513 1540 QCURVE",
"513 1540 LINE"
);
},
{
closed = 1;
nodes = (
"65 1494 OFFCURVE",
"120 1434 OFFCURVE",
"176 1434 QCURVE SMOOTH",
"231 1434 OFFCURVE",
"287 1494 OFFCURVE",
"287 1539 QCURVE SMOOTH",
"287 1585 OFFCURVE",
"231 1648 OFFCURVE",
"176 1648 QCURVE SMOOTH",
"120 1648 OFFCURVE",
"65 1585 OFFCURVE",
"65 1539 QCURVE",
"65 1539 LINE"
);
}
);
userData = {
assembly = "MPPEM[ ]\011/* MeasurePixelPerEm */
PUSHB[ ]\011/* 1 value pushed */
27 
LT[ ]\011/* LessThan */
IF[ ]\011/* If */
NPUSHB[ ]\011/* 12 values pushed */
6 1 2 3 0 31 22 2 2 3 2 74 
ELSE[ ]\011/* Else */
NPUSHB[ ]\011/* 12 values pushed */
6 1 2 3 7 31 22 2 2 3 2 74 
EIF[ ]\011/* EndIf */
MPPEM[ ]\011/* MeasurePixelPerEm */
PUSHB[ ]\011/* 1 value pushed */
27 
LT[ ]\011/* LessThan */
IF[ ]\011/* If */
NPUSHB[ ]\011/* 22 values pushed */
5 1 3 3 0 91 8 7 1 3 0 0 71 75 6 4 2 2 2 61 2 76 
ELSE[ ]\011/* Else */
NPUSHB[ ]\011/* 26 values pushed */
8 1 7 7 63 75 5 1 3 3 0 91 1 1 0 0 71 75 6 4 2 2 2 61 2 76 
EIF[ ]\011/* EndIf */
NPUSHB[ ]\011/* 16 values pushed */
0 0 0 34 0 34 19 35 21 34 19 35 35 9 8 27 
CALL[ ]\011/* CallFunction */";
};
width = 1229;
}
);
note = m;
unicode = 006D;
changeCount = 71;
},
{
glyphname = n;
lastChange = "2019-10-18 12:31:40 +0000";
layers = (
{
layerId = "E4B1A873-EC94-4624-AAD7-98A019FF1B0F";
paths = (
{
closed = 1;
nodes = (
"731 -20 OFFCURVE",
"865 15 OFFCURVE",
"971 73 OFFCURVE",
"1052 148 OFFCURVE",
"1079 189 QCURVE",
"966 277 LINE",
"915 211 OFFCURVE",
"761 131 OFFCURVE",
"662 131 QCURVE SMOOTH",
"587 131 OFFCURVE",
"463 187 OFFCURVE",
"374 284 OFFCURVE",
"323 414 OFFCURVE",
"320 488 QCURVE",
"1093 488 LINE",
"1093 571 LINE SMOOTH",
"1093 684 OFFCURVE",
"1036 878 OFFCURVE",
"920 1021 OFFCURVE",
"745 1102 OFFCURVE",
"628 1102 QCURVE SMOOTH",
"535 1102 OFFCURVE",
"358 1026 OFFCURVE",
"219 883 OFFCURVE",
"135 676 OFFCURVE",
"135 545 QCURVE SMOOTH",
"135 503 LINE SMOOTH",
"135 390 OFFCURVE",
"211 198 OFFCURVE",
"347 58 OFFCURVE",
"538 -20 OFFCURVE",
"652 -20 QCURVE",
"652 -20 LINE"
);
},
{
closed = 1;
nodes = (
"699 950 OFFCURVE",
"802 898 OFFCURVE",
"870 814 OFFCURVE",
"905 708 OFFCURVE",
"908 654 QCURVE SMOOTH",
"908 640 LINE",
"326 640 LINE",
"337 715 OFFCURVE",
"392 830 OFFCURVE",
"472 909 OFFCURVE",
"572 950 OFFCURVE",
"628 950 QCURVE",
"628 950 LINE"
);
},
{
closed = 1;
nodes = (
"1028 912 OFFCURVE",
"866 1058 OFFCURVE",
"708 1113 OFFCURVE",
"608 1134 QCURVE SMOOTH",
"532 1150 OFFCURVE",
"433 1181 OFFCURVE",
"374 1221 OFFCURVE",
"350 1271 OFFCURVE",
"350 1303 QCURVE SMOOTH",
"350 1334 OFFCURVE",
"380 1392 OFFCURVE",
"439 1436 OFFCURVE",
"528 1462 OFFCURVE",
"587 1462 QCURVE SMOOTH",
"644 1462 OFFCURVE",
"735 1430 OFFCURVE",
"799 1378 OFFCURVE",
"835 1311 OFFCURVE",
"835 1276 QCURVE",
"1020 1276 LINE",
"1020 1347 OFFCURVE",
"959 1470 OFFCURVE",
"847 1562 OFFCURVE",
"687 1614 OFFCURVE",
"587 1614 QCURVE SMOOTH",
"494 1614 OFFCURVE",
"339 1564 OFFCURVE",
"227 1478 OFFCURVE",
"165 1363 OFFCURVE",
"165 1297 QCURVE SMOOTH",
"165 1230 OFFCURVE",
"225 1129 OFFCURVE",
"334 1054 OFFCURVE",
"487 1001 OFFCURVE",
"580 981 QCURVE SMOOTH",
"656 965 OFFCURVE",
"758 929 OFFCURVE",
"820 885 OFFCURVE"
);
},
{
closed = 1;
nodes = (
"894 185 LINE",
"894 -426 LINE",
"1079 -426 LINE",
"1079 189 LINE"
);
},
{
closed = 1;
nodes = (
"135 484 LINE",
"135 -426 LINE",
"320 -426 LINE",
"320 488 LINE"
);
}
);
userData = {
assembly = "PUSHB[ ]\011/* 7 values pushed */
20 1 2 1 2 1 74 
MPPEM[ ]\011/* MeasurePixelPerEm */
PUSHB[ ]\011/* 1 value pushed */
27 
LT[ ]\011/* LessThan */
IF[ ]\011/* If */
NPUSHB[ ]\011/* 19 values pushed */
0 2 2 0 91 5 4 2 0 0 71 75 3 1 1 1 61 1 76 
ELSE[ ]\011/* Else */
NPUSHB[ ]\011/* 23 values pushed */
5 1 4 4 63 75 0 2 2 0 91 0 0 0 71 75 3 1 1 1 61 1 76 
EIF[ ]\011/* EndIf */
NPUSHB[ ]\011/* 13 values pushed */
0 0 0 23 0 23 19 37 21 35 6 8 24 
CALL[ ]\011/* CallFunction */";
};
width = 1229;
}
);
note = n;
unicode = 006E;
changeCount = 4;
},
{
glyphname = o;
lastChange = "2019-10-18 12:39:12 +0000";
layers = (
{
layerId = "E4B1A873-EC94-4624-AAD7-98A019FF1B0F";
paths = (
{
closed = 1;
nodes = (
"122 529 LINE SMOOTH",
"122 412 OFFCURVE",
"163 212 OFFCURVE",
"239 64 OFFCURVE",
"349 -20 OFFCURVE",
"418 -20 QCURVE SMOOTH",
"487 -20 OFFCURVE",
"596 64 OFFCURVE",
"673 212 OFFCURVE",
"714 412 OFFCURVE",
"714 529 QCURVE SMOOTH",
"714 551 LINE SMOOTH",
"714 668 OFFCURVE",
"673 869 OFFCURVE",
"596 1017 OFFCURVE",
"486 1102 OFFCURVE",
"417 1102 QCURVE SMOOTH",
"349 1102 OFFCURVE",
"239 1017 OFFCURVE",
"163 869 OFFCURVE",
"122 668 OFFCURVE",
"122 551 QCURVE",
"122 551 LINE"
);
},
{
closed = 1;
nodes = (
"281 550 LINE SMOOTH",
"281 621 OFFCURVE",
"297 751 OFFCURVE",
"331 849 OFFCURVE",
"383 908 OFFCURVE",
"417 908 QCURVE SMOOTH",
"452 908 OFFCURVE",
"504 849 OFFCURVE",
"538 751 OFFCURVE",
"554 621 OFFCURVE",
"554 550 QCURVE SMOOTH",
"554 530 LINE SMOOTH",
"554 458 OFFCURVE",
"538 328 OFFCURVE",
"504 230 OFFCURVE",
"452 172 OFFCURVE",
"418 172 QCURVE SMOOTH",
"384 172 OFFCURVE",
"331 230 OFFCURVE",
"297 328 OFFCURVE",
"281 458 OFFCURVE",
"281 530 QCURVE",
"281 530 LINE"
);
},
{
closed = 1;
nodes = (
"903 -12 LINE",
"1107 -12 LINE",
"747 619 LINE",
"1059 1070 LINE",
"863 1070 LINE",
"610 714 LINE",
"656 493 LINE",
"620 493 LINE"
);
},
{
closed = 1;
nodes = (
"329 1702 LINE",
"329 1440 LINE",
"122 1440 LINE",
"122 1256 LINE",
"329 1256 LINE",
"329 999 LINE",
"515 999 LINE",
"515 1256 LINE",
"927 1256 LINE",
"927 1440 LINE",
"515 1440 LINE",
"515 1702 LINE",
"515 1702 LINE"
);
}
);
userData = {
assembly = "NPUSHB[ ]\011/* 28 values pushed */
0 3 3 0 91 0 0 0 71 75 0 2 2 1 91 0 1 1 69 1 76 41 41 41 36 4 8 24 
CALL[ ]\011/* CallFunction */";
};
width = 1229;
}
);
note = o;
unicode = 006F;
changeCount = 52;
},
{
glyphname = p;
lastChange = "2019-10-18 12:21:56 +0000";
layers = (
{
layerId = "E4B1A873-EC94-4624-AAD7-98A019FF1B0F";
paths = (
{
closed = 1;
nodes = (
"445 -20 OFFCURVE",
"306 30 OFFCURVE",
"209 115 OFFCURVE",
"156 232 OFFCURVE",
"156 300 QCURVE SMOOTH",
"156 389 OFFCURVE",
"227 523 OFFCURVE",
"357 612 OFFCURVE",
"540 656 OFFCURVE",
"653 656 QCURVE SMOOTH",
"855 656 LINE",
"855 741 LINE SMOOTH",
"855 790 OFFCURVE",
"819 868 OFFCURVE",
"753 923 OFFCURVE",
"658 953 OFFCURVE",
"599 953 QCURVE SMOOTH",
"544 953 OFFCURVE",
"457 925 OFFCURVE",
"397 879 OFFCURVE",
"364 816 OFFCURVE",
"364 782 QCURVE",
"178 782 LINE",
"179 841 OFFCURVE",
"238 955 OFFCURVE",
"349 1046 OFFCURVE",
"508 1102 OFFCURVE",
"609 1102 QCURVE SMOOTH",
"701 1102 OFFCURVE",
"859 1057 OFFCURVE",
"974 966 OFFCURVE",
"1034 822 OFFCURVE",
"1040 739 QCURVE SMOOTH",
"1036 499 OFFCURVE",
"1034 309 QCURVE",
"1034 30 OFFCURVE",
"678 -19 OFFCURVE",
"584 -20 OFFCURVE",
"531 -20 QCURVE SMOOTH"
);
},
{
closed = 1;
nodes = (
"156 306 LINE",
"342 306 LINE",
"358 104 LINE",
"358 -416 LINE",
"156 -416 LINE"
);
},
{
closed = 1;
nodes = (
"558 141 LINE",
"612 141 OFFCURVE",
"869 169 OFFCURVE",
"855 306 QCURVE",
"855 525 LINE",
"683 525 LINE SMOOTH",
"521 525 OFFCURVE",
"341 429 OFFCURVE",
"341 326 QCURVE SMOOTH",
"341 286 OFFCURVE",
"368 218 OFFCURVE",
"422 169 OFFCURVE",
"504 141 OFFCURVE",
"558 141 QCURVE"
);
}
);
userData = {
assembly = "NPUSHB[ ]\011/* 15 values pushed */
13 1 4 2 31 30 2 5 4 8 1 0 5 3 74 
MPPEM[ ]\011/* MeasurePixelPerEm */
PUSHB[ ]\011/* 1 value pushed */
25 
LT[ ]\011/* LessThan */
IF[ ]\011/* If */
NPUSHB[ ]\011/* 27 values pushed */
0 4 4 2 91 3 1 2 2 63 75 0 5 5 0 91 0 0 0 69 75 0 1 1 65 1 76 
ELSE[ ]\011/* Else */
NPUSHB[ ]\011/* 31 values pushed */
0 2 2 63 75 0 4 4 3 91 0 3 3 71 75 0 5 5 0 91 0 0 0 69 75 0 1 1 65 1 76 
EIF[ ]\011/* EndIf */
NPUSHB[ ]\011/* 9 values pushed */
37 41 35 17 19 36 6 8 26 
CALL[ ]\011/* CallFunction */";
};
width = 1229;
}
);
note = p;
unicode = 0070;
changeCount = 2;
},
{
glyphname = q;
layers = (
{
layerId = "E4B1A873-EC94-4624-AAD7-98A019FF1B0F";
paths = (
{
closed = 1;
nodes = (
"140 529 LINE SMOOTH",
"140 413 OFFCURVE",
"199 212 OFFCURVE",
"311 64 OFFCURVE",
"472 -20 OFFCURVE",
"575 -20 QCURVE SMOOTH",
"669 -20 OFFCURVE",
"813 41 OFFCURVE",
"867 98 QCURVE",
"867 -416 LINE",
"1052 -416 LINE",
"1052 1082 LINE",
"882 1082 LINE",
"874 975 LINE",
"820 1037 OFFCURVE",
"673 1102 OFFCURVE",
"577 1102 QCURVE SMOOTH",
"473 1102 OFFCURVE",
"310 1020 OFFCURVE",
"198 874 OFFCURVE",
"140 671 OFFCURVE",
"140 550 QCURVE",
"140 550 LINE"
);
},
{
closed = 1;
nodes = (
"325 550 LINE SMOOTH",
"325 629 OFFCURVE",
"360 773 OFFCURVE",
"433 884 OFFCURVE",
"545 950 OFFCURVE",
"622 950 QCURVE SMOOTH",
"665 950 OFFCURVE",
"738 929 OFFCURVE",
"799 891 OFFCURVE",
"848 840 OFFCURVE",
"867 809 QCURVE",
"867 275 LINE",
"829 211 OFFCURVE",
"709 131 OFFCURVE",
"620 131 QCURVE SMOOTH",
"543 131 OFFCURVE",
"432 196 OFFCURVE",
"360 306 OFFCURVE",
"325 450 OFFCURVE",
"325 529 QCURVE",
"325 529 LINE"
);
}
);
userData = {
assembly = "MPPEM[ ]\011/* MeasurePixelPerEm */
PUSHB[ ]\011/* 1 value pushed */
25 
LT[ ]\011/* LessThan */
IF[ ]\011/* If */
NPUSHB[ ]\011/* 15 values pushed */
8 1 5 0 31 30 2 4 5 13 1 3 4 3 74 
ELSE[ ]\011/* Else */
NPUSHB[ ]\011/* 15 values pushed */
8 1 5 1 31 30 2 4 5 13 1 3 4 3 74 
EIF[ ]\011/* EndIf */
MPPEM[ ]\011/* MeasurePixelPerEm */
PUSHB[ ]\011/* 1 value pushed */
25 
LT[ ]\011/* LessThan */
IF[ ]\011/* If */
NPUSHB[ ]\011/* 27 values pushed */
0 5 5 0 91 1 1 0 0 71 75 0 4 4 3 91 0 3 3 69 75 0 2 2 65 2 76 
ELSE[ ]\011/* Else */
NPUSHB[ ]\011/* 31 values pushed */
0 1 1 63 75 0 5 5 0 91 0 0 0 71 75 0 4 4 3 91 0 3 3 69 75 0 2 2 65 2 76 
EIF[ ]\011/* EndIf */
NPUSHB[ ]\011/* 9 values pushed */
39 41 35 17 19 36 6 8 26 
CALL[ ]\011/* CallFunction */";
};
width = 1229;
}
);
note = q;
unicode = 0071;
},
{
glyphname = r;
layers = (
{
layerId = "E4B1A873-EC94-4624-AAD7-98A019FF1B0F";
paths = (
{
closed = 1;
nodes = (
"765 1102 OFFCURVE",
"580 999 OFFCURVE",
"514 910 QCURVE",
"505 1082 LINE",
"329 1082 LINE",
"329 0 LINE",
"515 0 LINE",
"515 694 LINE",
"553 800 OFFCURVE",
"714 918 OFFCURVE",
"844 918 QCURVE SMOOTH",
"897 918 OFFCURVE",
"994 907 OFFCURVE",
"1048 895 QCURVE",
"1073 1076 LINE",
"1059 1082 OFFCURVE",
"1016 1092 OFFCURVE",
"965 1099 OFFCURVE",
"909 1102 OFFCURVE",
"883 1102 QCURVE",
"883 1102 LINE"
);
}
);
userData = {
assembly = "MPPEM[ ]\011/* MeasurePixelPerEm */
PUSHB[ ]\011/* 1 value pushed */
27 
LT[ ]\011/* LessThan */
IF[ ]\011/* If */
NPUSHB[ ]\011/* 12 values pushed */
5 1 1 0 17 12 6 3 2 1 2 74 
ELSE[ ]\011/* Else */
NPUSHB[ ]\011/* 12 values pushed */
5 1 1 3 17 12 6 3 2 1 2 74 
EIF[ ]\011/* EndIf */
MPPEM[ ]\011/* MeasurePixelPerEm */
PUSHB[ ]\011/* 1 value pushed */
27 
LT[ ]\011/* LessThan */
IF[ ]\011/* If */
NPUSHB[ ]\011/* 18 values pushed */
0 1 1 0 91 3 4 2 0 0 71 75 0 2 2 61 2 76 
ELSE[ ]\011/* Else */
NPUSHB[ ]\011/* 22 values pushed */
0 3 3 63 75 0 1 1 0 91 4 1 0 0 71 75 0 2 2 61 2 76 
EIF[ ]\011/* EndIf */
NPUSHB[ ]\011/* 15 values pushed */
2 0 16 15 14 13 10 8 0 19 2 19 5 8 20 
CALL[ ]\011/* CallFunction */";
};
width = 1229;
}
);
note = r;
unicode = 0072;
},
{
glyphname = s;
lastChange = "2019-10-18 12:32:19 +0000";
layers = (
{
layerId = "E4B1A873-EC94-4624-AAD7-98A019FF1B0F";
paths = (
{
closed = 1;
nodes = (
"731 -20 OFFCURVE",
"865 15 OFFCURVE",
"971 73 OFFCURVE",
"1052 148 OFFCURVE",
"1079 189 QCURVE",
"966 277 LINE",
"915 211 OFFCURVE",
"761 131 OFFCURVE",
"662 131 QCURVE SMOOTH",
"587 131 OFFCURVE",
"463 187 OFFCURVE",
"374 284 OFFCURVE",
"323 414 OFFCURVE",
"320 488 QCURVE",
"1093 488 LINE",
"1093 571 LINE SMOOTH",
"1093 684 OFFCURVE",
"1036 878 OFFCURVE",
"920 1021 OFFCURVE",
"745 1102 OFFCURVE",
"628 1102 QCURVE SMOOTH",
"535 1102 OFFCURVE",
"358 1026 OFFCURVE",
"219 883 OFFCURVE",
"135 676 OFFCURVE",
"135 545 QCURVE SMOOTH",
"135 503 LINE SMOOTH",
"135 390 OFFCURVE",
"211 198 OFFCURVE",
"347 58 OFFCURVE",
"538 -20 OFFCURVE",
"652 -20 QCURVE",
"652 -20 LINE"
);
},
{
closed = 1;
nodes = (
"699 950 OFFCURVE",
"802 898 OFFCURVE",
"870 814 OFFCURVE",
"905 708 OFFCURVE",
"908 654 QCURVE SMOOTH",
"908 640 LINE",
"326 640 LINE",
"337 715 OFFCURVE",
"392 830 OFFCURVE",
"472 909 OFFCURVE",
"572 950 OFFCURVE",
"628 950 QCURVE",
"628 950 LINE"
);
},
{
closed = 1;
nodes = (
"1028 912 OFFCURVE",
"866 1058 OFFCURVE",
"708 1113 OFFCURVE",
"608 1134 QCURVE SMOOTH",
"532 1150 OFFCURVE",
"433 1181 OFFCURVE",
"374 1221 OFFCURVE",
"350 1271 OFFCURVE",
"350 1303 QCURVE SMOOTH",
"350 1334 OFFCURVE",
"380 1392 OFFCURVE",
"439 1436 OFFCURVE",
"528 1462 OFFCURVE",
"587 1462 QCURVE SMOOTH",
"644 1462 OFFCURVE",
"735 1430 OFFCURVE",
"799 1378 OFFCURVE",
"835 1311 OFFCURVE",
"835 1276 QCURVE",
"1020 1276 LINE",
"1020 1347 OFFCURVE",
"959 1470 OFFCURVE",
"847 1562 OFFCURVE",
"687 1614 OFFCURVE",
"587 1614 QCURVE SMOOTH",
"494 1614 OFFCURVE",
"339 1564 OFFCURVE",
"227 1478 OFFCURVE",
"165 1363 OFFCURVE",
"165 1297 QCURVE SMOOTH",
"165 1230 OFFCURVE",
"225 1129 OFFCURVE",
"334 1054 OFFCURVE",
"487 1001 OFFCURVE",
"580 981 QCURVE SMOOTH",
"656 965 OFFCURVE",
"758 929 OFFCURVE",
"820 885 OFFCURVE"
);
},
{
closed = 1;
nodes = (
"894 185 LINE",
"894 -426 LINE",
"1079 -426 LINE",
"1079 189 LINE"
);
},
{
closed = 1;
nodes = (
"135 484 LINE",
"135 -426 LINE",
"320 -426 LINE",
"320 488 LINE"
);
}
);
userData = {
assembly = "NPUSHB[ ]\011/* 48 values pushed */
0 1 2 4 2 1 4 112 0 4 5 2 4 5 110 0 2 2 0 91 0 0 0 71 75 0 5 5 3 91 0 3 3 69 3 76 58 56 52 51 47 45 36 20 46 6 8 23 
CALL[ ]\011/* CallFunction */";
};
width = 1229;
}
);
note = s;
unicode = 0073;
changeCount = 4;
},
{
glyphname = t;
lastChange = "2019-10-18 12:38:59 +0000";
layers = (
{
layerId = "E4B1A873-EC94-4624-AAD7-98A019FF1B0F";
paths = (
{
closed = 1;
nodes = (
"122 529 LINE SMOOTH",
"122 412 OFFCURVE",
"163 212 OFFCURVE",
"239 64 OFFCURVE",
"349 -20 OFFCURVE",
"418 -20 QCURVE SMOOTH",
"487 -20 OFFCURVE",
"596 64 OFFCURVE",
"673 212 OFFCURVE",
"714 412 OFFCURVE",
"714 529 QCURVE SMOOTH",
"714 551 LINE SMOOTH",
"714 668 OFFCURVE",
"673 869 OFFCURVE",
"596 1017 OFFCURVE",
"486 1102 OFFCURVE",
"417 1102 QCURVE SMOOTH",
"349 1102 OFFCURVE",
"239 1017 OFFCURVE",
"163 869 OFFCURVE",
"122 668 OFFCURVE",
"122 551 QCURVE",
"122 551 LINE"
);
},
{
closed = 1;
nodes = (
"281 550 LINE SMOOTH",
"281 621 OFFCURVE",
"297 751 OFFCURVE",
"331 849 OFFCURVE",
"383 908 OFFCURVE",
"417 908 QCURVE SMOOTH",
"452 908 OFFCURVE",
"504 849 OFFCURVE",
"538 751 OFFCURVE",
"554 621 OFFCURVE",
"554 550 QCURVE SMOOTH",
"554 530 LINE SMOOTH",
"554 458 OFFCURVE",
"538 328 OFFCURVE",
"504 230 OFFCURVE",
"452 172 OFFCURVE",
"418 172 QCURVE SMOOTH",
"384 172 OFFCURVE",
"331 230 OFFCURVE",
"297 328 OFFCURVE",
"281 458 OFFCURVE",
"281 530 QCURVE",
"281 530 LINE"
);
},
{
closed = 1;
nodes = (
"903 -12 LINE",
"1107 -12 LINE",
"747 619 LINE",
"1059 1070 LINE",
"863 1070 LINE",
"610 714 LINE",
"656 493 LINE",
"620 493 LINE"
);
},
{
closed = 1;
nodes = (
"329 1702 LINE",
"329 1440 LINE",
"122 1440 LINE",
"122 1256 LINE",
"329 1256 LINE",
"329 999 LINE",
"515 999 LINE",
"515 1256 LINE",
"927 1256 LINE",
"927 1440 LINE",
"515 1440 LINE",
"515 1702 LINE",
"515 1702 LINE"
);
}
);
userData = {
assembly = "NPUSHB[ ]\011/* 54 values pushed */
15 1 2 1 16 1 3 2 2 74 7 1 6 0 6 114 4 1 1 1 0 89 5 1 0 0 63 75 0 2 2 3 91 0 3 3 69 3 76 0 0 0 31 0 31 17 21 41 37 17 17 8 8 26 
CALL[ ]\011/* CallFunction */";
};
width = 1229;
}
);
note = t;
unicode = 0074;
changeCount = 27;
},
{
glyphname = u;
lastChange = "2019-10-18 12:35:53 +0000";
layers = (
{
layerId = "E4B1A873-EC94-4624-AAD7-98A019FF1B0F";
paths = (
{
closed = 1;
nodes = (
"999 0 LINE",
"1139 0 LINE",
"1139 1082 LINE",
"988 1082 LINE",
"988 306 LINE",
"967 228 OFFCURVE",
"883 136 OFFCURVE",
"813 136 QCURVE SMOOTH",
"782 136 OFFCURVE",
"732 164 OFFCURVE",
"698 233 OFFCURVE",
"681 349 OFFCURVE",
"681 437 QCURVE SMOOTH",
"681 1082 LINE",
"536 1082 LINE",
"536 439 LINE SMOOTH",
"536 318 OFFCURVE",
"568 145 OFFCURVE",
"660 33 OFFCURVE",
"744 -20 OFFCURVE",
"796 -20 QCURVE SMOOTH",
"860 -20 OFFCURVE",
"959 37 OFFCURVE",
"992 117 QCURVE",
"992 117 LINE"
);
},
{
closed = 1;
nodes = (
"684 270 LINE",
"681 1082 LINE",
"536 1082 LINE",
"536 306 LINE",
"517 228 OFFCURVE",
"437 136 OFFCURVE",
"375 136 QCURVE SMOOTH",
"345 136 OFFCURVE",
"299 164 OFFCURVE",
"267 233 OFFCURVE",
"252 349 OFFCURVE",
"252 437 QCURVE SMOOTH",
"252 535 LINE",
"125 535 LINE",
"125 439 LINE SMOOTH",
"125 319 OFFCURVE",
"157 145 OFFCURVE",
"232 33 OFFCURVE",
"310 -20 OFFCURVE",
"358 -20 QCURVE SMOOTH",
"418 -20 OFFCURVE",
"568 89 OFFCURVE",
"598 169 QCURVE",
"598 169 LINE"
);
}
);
userData = {
assembly = "PUSHB[ ]\011/* 6 values pushed */
19 1 2 1 1 74 
MPPEM[ ]\011/* MeasurePixelPerEm */
PUSHB[ ]\011/* 1 value pushed */
25 
LT[ ]\011/* LessThan */
IF[ ]\011/* If */
NPUSHB[ ]\011/* 18 values pushed */
3 1 1 1 63 75 0 2 2 0 91 4 1 0 0 69 0 76 
ELSE[ ]\011/* Else */
NPUSHB[ ]\011/* 22 values pushed */
3 1 1 1 63 75 0 4 4 61 75 0 2 2 0 91 0 0 0 69 0 76 
EIF[ ]\011/* EndIf */
PUSHB[ ]\011/* 8 values pushed */
17 19 37 21 34 5 8 25 
CALL[ ]\011/* CallFunction */";
};
width = 1229;
}
);
note = u;
unicode = 0075;
changeCount = 19;
},
{
glyphname = v;
layers = (
{
layerId = "E4B1A873-EC94-4624-AAD7-98A019FF1B0F";
paths = (
{
closed = 1;
nodes = (
"288 1082 LINE",
"98 1082 LINE",
"543 0 LINE",
"684 0 LINE",
"1125 1082 LINE",
"936 1082 LINE",
"633 266 LINE",
"615 199 LINE",
"598 266 LINE",
"598 266 LINE"
);
}
);
userData = {
assembly = "NPUSHB[ ]\011/* 24 values pushed */
1 1 1 0 1 74 2 1 0 0 63 75 0 1 1 61 1 76 17 17 19 3 8 23 
CALL[ ]\011/* CallFunction */";
};
width = 1229;
}
);
note = v;
unicode = 0076;
},
{
glyphname = w;
lastChange = "2019-10-18 12:36:01 +0000";
layers = (
{
layerId = "E4B1A873-EC94-4624-AAD7-98A019FF1B0F";
paths = (
{
closed = 1;
nodes = (
"999 0 LINE",
"1139 0 LINE",
"1139 1082 LINE",
"988 1082 LINE",
"988 306 LINE",
"967 228 OFFCURVE",
"883 136 OFFCURVE",
"813 136 QCURVE SMOOTH",
"782 136 OFFCURVE",
"732 164 OFFCURVE",
"698 233 OFFCURVE",
"681 349 OFFCURVE",
"681 437 QCURVE SMOOTH",
"681 1082 LINE",
"536 1082 LINE",
"536 439 LINE SMOOTH",
"536 318 OFFCURVE",
"568 145 OFFCURVE",
"660 33 OFFCURVE",
"744 -20 OFFCURVE",
"796 -20 QCURVE SMOOTH",
"860 -20 OFFCURVE",
"959 37 OFFCURVE",
"992 117 QCURVE",
"992 117 LINE"
);
},
{
closed = 1;
nodes = (
"684 270 LINE",
"681 1082 LINE",
"536 1082 LINE",
"536 306 LINE",
"517 228 OFFCURVE",
"437 136 OFFCURVE",
"375 136 QCURVE SMOOTH",
"345 136 OFFCURVE",
"299 164 OFFCURVE",
"267 233 OFFCURVE",
"252 349 OFFCURVE",
"252 437 QCURVE SMOOTH",
"252 535 LINE",
"125 535 LINE",
"125 439 LINE SMOOTH",
"125 319 OFFCURVE",
"157 145 OFFCURVE",
"232 33 OFFCURVE",
"310 -20 OFFCURVE",
"358 -20 QCURVE SMOOTH",
"418 -20 OFFCURVE",
"568 89 OFFCURVE",
"598 169 QCURVE",
"598 169 LINE"
);
}
);
userData = {
assembly = "NPUSHB[ ]\011/* 30 values pushed */
13 6 1 3 2 0 1 74 4 1 2 0 0 63 75 3 1 2 2 61 2 76 17 20 17 20 19 5 8 25 
CALL[ ]\011/* CallFunction */";
};
width = 1229;
}
);
note = w;
unicode = 0077;
changeCount = 31;
},
{
glyphname = x;
layers = (
{
layerId = "E4B1A873-EC94-4624-AAD7-98A019FF1B0F";
paths = (
{
closed = 1;
nodes = (
"335 1082 LINE",
"121 1082 LINE",
"524 547 LINE",
"110 0 LINE",
"326 0 LINE",
"625 412 LINE",
"924 0 LINE",
"1138 0 LINE",
"724 547 LINE",
"1127 1082 LINE",
"910 1082 LINE",
"621 681 LINE",
"621 681 LINE"
);
}
);
userData = {
assembly = "NPUSHB[ ]\011/* 28 values pushed */
9 6 3 3 1 0 1 74 3 1 0 0 63 75 2 1 1 1 61 1 76 18 18 18 17 4 8 24 
CALL[ ]\011/* CallFunction */";
};
width = 1229;
}
);
note = x;
unicode = 0078;
},
{
glyphname = y;
layers = (
{
layerId = "E4B1A873-EC94-4624-AAD7-98A019FF1B0F";
paths = (
{
closed = 1;
nodes = (
"275 1082 LINE",
"68 1082 LINE",
"534 51 LINE",
"460 -93 LINE SMOOTH",
"450 -113 OFFCURVE",
"415 -175 OFFCURVE",
"366 -233 OFFCURVE",
"303 -275 OFFCURVE",
"265 -275 QCURVE SMOOTH",
"258 -275 OFFCURVE",
"234 -274 OFFCURVE",
"208 -272 OFFCURVE",
"184 -270 OFFCURVE",
"177 -270 QCURVE",
"147 -421 LINE",
"156 -423 OFFCURVE",
"184 -429 OFFCURVE",
"216 -434 OFFCURVE",
"248 -437 OFFCURVE",
"261 -437 QCURVE SMOOTH",
"334 -437 OFFCURVE",
"446 -383 OFFCURVE",
"530 -303 OFFCURVE",
"589 -209 OFFCURVE",
"608 -167 QCURVE SMOOTH",
"1157 1082 LINE",
"950 1082 LINE",
"620 253 LINE",
"572 384 LINE",
"572 384 LINE"
);
}
);
userData = {
assembly = "NPUSHB[ ]\011/* 33 values pushed */
26 1 2 2 0 1 74 4 1 0 0 63 75 3 1 2 2 1 92 0 1 1 73 1 76 22 49 36 53 18 5 8 25 
CALL[ ]\011/* CallFunction */";
};
width = 1229;
}
);
note = y;
unicode = 0079;
},
{
glyphname = z;
layers = (
{
layerId = "E4B1A873-EC94-4624-AAD7-98A019FF1B0F";
paths = (
{
closed = 1;
nodes = (
"1049 951 LINE",
"1049 1082 LINE",
"169 1082 LINE",
"169 929 LINE",
"806 929 LINE",
"160 136 LINE",
"160 0 LINE",
"1085 0 LINE",
"1085 151 LINE",
"396 151 LINE",
"396 151 LINE"
);
}
);
userData = {
assembly = "NPUSHB[ ]\011/* 38 values pushed */
9 1 2 3 4 1 1 0 2 74 0 2 2 3 89 0 3 3 63 75 0 0 0 1 89 0 1 1 61 1 76 17 18 17 16 4 8 24 
CALL[ ]\011/* CallFunction */";
};
width = 1229;
}
);
note = z;
unicode = 007A;
},
{
glyphname = braceleft;
layers = (
{
layerId = "E4B1A873-EC94-4624-AAD7-98A019FF1B0F";
paths = (
{
closed = 1;
nodes = (
"999 -251 LINE",
"937 -249 OFFCURVE",
"856 -185 OFFCURVE",
"807 -86 OFFCURVE",
"787 37 OFFCURVE",
"787 99 QCURVE SMOOTH",
"787 268 LINE SMOOTH",
"786 387 OFFCURVE",
"676 568 OFFCURVE",
"560 614 QCURVE",
"676 661 OFFCURVE",
"786 842 OFFCURVE",
"787 962 QCURVE SMOOTH",
"787 1132 LINE SMOOTH",
"787 1193 OFFCURVE",
"799 1317 OFFCURVE",
"842 1416 OFFCURVE",
"927 1480 OFFCURVE",
"999 1482 QCURVE",
"978 1597 LINE",
"909 1595 OFFCURVE",
"800 1555 OFFCURVE",
"716 1487 OFFCURVE",
"657 1397 OFFCURVE",
"619 1294 OFFCURVE",
"601 1185 OFFCURVE",
"601 1132 QCURVE SMOOTH",
"601 962 LINE SMOOTH",
"601 817 OFFCURVE",
"464 688 OFFCURVE",
"323 688 QCURVE",
"323 543 LINE",
"464 542 OFFCURVE",
"601 412 OFFCURVE",
"601 268 QCURVE SMOOTH",
"601 99 LINE SMOOTH",
"601 46 OFFCURVE",
"621 -63 OFFCURVE",
"662 -166 OFFCURVE",
"723 -256 OFFCURVE",
"807 -324 OFFCURVE",
"913 -364 OFFCURVE",
"978 -366 QCURVE",
"978 -366 LINE"
);
}
);
userData = {
assembly = "NPUSHB[ ]\011/* 48 values pushed */
33 1 1 2 1 74 0 3 0 4 2 3 4 99 0 2 0 1 5 2 1 99 0 5 0 0 5 87 0 5 5 0 91 0 0 5 0 79 42 41 17 25 17 25 16 6 8 25 
CALL[ ]\011/* CallFunction */";
};
width = 1229;
}
);
note = braceleft;
unicode = 007B;
},
{
glyphname = bar;
layers = (
{
layerId = "E4B1A873-EC94-4624-AAD7-98A019FF1B0F";
paths = (
{
closed = 1;
nodes = (
"689 1456 LINE",
"540 1456 LINE",
"540 -398 LINE",
"689 -398 LINE",
"689 -398 LINE"
);
}
);
userData = {
assembly = "NPUSHB[ ]\011/* 16 values pushed */
0 1 1 60 75 0 0 0 65 0 76 17 16 2 8 22 
CALL[ ]\011/* CallFunction */";
};
width = 1229;
}
);
note = bar;
unicode = 007C;
},
{
glyphname = braceright;
layers = (
{
layerId = "E4B1A873-EC94-4624-AAD7-98A019FF1B0F";
paths = (
{
closed = 1;
nodes = (
"344 -366 LINE",
"442 -364 OFFCURVE",
"584 -278 OFFCURVE",
"677 -144 OFFCURVE",
"721 19 OFFCURVE",
"721 99 QCURVE SMOOTH",
"721 268 LINE SMOOTH",
"721 412 OFFCURVE",
"859 542 OFFCURVE",
"999 543 QCURVE",
"999 688 LINE",
"859 688 OFFCURVE",
"721 817 OFFCURVE",
"721 962 QCURVE SMOOTH",
"721 1132 LINE SMOOTH",
"721 1185 OFFCURVE",
"703 1294 OFFCURVE",
"665 1397 OFFCURVE",
"606 1487 OFFCURVE",
"522 1555 OFFCURVE",
"413 1595 OFFCURVE",
"344 1597 QCURVE",
"324 1482 LINE",
"396 1480 OFFCURVE",
"480 1416 OFFCURVE",
"523 1317 OFFCURVE",
"536 1193 OFFCURVE",
"536 1132 QCURVE SMOOTH",
"536 962 LINE SMOOTH",
"536 842 OFFCURVE",
"646 661 OFFCURVE",
"762 614 QCURVE",
"646 568 OFFCURVE",
"536 387 OFFCURVE",
"536 268 QCURVE SMOOTH",
"536 99 LINE SMOOTH",
"536 37 OFFCURVE",
"515 -86 OFFCURVE",
"466 -185 OFFCURVE",
"384 -249 OFFCURVE",
"323 -251 QCURVE",
"323 -251 LINE"
);
}
);
userData = {
assembly = "NPUSHB[ ]\011/* 52 values pushed */
9 1 4 3 1 74 0 2 0 1 3 2 1 99 0 3 0 4 0 3 4 99 0 0 5 5 0 87 0 0 0 5 91 0 5 0 5 79 40 39 32 31 30 29 20 19 18 17 16 6 8 21 
CALL[ ]\011/* CallFunction */";
};
width = 1229;
}
);
note = braceright;
unicode = 007D;
},
{
glyphname = asciitilde;
layers = (
{
layerId = "E4B1A873-EC94-4624-AAD7-98A019FF1B0F";
paths = (
{
closed = 1;
nodes = (
"1046 758 LINE",
"1046 720 OFFCURVE",
"1020 650 OFFCURVE",
"975 597 OFFCURVE",
"914 565 OFFCURVE",
"879 565 QCURVE SMOOTH",
"823 564 OFFCURVE",
"726 615 OFFCURVE",
"669 663 QCURVE SMOOTH",
"630 695 OFFCURVE",
"555 747 OFFCURVE",
"477 783 OFFCURVE",
"394 802 OFFCURVE",
"348 802 QCURVE SMOOTH",
"281 802 OFFCURVE",
"171 749 OFFCURVE",
"92 659 OFFCURVE",
"48 539 OFFCURVE",
"48 473 QCURVE",
"182 456 LINE",
"182 494 OFFCURVE",
"208 561 OFFCURVE",
"252 610 OFFCURVE",
"313 639 OFFCURVE",
"348 639 QCURVE SMOOTH",
"404 640 OFFCURVE",
"504 587 OFFCURVE",
"559 542 QCURVE SMOOTH",
"599 508 OFFCURVE",
"674 456 OFFCURVE",
"751 420 OFFCURVE",
"832 402 OFFCURVE",
"879 402 QCURVE SMOOTH",
"946 402 OFFCURVE",
"1056 458 OFFCURVE",
"1136 552 OFFCURVE",
"1180 674 OFFCURVE",
"1180 740 QCURVE",
"1180 740 LINE"
);
}
);
userData = {
assembly = "NPUSHB[ ]\011/* 43 values pushed */
37 0 2 1 2 19 18 2 0 3 2 74 0 2 0 1 3 2 1 99 0 3 0 0 3 87 0 3 3 0 91 0 0 3 0 79 38 41 38 36 4 8 24 
CALL[ ]\011/* CallFunction */";
};
width = 1229;
}
);
note = asciitilde;
unicode = 007E;
},
{
glyphname = exclamdown;
layers = (
{
layerId = "E4B1A873-EC94-4624-AAD7-98A019FF1B0F";
paths = (
{
closed = 1;
nodes = (
"522 -372 LINE",
"707 -372 LINE",
"707 611 LINE",
"522 611 LINE",
"522 611 LINE"
);
},
{
closed = 1;
nodes = (
"728 1038 OFFCURVE",
"669 1103 OFFCURVE",
"613 1103 QCURVE SMOOTH",
"556 1103 OFFCURVE",
"498 1038 OFFCURVE",
"498 990 QCURVE SMOOTH",
"498 944 OFFCURVE",
"556 881 OFFCURVE",
"613 881 QCURVE SMOOTH",
"669 881 OFFCURVE",
"728 944 OFFCURVE",
"728 990 QCURVE",
"728 990 LINE"
);
}
);
userData = {
assembly = "MPPEM[ ]\011/* MeasurePixelPerEm */
PUSHB[ ]\011/* 1 value pushed */
23 
LT[ ]\011/* LessThan */
IF[ ]\011/* If */
NPUSHB[ ]\011/* 21 values pushed */
0 2 2 3 91 0 3 3 71 75 0 0 0 1 89 0 1 1 65 1 76 
ELSE[ ]\011/* Else */
NPUSHB[ ]\011/* 18 values pushed */
0 0 0 1 0 1 93 0 2 2 3 91 0 3 3 71 2 76 
EIF[ ]\011/* EndIf */
PUSHB[ ]\011/* 7 values pushed */
36 35 17 16 4 8 24 
CALL[ ]\011/* CallFunction */";
};
width = 1229;
}
);
note = exclamdown;
unicode = 00A1;
},
{
glyphname = cent;
layers = (
{
layerId = "E4B1A873-EC94-4624-AAD7-98A019FF1B0F";
paths = (
{
closed = 1;
nodes = (
"552 130 OFFCURVE",
"435 199 OFFCURVE",
"364 310 OFFCURVE",
"333 449 OFFCURVE",
"333 520 QCURVE SMOOTH",
"333 562 LINE SMOOTH",
"333 632 OFFCURVE",
"364 770 OFFCURVE",
"436 881 OFFCURVE",
"553 950 OFFCURVE",
"639 950 QCURVE SMOOTH",
"695 950 OFFCURVE",
"792 912 OFFCURVE",
"862 846 OFFCURVE",
"903 759 OFFCURVE",
"904 710 QCURVE",
"1079 710 LINE",
"1079 783 OFFCURVE",
"1026 913 OFFCURVE",
"930 1015 OFFCURVE",
"798 1084 OFFCURVE",
"718 1096 QCURVE",
"718 1318 LINE",
"533 1318 LINE",
"533 1092 LINE",
"437 1074 OFFCURVE",
"292 975 OFFCURVE",
"196 832 OFFCURVE",
"147 657 OFFCURVE",
"147 562 QCURVE SMOOTH",
"147 520 LINE SMOOTH",
"147 425 OFFCURVE",
"196 249 OFFCURVE",
"292 107 OFFCURVE",
"437 8 OFFCURVE",
"533 -10 QCURVE",
"533 -245 LINE",
"718 -245 LINE",
"718 -13 LINE",
"791 -1 OFFCURVE",
"922 65 OFFCURVE",
"1020 160 OFFCURVE",
"1078 277 OFFCURVE",
"1079 341 QCURVE",
"904 341 LINE",
"903 296 OFFCURVE",
"858 219 OFFCURVE",
"784 162 OFFCURVE",
"689 130 OFFCURVE",
"639 130 QCURVE",
"639 130 LINE"
);
}
);
userData = {
assembly = "NPUSHB[ ]\011/* 72 values pushed */
28 25 2 5 3 14 11 2 2 0 2 74 0 4 5 1 5 4 1 112 0 1 0 5 1 0 110 0 3 0 5 4 3 5 99 6 1 0 2 2 0 87 6 1 0 0 2 89 0 2 0 2 77 1 0 40 38 34 33 27 26 13 12 6 5 0 49 1 49 7 8 20 
CALL[ ]\011/* CallFunction */";
};
width = 1229;
}
);
note = cent;
unicode = 00A2;
},
{
glyphname = sterling;
layers = (
{
layerId = "E4B1A873-EC94-4624-AAD7-98A019FF1B0F";
paths = (
{
closed = 1;
nodes = (
"778 626 LINE",
"778 778 LINE",
"458 778 LINE",
"450 1039 LINE SMOOTH",
"450 1106 OFFCURVE",
"487 1213 OFFCURVE",
"551 1286 OFFCURVE",
"640 1325 OFFCURVE",
"691 1325 QCURVE SMOOTH",
"739 1325 OFFCURVE",
"826 1298 OFFCURVE",
"893 1241 OFFCURVE",
"932 1152 OFFCURVE",
"932 1089 QCURVE",
"1118 1089 LINE",
"1118 1176 OFFCURVE",
"1062 1318 OFFCURVE",
"957 1420 OFFCURVE",
"805 1476 OFFCURVE",
"709 1476 QCURVE SMOOTH",
"613 1476 OFFCURVE",
"449 1416 OFFCURVE",
"331 1303 OFFCURVE",
"264 1141 OFFCURVE",
"264 1039 QCURVE",
"273 778 LINE",
"113 778 LINE",
"113 626 LINE",
"278 626 LINE",
"286 400 LINE SMOOTH",
"286 368 OFFCURVE",
"278 287 OFFCURVE",
"256 214 OFFCURVE",
"219 158 OFFCURVE",
"192 151 QCURVE",
"117 151 LINE",
"117 0 LINE",
"1147 0 LINE",
"1148 151 LINE",
"410 151 LINE",
"442 199 OFFCURVE",
"471 331 OFFCURVE",
"471 400 QCURVE SMOOTH",
"463 626 LINE",
"463 626 LINE"
);
}
);
userData = {
assembly = "NPUSHB[ ]\011/* 59 values pushed */
0 6 7 4 7 6 4 112 8 1 4 10 9 2 3 0 4 3 97 0 7 7 5 91 0 5 5 68 75 2 1 0 0 1 89 0 1 1 61 1 76 0 0 0 43 0 43 21 36 20 37 17 22 17 17 20 11 8 29 
CALL[ ]\011/* CallFunction */";
};
width = 1229;
}
);
note = sterling;
unicode = 00A3;
},
{
glyphname = currency;
layers = (
{
layerId = "E4B1A873-EC94-4624-AAD7-98A019FF1B0F";
paths = (
{
closed = 1;
nodes = (
"1038 -27 LINE",
"1170 109 LINE",
"1054 228 LINE",
"1090 290 OFFCURVE",
"1130 435 OFFCURVE",
"1130 515 QCURVE SMOOTH",
"1130 600 OFFCURVE",
"1086 752 OFFCURVE",
"1046 816 QCURVE",
"1170 944 LINE",
"1038 1080 LINE",
"918 955 LINE",
"858 1000 OFFCURVE",
"714 1049 OFFCURVE",
"634 1049 QCURVE SMOOTH",
"554 1049 OFFCURVE",
"411 1001 OFFCURVE",
"351 957 QCURVE",
"234 1079 LINE",
"103 944 LINE",
"223 820 LINE",
"181 755 OFFCURVE",
"137 601 OFFCURVE",
"137 515 QCURVE SMOOTH",
"137 434 OFFCURVE",
"177 287 OFFCURVE",
"215 224 QCURVE",
"103 109 LINE",
"234 -26 LINE",
"338 82 LINE",
"400 34 OFFCURVE",
"549 -20 OFFCURVE",
"634 -20 QCURVE SMOOTH",
"719 -20 OFFCURVE",
"869 34 OFFCURVE",
"931 84 QCURVE",
"931 84 LINE"
);
},
{
closed = 1;
nodes = (
"309 589 OFFCURVE",
"359 721 OFFCURVE",
"446 820 OFFCURVE",
"565 878 OFFCURVE",
"634 878 QCURVE SMOOTH",
"703 878 OFFCURVE",
"821 820 OFFCURVE",
"908 721 OFFCURVE",
"957 589 OFFCURVE",
"957 515 QCURVE SMOOTH",
"957 441 OFFCURVE",
"908 309 OFFCURVE",
"821 210 OFFCURVE",
"703 151 OFFCURVE",
"634 151 QCURVE SMOOTH",
"565 151 OFFCURVE",
"446 210 OFFCURVE",
"359 309 OFFCURVE",
"309 441 OFFCURVE",
"309 515 QCURVE",
"309 515 LINE"
);
}
);
userData = {
assembly = "NPUSHB[ ]\011/* 32 values pushed */
26 24 18 16 4 3 1 33 27 15 9 4 2 3 34 8 6 3 0 2 3 74 25 17 2 1 72 35 7 2 0 71 
MPPEM[ ]\011/* MeasurePixelPerEm */
PUSHB[ ]\011/* 1 value pushed */
31 
LT[ ]\011/* LessThan */
IF[ ]\011/* If */
NPUSHB[ ]\011/* 21 values pushed */
0 3 3 1 91 0 1 1 63 75 0 2 2 0 91 0 0 0 69 0 76 
ELSE[ ]\011/* Else */
NPUSHB[ ]\011/* 19 values pushed */
0 1 0 3 2 1 3 99 0 2 2 0 91 0 0 0 69 0 76 
EIF[ ]\011/* EndIf */
NPUSHB[ ]\011/* 10 values pushed */
52 50 42 40 22 20 34 4 8 21 
CALL[ ]\011/* CallFunction */";
};
width = 1229;
}
);
note = currency;
unicode = 00A4;
},
{
glyphname = yen;
layers = (
{
layerId = "E4B1A873-EC94-4624-AAD7-98A019FF1B0F";
paths = (
{
closed = 1;
nodes = (
"245 1456 LINE",
"33 1456 LINE",
"454 736 LINE",
"138 736 LINE",
"138 615 LINE",
"518 615 LINE",
"518 446 LINE",
"138 446 LINE",
"138 326 LINE",
"518 326 LINE",
"518 0 LINE",
"703 0 LINE",
"703 326 LINE",
"1092 326 LINE",
"1092 446 LINE",
"703 446 LINE",
"703 613 LINE",
"704 615 LINE",
"1092 615 LINE",
"1092 736 LINE",
"774 736 LINE",
"1195 1456 LINE",
"983 1456 LINE",
"614 779 LINE",
"614 779 LINE"
);
}
);
userData = {
assembly = "NPUSHB[ ]\011/* 48 values pushed */
9 1 1 8 1 2 3 1 2 98 7 1 3 6 1 4 5 3 4 97 10 1 0 0 60 75 0 5 5 61 5 76 23 22 21 20 17 17 17 17 17 18 17 17 17 11 8 29 
CALL[ ]\011/* CallFunction */";
};
width = 1229;
}
);
note = yen;
unicode = 00A5;
},
{
glyphname = brokenbar;
layers = (
{
layerId = "E4B1A873-EC94-4624-AAD7-98A019FF1B0F";
paths = (
{
closed = 1;
nodes = (
"696 -270 LINE",
"696 521 LINE",
"511 521 LINE",
"511 -270 LINE",
"511 -270 LINE"
);
},
{
closed = 1;
nodes = (
"696 1456 LINE",
"511 1456 LINE",
"511 698 LINE",
"696 698 LINE",
"696 698 LINE"
);
}
);
userData = {
assembly = "NPUSHB[ ]\011/* 33 values pushed */
0 0 4 1 1 0 1 93 0 2 2 3 89 0 3 3 60 2 76 0 0 7 6 5 4 0 3 0 3 17 5 8 21 
CALL[ ]\011/* CallFunction */";
};
width = 1229;
}
);
note = brokenbar;
unicode = 00A6;
},
{
glyphname = section;
layers = (
{
layerId = "E4B1A873-EC94-4624-AAD7-98A019FF1B0F";
paths = (
{
closed = 1;
nodes = (
"1140 525 OFFCURVE",
"1075 658 OFFCURVE",
"953 754 OFFCURVE",
"780 824 OFFCURVE",
"672 854 QCURVE SMOOTH",
"572 882 OFFCURVE",
"438 931 OFFCURVE",
"357 988 OFFCURVE",
"323 1060 OFFCURVE",
"323 1112 QCURVE SMOOTH",
"323 1157 OFFCURVE",
"361 1235 OFFCURVE",
"438 1292 OFFCURVE",
"551 1325 OFFCURVE",
"626 1325 QCURVE SMOOTH",
"699 1325 OFFCURVE",
"814 1281 OFFCURVE",
"892 1206 OFFCURVE",
"933 1103 OFFCURVE",
"933 1045 QCURVE",
"1118 1045 LINE",
"1118 1149 OFFCURVE",
"1049 1310 OFFCURVE",
"922 1419 OFFCURVE",
"740 1476 OFFCURVE",
"626 1476 QCURVE SMOOTH",
"517 1476 OFFCURVE",
"337 1425 OFFCURVE",
"209 1329 OFFCURVE",
"138 1194 OFFCURVE",
"138 1110 QCURVE SMOOTH",
"138 1010 OFFCURVE",
"209 874 OFFCURVE",
"275 825 QCURVE",
"189 784 OFFCURVE",
"93 645 OFFCURVE",
"93 551 QCURVE SMOOTH",
"93 456 OFFCURVE",
"159 322 OFFCURVE",
"281 224 OFFCURVE",
"454 155 OFFCURVE",
"560 126 QCURVE SMOOTH",
"656 97 OFFCURVE",
"789 45 OFFCURVE",
"873 -12 OFFCURVE",
"911 -82 OFFCURVE",
"911 -130 QCURVE SMOOTH",
"911 -177 OFFCURVE",
"869 -255 OFFCURVE",
"790 -311 OFFCURVE",
"678 -343 OFFCURVE",
"608 -343 QCURVE SMOOTH",
"548 -343 OFFCURVE",
"428 -314 OFFCURVE",
"332 -247 OFFCURVE",
"272 -140 OFFCURVE",
"272 -62 QCURVE",
"87 -64 LINE",
"87 -184 OFFCURVE",
"177 -349 OFFCURVE",
"323 -450 OFFCURVE",
"510 -495 OFFCURVE",
"608 -495 QCURVE SMOOTH",
"717 -495 OFFCURVE",
"896 -446 OFFCURVE",
"1025 -352 OFFCURVE",
"1096 -216 OFFCURVE",
"1096 -128 QCURVE SMOOTH",
"1096 -28 OFFCURVE",
"1023 108 OFFCURVE",
"954 156 QCURVE",
"1042 196 OFFCURVE",
"1140 334 OFFCURVE",
"1140 431 QCURVE",
"1140 431 LINE"
);
},
{
closed = 1;
nodes = (
"694 662 OFFCURVE",
"830 609 OFFCURVE",
"916 549 OFFCURVE",
"956 476 OFFCURVE",
"956 428 QCURVE SMOOTH",
"955 357 OFFCURVE",
"869 258 OFFCURVE",
"793 238 QCURVE",
"756 252 OFFCURVE",
"676 276 OFFCURVE",
"632 289 QCURVE SMOOTH",
"532 317 OFFCURVE",
"396 367 OFFCURVE",
"314 426 OFFCURVE",
"278 500 OFFCURVE",
"278 553 QCURVE SMOOTH",
"278 624 OFFCURVE",
"357 724 OFFCURVE",
"435 742 QCURVE",
"472 728 OFFCURVE",
"553 703 OFFCURVE",
"598 691 QCURVE",
"598 691 LINE"
);
}
);
userData = {
assembly = "NPUSHB[ ]\011/* 54 values pushed */
88 77 40 3 4 1 4 1 74 0 4 5 1 5 4 1 112 0 1 2 5 1 2 110 0 2 0 0 2 0 95 0 5 5 3 91 0 3 3 68 5 76 60 58 54 53 49 47 36 20 42 6 8 23 
CALL[ ]\011/* CallFunction */";
};
width = 1229;
}
);
note = section;
unicode = 00A7;
},
{
glyphname = dieresis;
layers = (
{
layerId = "E4B1A873-EC94-4624-AAD7-98A019FF1B0F";
paths = (
{
closed = 1;
nodes = (
"287 1326 OFFCURVE",
"342 1266 OFFCURVE",
"396 1266 QCURVE SMOOTH",
"450 1266 OFFCURVE",
"506 1326 OFFCURVE",
"506 1371 QCURVE SMOOTH",
"506 1416 OFFCURVE",
"450 1477 OFFCURVE",
"396 1477 QCURVE SMOOTH",
"342 1477 OFFCURVE",
"287 1416 OFFCURVE",
"287 1371 QCURVE",
"287 1371 LINE"
);
},
{
closed = 1;
nodes = (
"717 1325 OFFCURVE",
"772 1264 OFFCURVE",
"826 1264 QCURVE SMOOTH",
"880 1264 OFFCURVE",
"936 1325 OFFCURVE",
"936 1369 QCURVE SMOOTH",
"936 1414 OFFCURVE",
"880 1476 OFFCURVE",
"826 1476 QCURVE SMOOTH",
"772 1476 OFFCURVE",
"717 1414 OFFCURVE",
"717 1369 QCURVE",
"717 1369 LINE"
);
}
);
userData = {
assembly = "NPUSHB[ ]\011/* 20 values pushed */
3 1 1 1 0 91 2 1 0 0 68 1 76 36 36 36 34 4 8 24 
CALL[ ]\011/* CallFunction */";
};
width = 1229;
}
);
note = dieresis;
unicode = 00A8;
},
{
glyphname = copyright;
layers = (
{
layerId = "E4B1A873-EC94-4624-AAD7-98A019FF1B0F";
paths = (
{
closed = 1;
nodes = (
"752 443 LINE",
"751 371 OFFCURVE",
"685 305 OFFCURVE",
"613 305 QCURVE SMOOTH",
"575 305 OFFCURVE",
"518 335 OFFCURVE",
"480 387 OFFCURVE",
"462 457 OFFCURVE",
"462 498 QCURVE SMOOTH",
"462 586 LINE SMOOTH",
"462 626 OFFCURVE",
"480 697 OFFCURVE",
"518 748 OFFCURVE",
"575 778 OFFCURVE",
"613 778 QCURVE SMOOTH",
"685 778 OFFCURVE",
"752 712 OFFCURVE",
"753 641 QCURVE",
"863 641 LINE",
"863 756 OFFCURVE",
"731 876 OFFCURVE",
"613 876 QCURVE SMOOTH",
"551 876 OFFCURVE",
"455 832 OFFCURVE",
"389 754 OFFCURVE",
"353 647 OFFCURVE",
"353 585 QCURVE SMOOTH",
"353 498 LINE SMOOTH",
"353 435 OFFCURVE",
"389 329 OFFCURVE",
"455 252 OFFCURVE",
"551 208 OFFCURVE",
"613 208 QCURVE SMOOTH",
"731 208 OFFCURVE",
"862 327 OFFCURVE",
"862 443 QCURVE",
"862 443 LINE"
);
},
{
closed = 1;
nodes = (
"177 639 OFFCURVE",
"245 810 OFFCURVE",
"365 938 OFFCURVE",
"528 1011 OFFCURVE",
"623 1011 QCURVE SMOOTH",
"717 1011 OFFCURVE",
"880 938 OFFCURVE",
"1000 810 OFFCURVE",
"1068 639 OFFCURVE",
"1068 542 QCURVE SMOOTH",
"1068 444 OFFCURVE",
"1000 272 OFFCURVE",
"880 143 OFFCURVE",
"717 68 OFFCURVE",
"623 68 QCURVE SMOOTH",
"528 68 OFFCURVE",
"365 142 OFFCURVE",
"245 271 OFFCURVE",
"177 444 OFFCURVE",
"177 542 QCURVE",
"177 542 LINE"
);
},
{
closed = 1;
nodes = (
"90 425 OFFCURVE",
"172 220 OFFCURVE",
"315 67 OFFCURVE",
"510 -21 OFFCURVE",
"623 -21 QCURVE SMOOTH",
"736 -21 OFFCURVE",
"930 67 OFFCURVE",
"1073 220 OFFCURVE",
"1155 425 OFFCURVE",
"1155 542 QCURVE SMOOTH",
"1155 659 OFFCURVE",
"1073 863 OFFCURVE",
"930 1014 OFFCURVE",
"736 1102 OFFCURVE",
"623 1102 QCURVE SMOOTH",
"548 1102 OFFCURVE",
"410 1062 OFFCURVE",
"292 990 OFFCURVE",
"195 888 OFFCURVE",
"127 763 OFFCURVE",
"90 620 OFFCURVE",
"90 542 QCURVE",
"90 542 LINE"
);
}
);
userData = {
assembly = "NPUSHB[ ]\011/* 75 values pushed */
0 2 3 5 3 2 5 112 10 1 5 4 3 5 4 110 0 1 0 3 2 1 3 99 0 4 0 0 6 4 0 99 0 7 7 8 91 0 8 8 71 75 0 6 6 9 91 0 9 9 69 9 76 0 0 74 72 64 62 52 50 42 40 0 35 0 35 41 34 18 41 34 11 8 25 
CALL[ ]\011/* CallFunction */";
};
width = 1229;
}
);
note = copyright;
unicode = 00A9;
},
{
glyphname = ordfeminine;
layers = (
{
layerId = "E4B1A873-EC94-4624-AAD7-98A019FF1B0F";
paths = (
{
closed = 1;
nodes = (
"945 705 LINE",
"931 750 OFFCURVE",
"919 838 OFFCURVE",
"919 886 QCURVE SMOOTH",
"919 1200 LINE SMOOTH",
"919 1268 OFFCURVE",
"877 1372 OFFCURVE",
"802 1441 OFFCURVE",
"695 1476 OFFCURVE",
"630 1476 QCURVE SMOOTH",
"561 1476 OFFCURVE",
"447 1442 OFFCURVE",
"366 1380 OFFCURVE",
"321 1294 OFFCURVE",
"320 1243 QCURVE",
"481 1231 LINE",
"482 1283 OFFCURVE",
"563 1336 OFFCURVE",
"630 1336 QCURVE SMOOTH",
"693 1336 OFFCURVE",
"755 1266 OFFCURVE",
"756 1201 QCURVE SMOOTH",
"756 1149 LINE",
"615 1149 LINE SMOOTH",
"457 1149 OFFCURVE",
"284 1030 OFFCURVE",
"284 918 QCURVE SMOOTH",
"284 813 OFFCURVE",
"415 691 OFFCURVE",
"533 691 QCURVE SMOOTH",
"617 692 OFFCURVE",
"729 759 OFFCURVE",
"759 802 QCURVE",
"765 749 OFFCURVE",
"780 705 QCURVE",
"780 705 LINE"
);
},
{
closed = 1;
nodes = (
"510 828 OFFCURVE",
"446 877 OFFCURVE",
"446 922 QCURVE SMOOTH",
"446 971 OFFCURVE",
"537 1037 OFFCURVE",
"616 1037 QCURVE SMOOTH",
"756 1037 LINE",
"756 928 LINE",
"748 910 OFFCURVE",
"709 874 OFFCURVE",
"658 845 OFFCURVE",
"599 828 OFFCURVE",
"572 828 QCURVE",
"572 828 LINE"
);
}
);
userData = {
assembly = "MPPEM[ ]\011/* MeasurePixelPerEm */
PUSHB[ ]\011/* 1 value pushed */
35 
LT[ ]\011/* LessThan */
IF[ ]\011/* If */
NPUSHB[ ]\011/* 15 values pushed */
20 19 2 1 2 40 1 5 6 2 1 0 5 3 74 
ELSE[ ]\011/* Else */
NPUSHB[ ]\011/* 15 values pushed */
20 19 2 1 2 40 1 5 6 2 1 4 5 3 74 
EIF[ ]\011/* EndIf */
MPPEM[ ]\011/* MeasurePixelPerEm */
PUSHB[ ]\011/* 1 value pushed */
22 
LT[ ]\011/* LessThan */
IF[ ]\011/* If */
NPUSHB[ ]\011/* 31 values pushed */
8 1 5 7 4 2 0 5 0 95 0 2 2 3 91 0 3 3 68 75 0 6 6 1 91 0 1 1 71 6 76 
ELSE[ ]\011/* Else */
MPPEM[ ]\011/* MeasurePixelPerEm */
PUSHB[ ]\011/* 1 value pushed */
35 
LT[ ]\011/* LessThan */
IF[ ]\011/* If */
NPUSHB[ ]\011/* 29 values pushed */
0 1 0 6 5 1 6 99 8 1 5 7 4 2 0 5 0 95 0 2 2 3 91 0 3 3 68 2 76 
ELSE[ ]\011/* Else */
NPUSHB[ ]\011/* 36 values pushed */
7 1 4 5 0 5 4 0 112 0 1 0 6 5 1 6 99 8 1 5 0 0 5 0 95 0 2 2 3 91 0 3 3 68 2 76 
EIF[ ]\011/* EndIf */
EIF[ ]\011/* EndIf */
NPUSHB[ ]\011/* 21 values pushed */
36 35 0 0 43 41 35 47 36 47 0 34 0 34 39 35 36 36 9 8 24 
CALL[ ]\011/* CallFunction */";
};
width = 1229;
}
);
note = ordfeminine;
unicode = 00AA;
},
{
glyphname = logicalnot;
layers = (
{
layerId = "E4B1A873-EC94-4624-AAD7-98A019FF1B0F";
paths = (
{
closed = 1;
nodes = (
"1019 800 LINE",
"189 800 LINE",
"189 639 LINE",
"834 639 LINE",
"834 375 LINE",
"1019 375 LINE",
"1019 375 LINE"
);
}
);
userData = {
assembly = "MPPEM[ ]\011/* MeasurePixelPerEm */
PUSHB[ ]\011/* 1 value pushed */
10 
LT[ ]\011/* LessThan */
IF[ ]\011/* If */
NPUSHB[ ]\011/* 22 values pushed */
0 0 1 1 0 103 0 2 1 1 2 85 0 2 2 1 89 0 1 2 1 77 
ELSE[ ]\011/* Else */
NPUSHB[ ]\011/* 21 values pushed */
0 0 1 0 115 0 2 1 1 2 85 0 2 2 1 89 0 1 2 1 77 
EIF[ ]\011/* EndIf */
PUSHB[ ]\011/* 6 values pushed */
17 17 16 3 8 23 
CALL[ ]\011/* CallFunction */";
};
width = 1229;
}
);
note = logicalnot;
unicode = 00AC;
},
{
glyphname = registered;
layers = (
{
layerId = "E4B1A873-EC94-4624-AAD7-98A019FF1B0F";
paths = (
{
closed = 1;
nodes = (
"87 423 OFFCURVE",
"169 218 OFFCURVE",
"312 67 OFFCURVE",
"507 -21 OFFCURVE",
"620 -21 QCURVE SMOOTH",
"733 -21 OFFCURVE",
"927 67 OFFCURVE",
"1070 218 OFFCURVE",
"1152 423 OFFCURVE",
"1152 540 QCURVE SMOOTH",
"1152 657 OFFCURVE",
"1070 862 OFFCURVE",
"927 1014 OFFCURVE",
"733 1101 OFFCURVE",
"620 1101 QCURVE SMOOTH",
"507 1101 OFFCURVE",
"312 1014 OFFCURVE",
"169 862 OFFCURVE",
"87 657 OFFCURVE",
"87 540 QCURVE",
"87 540 LINE"
);
},
{
closed = 1;
nodes = (
"174 638 OFFCURVE",
"242 810 OFFCURVE",
"362 937 OFFCURVE",
"525 1010 OFFCURVE",
"620 1010 QCURVE SMOOTH",
"714 1010 OFFCURVE",
"877 937 OFFCURVE",
"997 810 OFFCURVE",
"1065 638 OFFCURVE",
"1065 540 QCURVE SMOOTH",
"1065 442 OFFCURVE",
"997 271 OFFCURVE",
"877 143 OFFCURVE",
"714 69 OFFCURVE",
"620 69 QCURVE SMOOTH",
"525 69 OFFCURVE",
"362 143 OFFCURVE",
"242 271 OFFCURVE",
"174 442 OFFCURVE",
"174 540 QCURVE",
"174 540 LINE"
);
},
{
closed = 1;
nodes = (
"633 485 LINE",
"753 232 LINE",
"863 232 LINE",
"716 519 LINE",
"782 541 OFFCURVE",
"852 619 OFFCURVE",
"852 675 QCURVE SMOOTH",
"852 723 OFFCURVE",
"818 795 OFFCURVE",
"755 843 OFFCURVE",
"667 867 OFFCURVE",
"612 867 QCURVE SMOOTH",
"401 867 LINE",
"401 232 LINE",
"508 232 LINE",
"508 485 LINE",
"508 485 LINE"
);
},
{
closed = 1;
nodes = (
"508 770 LINE",
"612 770 LINE SMOOTH",
"685 770 OFFCURVE",
"745 726 OFFCURVE",
"745 671 QCURVE SMOOTH",
"745 629 OFFCURVE",
"675 583 OFFCURVE",
"627 582 QCURVE SMOOTH",
"508 582 LINE",
"508 582 LINE"
);
}
);
userData = {
assembly = "NPUSHB[ ]\011/* 73 values pushed */
52 1 7 8 1 74 6 1 4 7 2 7 4 2 112 0 5 0 9 8 5 9 99 0 8 10 1 7 4 8 7 97 0 3 3 0 91 0 0 0 71 75 0 2 2 1 91 0 1 1 69 1 76 40 40 64 62 58 56 40 55 40 55 24 33 21 40 40 40 36 11 8 27 
CALL[ ]\011/* CallFunction */";
};
width = 1229;
}
);
note = registered;
unicode = 00AE;
},
{
glyphname = macron;
layers = (
{
layerId = "E4B1A873-EC94-4624-AAD7-98A019FF1B0F";
paths = (
{
closed = 1;
nodes = (
"971 1456 LINE",
"257 1456 LINE",
"257 1313 LINE",
"971 1313 LINE",
"971 1313 LINE"
);
}
);
userData = {
assembly = "NPUSHB[ ]\011/* 16 values pushed */
0 0 0 1 89 0 1 1 60 0 76 17 16 2 8 22 
CALL[ ]\011/* CallFunction */";
};
width = 1229;
}
);
note = macron;
unicode = "00AF,02C9";
},
{
glyphname = degree;
layers = (
{
layerId = "E4B1A873-EC94-4624-AAD7-98A019FF1B0F";
paths = (
{
closed = 1;
nodes = (
"361 1162 OFFCURVE",
"402 1069 OFFCURVE",
"471 1000 OFFCURVE",
"564 960 OFFCURVE",
"616 960 QCURVE SMOOTH",
"667 960 OFFCURVE",
"758 1000 OFFCURVE",
"826 1069 OFFCURVE",
"866 1163 OFFCURVE",
"866 1216 QCURVE SMOOTH",
"866 1269 OFFCURVE",
"826 1364 OFFCURVE",
"758 1435 OFFCURVE",
"667 1476 OFFCURVE",
"616 1476 QCURVE SMOOTH",
"564 1476 OFFCURVE",
"471 1435 OFFCURVE",
"402 1364 OFFCURVE",
"361 1269 OFFCURVE",
"361 1216 QCURVE",
"361 1216 LINE"
);
},
{
closed = 1;
nodes = (
"485 1244 OFFCURVE",
"506 1293 OFFCURVE",
"541 1329 OFFCURVE",
"589 1349 OFFCURVE",
"616 1349 QCURVE SMOOTH",
"643 1349 OFFCURVE",
"689 1329 OFFCURVE",
"724 1293 OFFCURVE",
"743 1244 OFFCURVE",
"743 1216 QCURVE SMOOTH",
"743 1189 OFFCURVE",
"724 1142 OFFCURVE",
"689 1107 OFFCURVE",
"643 1088 OFFCURVE",
"616 1088 QCURVE SMOOTH",
"589 1088 OFFCURVE",
"541 1107 OFFCURVE",
"506 1142 OFFCURVE",
"485 1189 OFFCURVE",
"485 1216 QCURVE",
"485 1216 LINE"
);
}
);
userData = {
assembly = "NPUSHB[ ]\011/* 28 values pushed */
0 3 3 0 91 0 0 0 68 75 0 1 1 2 91 0 2 2 63 1 76 40 40 40 36 4 8 24 
CALL[ ]\011/* CallFunction */";
};
width = 1229;
}
);
note = degree;
unicode = 00B0;
},
{
glyphname = plusminus;
layers = (
{
layerId = "E4B1A873-EC94-4624-AAD7-98A019FF1B0F";
paths = (
{
closed = 1;
nodes = (
"709 1267 LINE",
"541 1267 LINE",
"541 855 LINE",
"156 855 LINE",
"156 703 LINE",
"541 703 LINE",
"541 289 LINE",
"709 289 LINE",
"709 703 LINE",
"1072 703 LINE",
"1072 855 LINE",
"709 855 LINE",
"709 855 LINE"
);
},
{
closed = 1;
nodes = (
"1030 152 LINE",
"195 152 LINE",
"195 1 LINE",
"1030 1 LINE",
"1030 1 LINE"
);
}
);
userData = {
assembly = "NPUSHB[ ]\011/* 40 values pushed */
4 1 0 3 1 1 2 0 1 97 0 5 0 2 7 5 2 97 0 7 7 6 89 0 6 6 61 6 76 17 17 17 17 17 17 17 16 8 8 28 
CALL[ ]\011/* CallFunction */";
};
width = 1229;
}
);
note = plusminus;
unicode = 00B1;
},
{
glyphname = twosuperior;
layers = (
{
layerId = "E4B1A873-EC94-4624-AAD7-98A019FF1B0F";
paths = (
{
closed = 1;
nodes = (
"934 795 LINE",
"535 795 LINE",
"710 940 LINE",
"753 979 OFFCURVE",
"824 1050 OFFCURVE",
"875 1119 OFFCURVE",
"902 1190 OFFCURVE",
"902 1230 QCURVE SMOOTH",
"902 1285 OFFCURVE",
"862 1372 OFFCURVE",
"788 1434 OFFCURVE",
"682 1467 OFFCURVE",
"616 1467 QCURVE SMOOTH",
"547 1467 OFFCURVE",
"436 1426 OFFCURVE",
"358 1355 OFFCURVE",
"316 1259 OFFCURVE",
"316 1205 QCURVE",
"474 1205 LINE",
"475 1263 OFFCURVE",
"546 1338 OFFCURVE",
"620 1338 QCURVE SMOOTH",
"678 1338 OFFCURVE",
"744 1277 OFFCURVE",
"744 1228 QCURVE SMOOTH",
"744 1193 OFFCURVE",
"688 1106 OFFCURVE",
"623 1046 QCURVE SMOOTH",
"335 775 LINE",
"335 667 LINE",
"934 667 LINE",
"934 667 LINE"
);
}
);
userData = {
assembly = "PUSHB[ ]\011/* 6 values pushed */
2 1 0 4 1 74 
MPPEM[ ]\011/* MeasurePixelPerEm */
PUSHB[ ]\011/* 1 value pushed */
10 
LT[ ]\011/* LessThan */
IF[ ]\011/* If */
NPUSHB[ ]\011/* 26 values pushed */
0 2 1 4 1 2 4 112 0 4 0 0 4 0 93 0 1 1 3 91 0 3 3 60 1 76 
ELSE[ ]\011/* Else */
MPPEM[ ]\011/* MeasurePixelPerEm */
PUSHB[ ]\011/* 1 value pushed */
12 
LT[ ]\011/* LessThan */
IF[ ]\011/* If */
NPUSHB[ ]\011/* 26 values pushed */
0 2 1 4 1 2 4 112 0 4 0 0 4 0 93 0 1 1 3 91 0 3 3 68 1 76 
ELSE[ ]\011/* Else */
MPPEM[ ]\011/* MeasurePixelPerEm */
PUSHB[ ]\011/* 1 value pushed */
14 
LT[ ]\011/* LessThan */
IF[ ]\011/* If */
NPUSHB[ ]\011/* 26 values pushed */
0 2 1 4 1 2 4 112 0 4 0 0 4 0 93 0 1 1 3 91 0 3 3 60 1 76 
ELSE[ ]\011/* Else */
NPUSHB[ ]\011/* 26 values pushed */
0 2 1 4 1 2 4 112 0 4 0 0 4 0 93 0 1 1 3 91 0 3 3 68 1 76 
EIF[ ]\011/* EndIf */
EIF[ ]\011/* EndIf */
EIF[ ]\011/* EndIf */
PUSHB[ ]\011/* 8 values pushed */
26 36 18 39 16 5 8 25 
CALL[ ]\011/* CallFunction */";
};
width = 1229;
}
);
note = twosuperior;
unicode = 00B2;
},
{
glyphname = threesuperior;
layers = (
{
layerId = "E4B1A873-EC94-4624-AAD7-98A019FF1B0F";
paths = (
{
closed = 1;
nodes = (
"526 1009 LINE",
"610 1009 LINE SMOOTH",
"682 1009 OFFCURVE",
"769 957 OFFCURVE",
"769 894 QCURVE SMOOTH",
"770 843 OFFCURVE",
"694 783 OFFCURVE",
"626 783 QCURVE SMOOTH",
"561 783 OFFCURVE",
"482 842 OFFCURVE",
"481 888 QCURVE",
"323 888 LINE",
"323 827 OFFCURVE",
"374 739 OFFCURVE",
"457 682 OFFCURVE",
"564 655 OFFCURVE",
"621 655 QCURVE SMOOTH",
"685 655 OFFCURVE",
"797 686 OFFCURVE",
"880 744 OFFCURVE",
"927 830 OFFCURVE",
"927 886 QCURVE SMOOTH",
"927 1028 OFFCURVE",
"777 1070 QCURVE",
"842 1095 OFFCURVE",
"913 1185 OFFCURVE",
"913 1241 QCURVE SMOOTH",
"913 1296 OFFCURVE",
"870 1380 OFFCURVE",
"792 1437 OFFCURVE",
"684 1466 OFFCURVE",
"620 1466 QCURVE SMOOTH",
"560 1466 OFFCURVE",
"456 1435 OFFCURVE",
"379 1378 OFFCURVE",
"334 1296 OFFCURVE",
"334 1245 QCURVE",
"491 1245 LINE",
"492 1289 OFFCURVE",
"566 1337 OFFCURVE",
"623 1337 QCURVE SMOOTH",
"690 1337 OFFCURVE",
"756 1279 OFFCURVE",
"756 1234 QCURVE SMOOTH",
"756 1183 OFFCURVE",
"680 1125 OFFCURVE",
"610 1125 QCURVE SMOOTH",
"526 1125 LINE",
"526 1125 LINE"
);
}
);
userData = {
assembly = "PUSHB[ ]\011/* 6 values pushed */
24 1 7 0 1 74 
MPPEM[ ]\011/* MeasurePixelPerEm */
PUSHB[ ]\011/* 1 value pushed */
44 
LT[ ]\011/* LessThan */
IF[ ]\011/* If */
NPUSHB[ ]\011/* 44 values pushed */
0 2 1 0 1 2 0 112 0 5 7 6 7 5 6 112 0 6 0 4 6 4 95 0 1 1 3 91 0 3 3 60 75 0 7 7 0 91 0 0 0 71 7 76 
ELSE[ ]\011/* Else */
NPUSHB[ ]\011/* 42 values pushed */
0 2 1 0 1 2 0 112 0 5 7 6 7 5 6 112 0 0 0 7 5 0 7 99 0 6 0 4 6 4 95 0 1 1 3 91 0 3 3 60 1 76 
EIF[ ]\011/* EndIf */
NPUSHB[ ]\011/* 11 values pushed */
36 34 20 45 36 18 36 32 8 8 28 
CALL[ ]\011/* CallFunction */";
};
width = 1229;
}
);
note = threesuperior;
unicode = 00B3;
},
{
glyphname = acute;
layers = (
{
layerId = "E4B1A873-EC94-4624-AAD7-98A019FF1B0F";
paths = (
{
closed = 1;
nodes = (
"410 1215 LINE",
"550 1215 LINE",
"818 1481 LINE",
"594 1481 LINE",
"594 1481 LINE"
);
}
);
userData = {
assembly = "MPPEM[ ]\011/* MeasurePixelPerEm */
PUSHB[ ]\011/* 1 value pushed */
10 
LT[ ]\011/* LessThan */
IF[ ]\011/* If */
NPUSHB[ ]\011/* 11 values pushed */
0 1 0 1 115 0 0 0 60 0 76 
ELSE[ ]\011/* Else */
MPPEM[ ]\011/* MeasurePixelPerEm */
PUSHB[ ]\011/* 1 value pushed */
12 
LT[ ]\011/* LessThan */
IF[ ]\011/* If */
NPUSHB[ ]\011/* 11 values pushed */
0 1 0 1 115 0 0 0 62 0 76 
ELSE[ ]\011/* Else */
MPPEM[ ]\011/* MeasurePixelPerEm */
PUSHB[ ]\011/* 1 value pushed */
14 
LT[ ]\011/* LessThan */
IF[ ]\011/* If */
NPUSHB[ ]\011/* 11 values pushed */
0 1 0 1 115 0 0 0 60 0 76 
ELSE[ ]\011/* Else */
MPPEM[ ]\011/* MeasurePixelPerEm */
PUSHB[ ]\011/* 1 value pushed */
16 
LT[ ]\011/* LessThan */
IF[ ]\011/* If */
NPUSHB[ ]\011/* 11 values pushed */
0 1 0 1 115 0 0 0 62 0 76 
ELSE[ ]\011/* Else */
MPPEM[ ]\011/* MeasurePixelPerEm */
PUSHB[ ]\011/* 1 value pushed */
18 
LT[ ]\011/* LessThan */
IF[ ]\011/* If */
NPUSHB[ ]\011/* 11 values pushed */
0 1 0 1 115 0 0 0 60 0 76 
ELSE[ ]\011/* Else */
MPPEM[ ]\011/* MeasurePixelPerEm */
PUSHB[ ]\011/* 1 value pushed */
22 
LT[ ]\011/* LessThan */
IF[ ]\011/* If */
NPUSHB[ ]\011/* 11 values pushed */
0 1 0 1 115 0 0 0 62 0 76 
ELSE[ ]\011/* Else */
MPPEM[ ]\011/* MeasurePixelPerEm */
PUSHB[ ]\011/* 1 value pushed */
23 
LT[ ]\011/* LessThan */
IF[ ]\011/* If */
NPUSHB[ ]\011/* 11 values pushed */
0 1 0 1 115 0 0 0 60 0 76 
ELSE[ ]\011/* Else */
MPPEM[ ]\011/* MeasurePixelPerEm */
PUSHB[ ]\011/* 1 value pushed */
25 
LT[ ]\011/* LessThan */
IF[ ]\011/* If */
NPUSHB[ ]\011/* 11 values pushed */
0 1 0 1 115 0 0 0 62 0 76 
ELSE[ ]\011/* Else */
MPPEM[ ]\011/* MeasurePixelPerEm */
PUSHB[ ]\011/* 1 value pushed */
27 
LT[ ]\011/* LessThan */
IF[ ]\011/* If */
NPUSHB[ ]\011/* 11 values pushed */
0 1 0 1 115 0 0 0 60 0 76 
ELSE[ ]\011/* Else */
MPPEM[ ]\011/* MeasurePixelPerEm */
PUSHB[ ]\011/* 1 value pushed */
42 
LT[ ]\011/* LessThan */
IF[ ]\011/* If */
NPUSHB[ ]\011/* 11 values pushed */
0 1 0 1 115 0 0 0 62 0 76 
ELSE[ ]\011/* Else */
NPUSHB[ ]\011/* 9 values pushed */
0 0 1 0 114 0 1 1 105 
EIF[ ]\011/* EndIf */
EIF[ ]\011/* EndIf */
EIF[ ]\011/* EndIf */
EIF[ ]\011/* EndIf */
EIF[ ]\011/* EndIf */
EIF[ ]\011/* EndIf */
EIF[ ]\011/* EndIf */
EIF[ ]\011/* EndIf */
EIF[ ]\011/* EndIf */
EIF[ ]\011/* EndIf */
PUSHB[ ]\011/* 5 values pushed */
17 16 2 8 22 
CALL[ ]\011/* CallFunction */";
};
width = 1229;
}
);
note = acute;
unicode = 00B4;
},
{
glyphname = mu;
layers = (
{
layerId = "E4B1A873-EC94-4624-AAD7-98A019FF1B0F";
paths = (
{
closed = 1;
nodes = (
"188 1082 LINE",
"188 -416 LINE",
"373 -416 LINE",
"373 53 LINE",
"455 -20 OFFCURVE",
"601 -20 QCURVE SMOOTH",
"691 -20 OFFCURVE",
"820 51 OFFCURVE",
"864 116 QCURVE",
"873 0 LINE",
"1040 0 LINE",
"1040 1082 LINE",
"854 1082 LINE",
"854 283 LINE",
"825 212 OFFCURVE",
"700 130 OFFCURVE",
"593 130 QCURVE SMOOTH",
"545 130 OFFCURVE",
"464 158 OFFCURVE",
"405 232 OFFCURVE",
"373 360 OFFCURVE",
"373 460 QCURVE SMOOTH",
"373 1082 LINE",
"373 1082 LINE"
);
}
);
userData = {
assembly = "NPUSHB[ ]\011/* 11 values pushed */
9 1 0 1 19 14 2 2 0 2 74 
MPPEM[ ]\011/* MeasurePixelPerEm */
PUSHB[ ]\011/* 1 value pushed */
25 
LT[ ]\011/* LessThan */
IF[ ]\011/* If */
NPUSHB[ ]\011/* 24 values pushed */
6 5 2 1 1 63 75 0 0 0 2 91 3 1 2 2 61 75 0 4 4 65 4 76 
ELSE[ ]\011/* Else */
NPUSHB[ ]\011/* 28 values pushed */
6 5 2 1 1 63 75 0 2 2 61 75 0 0 0 3 91 0 3 3 69 75 0 4 4 65 4 76 
EIF[ ]\011/* EndIf */
NPUSHB[ ]\011/* 14 values pushed */
0 0 0 22 0 22 18 35 17 19 37 7 8 25 
CALL[ ]\011/* CallFunction */";
};
width = 1229;
}
);
note = mu;
unicode = 00B5;
},
{
glyphname = paragraph;
layers = (
{
layerId = "E4B1A873-EC94-4624-AAD7-98A019FF1B0F";
paths = (
{
closed = 1;
nodes = (
"976 0 LINE",
"976 1456 LINE",
"703 1456 LINE SMOOTH",
"585 1456 OFFCURVE",
"402 1385 OFFCURVE",
"276 1260 OFFCURVE",
"211 1089 OFFCURVE",
"211 988 QCURVE SMOOTH",
"211 886 OFFCURVE",
"276 714 OFFCURVE",
"402 590 OFFCURVE",
"585 520 OFFCURVE",
"703 520 QCURVE SMOOTH",
"790 520 LINE",
"790 0 LINE",
"790 0 LINE"
);
}
);
userData = {
assembly = "NPUSHB[ ]\011/* 28 values pushed */
0 0 0 1 91 0 1 1 60 75 3 1 2 2 61 2 76 0 0 0 14 0 14 40 33 4 8 22 
CALL[ ]\011/* CallFunction */";
};
width = 1229;
}
);
note = paragraph;
unicode = 00B6;
},
{
glyphname = periodcentered;
layers = (
{
layerId = "E4B1A873-EC94-4624-AAD7-98A019FF1B0F";
paths = (
{
closed = 1;
nodes = (
"504 682 OFFCURVE",
"562 619 OFFCURVE",
"619 619 QCURVE SMOOTH",
"675 619 OFFCURVE",
"734 682 OFFCURVE",
"734 729 QCURVE SMOOTH",
"734 777 OFFCURVE",
"675 841 OFFCURVE",
"619 841 QCURVE SMOOTH",
"562 841 OFFCURVE",
"504 777 OFFCURVE",
"504 729 QCURVE",
"504 729 LINE"
);
}
);
userData = {
assembly = "NPUSHB[ ]\011/* 21 values pushed */
0 0 1 1 0 87 0 0 0 1 91 0 1 0 1 79 36 34 2 8 22 
CALL[ ]\011/* CallFunction */";
};
width = 1229;
}
);
note = periodcentered;
unicode = 00B7;
},
{
glyphname = cedilla;
layers = (
{
layerId = "E4B1A873-EC94-4624-AAD7-98A019FF1B0F";
paths = (
{
closed = 1;
nodes = (
"497 0 LINE",
"466 -134 LINE",
"506 -137 OFFCURVE",
"566 -149 OFFCURVE",
"607 -170 OFFCURVE",
"627 -204 OFFCURVE",
"627 -229 QCURVE SMOOTH",
"627 -256 OFFCURVE",
"600 -293 OFFCURVE",
"555 -317 OFFCURVE",
"495 -328 OFFCURVE",
"461 -328 QCURVE",
"468 -435 LINE",
"613 -434 OFFCURVE",
"771 -322 OFFCURVE",
"771 -225 QCURVE SMOOTH",
"771 -182 OFFCURVE",
"745 -121 OFFCURVE",
"702 -81 OFFCURVE",
"647 -57 OFFCURVE",
"618 -52 QCURVE",
"630 0 LINE",
"630 0 LINE"
);
}
);
userData = {
assembly = "NPUSHB[ ]\011/* 35 values pushed */
20 1 2 1 2 1 74 3 1 2 1 2 114 0 1 1 0 92 0 0 0 73 0 76 0 0 0 21 0 21 17 24 4 8 22 
CALL[ ]\011/* CallFunction */";
};
width = 1229;
}
);
note = cedilla;
unicode = 00B8;
},
{
glyphname = onesuperior;
layers = (
{
layerId = "E4B1A873-EC94-4624-AAD7-98A019FF1B0F";
paths = (
{
closed = 1;
nodes = (
"758 1454 LINE",
"740 1454 LINE",
"386 1337 LINE",
"386 1209 LINE",
"601 1266 LINE",
"601 665 LINE",
"758 665 LINE",
"758 665 LINE"
);
}
);
userData = {
assembly = "NPUSHB[ ]\011/* 15 values pushed */
5 4 3 2 4 0 72 0 0 0 105 16 1 8 21 
CALL[ ]\011/* CallFunction */";
};
width = 1229;
}
);
note = onesuperior;
unicode = 00B9;
},
{
glyphname = ordmasculine;
layers = (
{
layerId = "E4B1A873-EC94-4624-AAD7-98A019FF1B0F";
paths = (
{
closed = 1;
nodes = (
"272 1024 LINE SMOOTH",
"272 952 OFFCURVE",
"320 829 OFFCURVE",
"409 740 OFFCURVE",
"536 690 OFFCURVE",
"616 690 QCURVE SMOOTH",
"695 690 OFFCURVE",
"821 740 OFFCURVE",
"909 829 OFFCURVE",
"956 952 OFFCURVE",
"956 1024 QCURVE SMOOTH",
"956 1141 LINE SMOOTH",
"956 1214 OFFCURVE",
"909 1337 OFFCURVE",
"820 1426 OFFCURVE",
"693 1476 OFFCURVE",
"614 1476 QCURVE SMOOTH",
"535 1476 OFFCURVE",
"409 1426 OFFCURVE",
"320 1337 OFFCURVE",
"272 1214 OFFCURVE",
"272 1141 QCURVE",
"272 1141 LINE"
);
},
{
closed = 1;
nodes = (
"435 1141 LINE SMOOTH",
"435 1182 OFFCURVE",
"457 1253 OFFCURVE",
"502 1306 OFFCURVE",
"569 1336 OFFCURVE",
"614 1336 QCURVE SMOOTH",
"659 1336 OFFCURVE",
"726 1306 OFFCURVE",
"771 1253 OFFCURVE",
"794 1182 OFFCURVE",
"794 1141 QCURVE SMOOTH",
"794 1024 LINE SMOOTH",
"794 982 OFFCURVE",
"771 911 OFFCURVE",
"727 859 OFFCURVE",
"660 829 OFFCURVE",
"616 829 QCURVE SMOOTH",
"570 829 OFFCURVE",
"502 859 OFFCURVE",
"457 911 OFFCURVE",
"435 982 OFFCURVE",
"435 1024 QCURVE",
"435 1024 LINE"
);
}
);
userData = {
assembly = "NPUSHB[ ]\011/* 25 values pushed */
0 2 0 1 2 1 95 0 3 3 0 91 0 0 0 68 3 76 41 41 41 36 4 8 24 
CALL[ ]\011/* CallFunction */";
};
width = 1229;
}
);
note = ordmasculine;
unicode = 00BA;
},
{
glyphname = questiondown;
layers = (
{
layerId = "E4B1A873-EC94-4624-AAD7-98A019FF1B0F";
paths = (
{
closed = 1;
nodes = (
"539 673 LINE",
"539 634 OFFCURVE",
"536 574 OFFCURVE",
"521 521 OFFCURVE",
"489 471 OFFCURVE",
"460 442 QCURVE SMOOTH",
"415 399 OFFCURVE",
"324 300 OFFCURVE",
"251 187 OFFCURVE",
"204 59 OFFCURVE",
"204 -13 QCURVE SMOOTH",
"204 -103 OFFCURVE",
"259 -243 OFFCURVE",
"364 -341 OFFCURVE",
"517 -392 OFFCURVE",
"614 -392 QCURVE SMOOTH",
"701 -392 OFFCURVE",
"850 -343 OFFCURVE",
"960 -250 OFFCURVE",
"1023 -116 OFFCURVE",
"1024 -32 QCURVE",
"839 -32 LINE",
"839 -84 OFFCURVE",
"801 -159 OFFCURVE",
"738 -208 OFFCURVE",
"657 -231 OFFCURVE",
"614 -231 QCURVE SMOOTH",
"505 -231 OFFCURVE",
"389 -116 OFFCURVE",
"389 -7 QCURVE SMOOTH",
"389 44 OFFCURVE",
"424 134 OFFCURVE",
"479 216 OFFCURVE",
"545 291 OFFCURVE",
"576 326 QCURVE",
"625 371 OFFCURVE",
"684 438 OFFCURVE",
"714 510 OFFCURVE",
"723 602 OFFCURVE",
"724 673 QCURVE",
"724 673 LINE"
);
},
{
closed = 1;
nodes = (
"509 942 OFFCURVE",
"567 879 OFFCURVE",
"624 879 QCURVE SMOOTH",
"681 879 OFFCURVE",
"739 942 OFFCURVE",
"739 988 QCURVE SMOOTH",
"739 1036 OFFCURVE",
"681 1101 OFFCURVE",
"624 1101 QCURVE SMOOTH",
"567 1101 OFFCURVE",
"509 1036 OFFCURVE",
"509 988 QCURVE",
"509 988 LINE"
);
}
);
userData = {
assembly = "MPPEM[ ]\011/* MeasurePixelPerEm */
PUSHB[ ]\011/* 1 value pushed */
42 
LT[ ]\011/* LessThan */
IF[ ]\011/* If */
NPUSHB[ ]\011/* 37 values pushed */
6 1 3 5 1 5 3 1 112 0 1 0 5 1 0 110 0 5 5 4 91 0 4 4 71 75 0 0 0 2 92 0 2 2 65 2 76 
ELSE[ ]\011/* Else */
NPUSHB[ ]\011/* 34 values pushed */
6 1 3 5 1 5 3 1 112 0 1 0 5 1 0 110 0 0 0 2 0 2 96 0 5 5 4 91 0 4 4 71 5 76 
EIF[ ]\011/* EndIf */
NPUSHB[ ]\011/* 16 values pushed */
0 0 50 48 44 42 0 39 0 39 36 20 44 7 8 23 
CALL[ ]\011/* CallFunction */";
};
width = 1229;
}
);
note = questiondown;
unicode = 00BF;
},
{
glyphname = AE;
layers = (
{
layerId = "E4B1A873-EC94-4624-AAD7-98A019FF1B0F";
paths = (
{
closed = 1;
nodes = (
"1195 151 LINE",
"838 151 LINE",
"837 682 LINE",
"1139 682 LINE",
"1139 833 LINE",
"837 833 LINE",
"835 1304 LINE",
"1172 1304 LINE",
"1172 1456 LINE",
"592 1456 LINE",
"32 0 LINE",
"230 0 LINE",
"353 353 LINE",
"663 353 LINE",
"664 0 LINE",
"1195 0 LINE",
"1195 0 LINE"
);
},
{
closed = 1;
nodes = (
"661 1233 LINE",
"663 527 LINE",
"414 527 LINE",
"414 527 LINE"
);
}
);
userData = {
assembly = "NPUSHB[ ]\011/* 56 values pushed */
18 1 5 4 1 74 0 5 0 6 8 5 6 97 0 8 0 1 7 8 1 97 0 4 4 3 89 0 3 3 60 75 0 7 7 0 89 2 1 0 0 61 0 76 17 17 17 17 17 17 17 17 16 9 8 29 
CALL[ ]\011/* CallFunction */";
};
width = 1229;
}
);
note = AE;
unicode = 00C6;
},
{
glyphname = multiply;
layers = (
{
layerId = "E4B1A873-EC94-4624-AAD7-98A019FF1B0F";
paths = (
{
closed = 1;
nodes = (
"300 206 LINE",
"631 543 LINE",
"963 206 LINE",
"1082 329 LINE",
"751 666 LINE",
"1079 1000 LINE",
"960 1123 LINE",
"631 788 LINE",
"303 1123 LINE",
"184 1000 LINE",
"511 666 LINE",
"181 329 LINE",
"181 329 LINE"
);
}
);
userData = {
assembly = "PUSHB[ ]\011/* 4 values pushed */
9 3 1 48 
CALL[ ]\011/* CallFunction */";
};
width = 1229;
}
);
note = multiply;
unicode = 00D7;
},
{
glyphname = Oslash;
layers = (
{
layerId = "E4B1A873-EC94-4624-AAD7-98A019FF1B0F";
paths = (
{
closed = 1;
nodes = (
"1113 810 LINE SMOOTH",
"1112 866 OFFCURVE",
"1099 981 OFFCURVE",
"1072 1092 OFFCURVE",
"1031 1197 OFFCURVE",
"1003 1244 QCURVE",
"1164 1516 LINE",
"1022 1516 LINE",
"923 1348 LINE",
"864 1407 OFFCURVE",
"707 1476 OFFCURVE",
"605 1476 QCURVE SMOOTH",
"515 1476 OFFCURVE",
"370 1421 OFFCURVE",
"258 1324 OFFCURVE",
"177 1195 OFFCURVE",
"124 1047 OFFCURVE",
"99 888 OFFCURVE",
"98 810 QCURVE SMOOTH",
"98 644 LINE SMOOTH",
"98 583 OFFCURVE",
"114 458 OFFCURVE",
"147 338 OFFCURVE",
"197 226 OFFCURVE",
"231 177 QCURVE",
"71 -93 LINE",
"213 -93 LINE",
"317 83 LINE",
"374 35 OFFCURVE",
"516 -20 OFFCURVE",
"607 -20 QCURVE SMOOTH",
"697 -20 OFFCURVE",
"842 35 OFFCURVE",
"954 131 OFFCURVE",
"1035 259 OFFCURVE",
"1087 407 OFFCURVE",
"1112 566 OFFCURVE",
"1113 644 QCURVE",
"1113 644 LINE"
);
},
{
closed = 1;
nodes = (
"280 812 LINE SMOOTH",
"281 863 OFFCURVE",
"294 976 OFFCURVE",
"323 1087 OFFCURVE",
"371 1188 OFFCURVE",
"443 1265 OFFCURVE",
"541 1311 OFFCURVE",
"605 1311 QCURVE SMOOTH",
"683 1311 OFFCURVE",
"794 1246 OFFCURVE",
"831 1193 QCURVE",
"333 350 LINE",
"304 420 OFFCURVE",
"281 575 OFFCURVE",
"280 644 QCURVE",
"280 644 LINE"
);
},
{
closed = 1;
nodes = (
"930 644 LINE SMOOTH",
"929 592 OFFCURVE",
"918 478 OFFCURVE",
"889 367 OFFCURVE",
"842 266 OFFCURVE",
"771 189 OFFCURVE",
"672 143 OFFCURVE",
"607 143 QCURVE SMOOTH",
"541 143 OFFCURVE",
"441 190 OFFCURVE",
"404 231 QCURVE",
"895 1061 LINE",
"914 999 OFFCURVE",
"929 870 OFFCURVE",
"930 812 QCURVE",
"930 812 LINE"
);
}
);
userData = {
assembly = "NPUSHB[ ]\011/* 59 values pushed */
29 1 4 2 57 56 42 41 32 13 6 5 4 10 1 0 5 3 74 0 1 0 1 115 0 3 3 62 75 0 4 4 2 91 0 2 2 68 75 0 5 5 0 91 0 0 0 69 0 76 45 45 19 45 19 38 6 8 26 
CALL[ ]\011/* CallFunction */";
};
width = 1229;
}
);
note = Oslash;
unicode = 00D8;
},
{
glyphname = Thorn;
layers = (
{
layerId = "E4B1A873-EC94-4624-AAD7-98A019FF1B0F";
paths = (
{
closed = 1;
nodes = (
"168 1456 LINE",
"168 0 LINE",
"353 0 LINE",
"353 313 LINE",
"630 313 LINE SMOOTH",
"747 313 OFFCURVE",
"928 376 OFFCURVE",
"1053 489 OFFCURVE",
"1118 645 OFFCURVE",
"1118 738 QCURVE SMOOTH",
"1118 831 OFFCURVE",
"1053 987 OFFCURVE",
"928 1100 OFFCURVE",
"747 1163 OFFCURVE",
"630 1163 QCURVE SMOOTH",
"353 1163 LINE",
"353 1456 LINE",
"353 1456 LINE"
);
},
{
closed = 1;
nodes = (
"630 1011 LINE SMOOTH",
"708 1011 OFFCURVE",
"823 966 OFFCURVE",
"897 889 OFFCURVE",
"933 790 OFFCURVE",
"933 736 QCURVE SMOOTH",
"933 683 OFFCURVE",
"897 585 OFFCURVE",
"822 510 OFFCURVE",
"708 465 OFFCURVE",
"630 465 QCURVE SMOOTH",
"353 465 LINE",
"353 1011 LINE",
"353 1011 LINE"
);
}
);
userData = {
assembly = "NPUSHB[ ]\011/* 49 values pushed */
0 0 7 1 5 4 0 5 99 0 4 0 1 2 4 1 99 6 1 3 3 60 75 0 2 2 61 2 76 17 17 0 0 17 29 17 28 20 18 0 16 0 16 17 40 33 8 8 23 
CALL[ ]\011/* CallFunction */";
};
width = 1229;
}
);
note = Thorn;
unicode = 00DE;
},
{
glyphname = germandbls;
layers = (
{
layerId = "E4B1A873-EC94-4624-AAD7-98A019FF1B0F";
paths = (
{
closed = 1;
nodes = (
"353 1087 LINE SMOOTH",
"354 1242 OFFCURVE",
"473 1406 OFFCURVE",
"572 1406 QCURVE SMOOTH",
"604 1406 OFFCURVE",
"667 1380 OFFCURVE",
"716 1329 OFFCURVE",
"746 1254 OFFCURVE",
"746 1204 QCURVE SMOOTH",
"746 1166 OFFCURVE",
"726 1103 OFFCURVE",
"695 1044 OFFCURVE",
"659 989 OFFCURVE",
"628 930 OFFCURVE",
"608 864 OFFCURVE",
"608 825 QCURVE SMOOTH",
"608 757 OFFCURVE",
"654 654 OFFCURVE",
"722 571 OFFCURVE",
"802 500 OFFCURVE",
"870 431 OFFCURVE",
"915 354 OFFCURVE",
"915 307 QCURVE SMOOTH",
"915 269 OFFCURVE",
"894 205 OFFCURVE",
"850 157 OFFCURVE",
"782 130 OFFCURVE",
"735 130 QCURVE SMOOTH",
"701 130 OFFCURVE",
"632 145 OFFCURVE",
"569 168 OFFCURVE",
"516 195 OFFCURVE",
"498 206 QCURVE",
"456 51 LINE",
"476 35 OFFCURVE",
"544 9 OFFCURVE",
"625 -10 OFFCURVE",
"713 -21 OFFCURVE",
"754 -21 QCURVE SMOOTH",
"830 -21 OFFCURVE",
"957 21 OFFCURVE",
"1049 105 OFFCURVE",
"1100 231 OFFCURVE",
"1100 316 QCURVE SMOOTH",
"1100 381 OFFCURVE",
"1055 481 OFFCURVE",
"987 563 OFFCURVE",
"907 633 OFFCURVE",
"839 703 OFFCURVE",
"794 777 OFFCURVE",
"794 823 QCURVE SMOOTH",
"794 873 OFFCURVE",
"833 950 OFFCURVE",
"881 1034 OFFCURVE",
"921 1141 OFFCURVE",
"921 1220 QCURVE SMOOTH",
"921 1306 OFFCURVE",
"865 1433 OFFCURVE",
"767 1517 OFFCURVE",
"637 1558 OFFCURVE",
"562 1558 QCURVE SMOOTH",
"477 1558 OFFCURVE",
"333 1495 OFFCURVE",
"228 1375 OFFCURVE",
"169 1199 OFFCURVE",
"169 1087 QCURVE SMOOTH",
"169 0 LINE",
"353 0 LINE",
"353 0 LINE"
);
}
);
userData = {
assembly = "NPUSHB[ ]\011/* 10 values pushed */
35 1 3 4 34 1 0 3 2 74 
MPPEM[ ]\011/* MeasurePixelPerEm */
PUSHB[ ]\011/* 1 value pushed */
23 
LT[ ]\011/* LessThan */
IF[ ]\011/* If */
NPUSHB[ ]\011/* 20 values pushed */
0 1 0 4 3 1 4 99 0 3 3 0 91 2 1 0 0 61 0 76 
ELSE[ ]\011/* Else */
NPUSHB[ ]\011/* 24 values pushed */
0 1 0 4 3 1 4 99 0 0 0 61 75 0 3 3 2 91 0 2 2 69 2 76 
EIF[ ]\011/* EndIf */
NPUSHB[ ]\011/* 11 values pushed */
65 63 41 39 30 28 37 16 5 8 22 
CALL[ ]\011/* CallFunction */";
};
width = 1229;
}
);
note = germandbls;
unicode = 00DF;
},
{
glyphname = ae;
layers = (
{
layerId = "E4B1A873-EC94-4624-AAD7-98A019FF1B0F";
paths = (
{
closed = 1;
nodes = (
"955 -20 OFFCURVE",
"1048 -1 OFFCURVE",
"1117 25 OFFCURVE",
"1163 54 OFFCURVE",
"1176 64 QCURVE",
"1130 200 LINE",
"1114 189 OFFCURVE",
"1076 165 OFFCURVE",
"1029 144 OFFCURVE",
"970 130 OFFCURVE",
"932 130 QCURVE SMOOTH",
"866 130 OFFCURVE",
"774 169 OFFCURVE",
"715 241 OFFCURVE",
"688 345 OFFCURVE",
"688 411 QCURVE SMOOTH",
"688 497 LINE",
"1193 497 LINE",
"1193 731 LINE SMOOTH",
"1193 815 OFFCURVE",
"1150 952 OFFCURVE",
"1066 1049 OFFCURVE",
"943 1102 OFFCURVE",
"862 1102 QCURVE SMOOTH",
"788 1102 OFFCURVE",
"669 1046 OFFCURVE",
"626 995 QCURVE",
"587 1048 OFFCURVE",
"462 1102 OFFCURVE",
"379 1102 QCURVE SMOOTH",
"307 1102 OFFCURVE",
"189 1059 OFFCURVE",
"106 980 OFFCURVE",
"61 869 OFFCURVE",
"61 800 QCURVE",
"240 792 LINE",
"240 867 OFFCURVE",
"318 950 OFFCURVE",
"381 950 QCURVE SMOOTH",
"449 950 OFFCURVE",
"511 859 OFFCURVE",
"511 783 QCURVE SMOOTH",
"511 635 LINE",
"448 635 LINE SMOOTH",
"251 635 OFFCURVE",
"43 451 OFFCURVE",
"43 285 QCURVE SMOOTH",
"43 216 OFFCURVE",
"82 103 OFFCURVE",
"156 24 OFFCURVE",
"264 -20 OFFCURVE",
"335 -20 QCURVE SMOOTH",
"383 -20 OFFCURVE",
"463 4 OFFCURVE",
"529 44 OFFCURVE",
"580 97 OFFCURVE",
"599 126 QCURVE",
"645 55 OFFCURVE",
"793 -20 OFFCURVE",
"896 -20 QCURVE",
"896 -20 LINE"
);
},
{
closed = 1;
nodes = (
"899 950 OFFCURVE",
"957 919 OFFCURVE",
"997 868 OFFCURVE",
"1017 803 OFFCURVE",
"1017 768 QCURVE SMOOTH",
"1017 640 LINE",
"688 640 LINE",
"688 709 LINE SMOOTH",
"689 757 OFFCURVE",
"710 845 OFFCURVE",
"752 911 OFFCURVE",
"817 950 OFFCURVE",
"862 950 QCURVE",
"862 950 LINE"
);
},
{
closed = 1;
nodes = (
"335 130 OFFCURVE",
"280 154 OFFCURVE",
"243 195 OFFCURVE",
"224 250 OFFCURVE",
"224 281 QCURVE SMOOTH",
"224 324 OFFCURVE",
"255 401 OFFCURVE",
"313 460 OFFCURVE",
"397 495 OFFCURVE",
"450 495 QCURVE SMOOTH",
"511 495 LINE",
"512 202 LINE",
"484 173 OFFCURVE",
"408 130 OFFCURVE",
"371 130 QCURVE",
"371 130 LINE"
);
}
);
userData = {
assembly = "NPUSHB[ ]\011/* 103 values pushed */
33 1 3 5 76 54 2 8 7 55 3 2 0 8 3 74 0 4 3 2 3 4 2 112 10 1 2 12 1 7 8 2 7 99 14 9 2 3 3 5 91 6 1 5 5 71 75 15 11 2 8 8 0 91 1 13 2 0 0 69 0 76 74 73 61 60 1 0 79 77 73 87 74 87 67 66 60 72 61 72 50 48 43 42 37 35 31 29 25 24 22 20 17 15 9 7 0 59 1 59 16 8 20 
CALL[ ]\011/* CallFunction */";
};
width = 1229;
}
);
note = ae;
unicode = 00E6;
},
{
glyphname = eth;
layers = (
{
layerId = "E4B1A873-EC94-4624-AAD7-98A019FF1B0F";
paths = (
{
closed = 1;
nodes = (
"1056 1407 LINE",
"983 1507 LINE",
"753 1375 LINE",
"690 1426 OFFCURVE",
"547 1499 OFFCURVE",
"467 1521 QCURVE",
"410 1362 LINE",
"456 1346 OFFCURVE",
"543 1305 OFFCURVE",
"584 1278 QCURVE",
"345 1141 LINE",
"418 1042 LINE",
"684 1194 LINE",
"746 1131 OFFCURVE",
"836 963 OFFCURVE",
"859 853 QCURVE",
"802 909 OFFCURVE",
"649 977 OFFCURVE",
"561 977 QCURVE SMOOTH",
"456 977 OFFCURVE",
"277 904 OFFCURVE",
"146 770 OFFCURVE",
"73 582 OFFCURVE",
"73 467 QCURVE SMOOTH",
"73 365 OFFCURVE",
"145 187 OFFCURVE",
"276 55 OFFCURVE",
"457 -20 OFFCURVE",
"565 -20 QCURVE SMOOTH",
"674 -20 OFFCURVE",
"857 61 OFFCURVE",
"991 214 OFFCURVE",
"1066 433 OFFCURVE",
"1066 571 QCURVE SMOOTH",
"1066 633 LINE SMOOTH",
"1066 839 OFFCURVE",
"949 1168 OFFCURVE",
"845 1286 QCURVE",
"845 1286 LINE"
);
},
{
closed = 1;
nodes = (
"881 571 LINE SMOOTH",
"881 472 OFFCURVE",
"837 309 OFFCURVE",
"756 194 OFFCURVE",
"641 130 OFFCURVE",
"569 130 QCURVE SMOOTH",
"495 130 OFFCURVE",
"380 189 OFFCURVE",
"301 284 OFFCURVE",
"259 405 OFFCURVE",
"259 467 QCURVE SMOOTH",
"259 540 OFFCURVE",
"301 670 OFFCURVE",
"380 768 OFFCURVE",
"492 825 OFFCURVE",
"561 825 QCURVE SMOOTH",
"623 825 OFFCURVE",
"726 802 OFFCURVE",
"806 763 OFFCURVE",
"863 712 OFFCURVE",
"880 685 QCURVE",
"880 672 OFFCURVE",
"881 648 OFFCURVE",
"881 635 QCURVE",
"881 635 LINE"
);
}
);
userData = {
assembly = "NPUSHB[ ]\011/* 46 values pushed */
22 1 2 1 1 74 37 36 35 32 31 28 27 26 25 9 1 72 0 1 0 2 3 1 2 99 0 3 3 0 91 0 0 0 69 0 76 57 55 47 45 40 40 4 8 22 
CALL[ ]\011/* CallFunction */";
};
width = 1229;
}
);
note = eth;
unicode = 00F0;
},
{
glyphname = divide;
layers = (
{
layerId = "E4B1A873-EC94-4624-AAD7-98A019FF1B0F";
paths = (
{
closed = 1;
nodes = (
"1113 784 LINE",
"115 784 LINE",
"115 600 LINE",
"1113 600 LINE",
"1113 600 LINE"
);
},
{
closed = 1;
nodes = (
"507 1052 OFFCURVE",
"562 992 OFFCURVE",
"616 992 QCURVE SMOOTH",
"670 992 OFFCURVE",
"726 1052 OFFCURVE",
"726 1097 QCURVE SMOOTH",
"726 1142 OFFCURVE",
"670 1204 OFFCURVE",
"616 1204 QCURVE SMOOTH",
"562 1204 OFFCURVE",
"507 1142 OFFCURVE",
"507 1097 QCURVE",
"507 1097 LINE"
);
},
{
closed = 1;
nodes = (
"505 238 OFFCURVE",
"560 177 OFFCURVE",
"614 177 QCURVE SMOOTH",
"668 177 OFFCURVE",
"724 238 OFFCURVE",
"724 282 QCURVE SMOOTH",
"724 327 OFFCURVE",
"668 389 OFFCURVE",
"614 389 QCURVE SMOOTH",
"560 389 OFFCURVE",
"505 327 OFFCURVE",
"505 282 QCURVE",
"505 282 LINE"
);
}
);
userData = {
assembly = "NPUSHB[ ]\011/* 41 values pushed */
0 2 0 3 1 2 3 99 0 1 0 0 4 1 0 97 0 4 5 5 4 87 0 4 4 5 91 0 5 4 5 79 36 36 36 35 17 16 6 8 26 
CALL[ ]\011/* CallFunction */";
};
width = 1229;
}
);
note = divide;
unicode = 00F7;
},
{
glyphname = oslash;
layers = (
{
layerId = "E4B1A873-EC94-4624-AAD7-98A019FF1B0F";
paths = (
{
closed = 1;
nodes = (
"122 529 LINE SMOOTH",
"122 381 OFFCURVE",
"228 143 OFFCURVE",
"327 70 QCURVE",
"226 -135 LINE",
"349 -135 LINE",
"423 16 LINE",
"466 -1 OFFCURVE",
"561 -20 OFFCURVE",
"615 -20 QCURVE SMOOTH",
"729 -20 OFFCURVE",
"911 64 OFFCURVE",
"1038 212 OFFCURVE",
"1106 412 OFFCURVE",
"1106 529 QCURVE SMOOTH",
"1106 551 LINE SMOOTH",
"1106 695 OFFCURVE",
"1005 929 OFFCURVE",
"911 1004 QCURVE",
"1012 1209 LINE",
"889 1209 LINE",
"816 1061 LINE",
"771 1081 OFFCURVE",
"670 1102 OFFCURVE",
"613 1102 QCURVE SMOOTH",
"499 1102 OFFCURVE",
"317 1017 OFFCURVE",
"190 869 OFFCURVE",
"122 668 OFFCURVE",
"122 551 QCURVE",
"122 551 LINE"
);
},
{
closed = 1;
nodes = (
"307 551 LINE SMOOTH",
"307 630 OFFCURVE",
"345 775 OFFCURVE",
"422 885 OFFCURVE",
"536 950 OFFCURVE",
"613 950 QCURVE SMOOTH",
"651 950 OFFCURVE",
"716 933 OFFCURVE",
"745 918 QCURVE",
"403 224 LINE",
"355 281 OFFCURVE",
"307 438 OFFCURVE",
"307 529 QCURVE",
"307 529 LINE"
);
},
{
closed = 1;
nodes = (
"921 529 LINE SMOOTH",
"921 449 OFFCURVE",
"883 304 OFFCURVE",
"806 194 OFFCURVE",
"691 130 OFFCURVE",
"615 130 QCURVE SMOOTH",
"547 130 OFFCURVE",
"492 156 QCURVE",
"832 845 LINE",
"877 788 OFFCURVE",
"921 636 OFFCURVE",
"921 551 QCURVE",
"921 551 LINE"
);
}
);
userData = {
assembly = "NPUSHB[ ]\011/* 59 values pushed */
11 8 2 4 0 47 46 34 33 4 5 4 26 23 2 2 5 3 74 0 1 0 1 114 0 3 2 3 115 0 4 4 0 91 0 0 0 71 75 0 5 5 2 91 0 2 2 69 2 76 42 43 19 41 19 36 6 8 26 
CALL[ ]\011/* CallFunction */";
};
width = 1229;
}
);
note = oslash;
unicode = 00F8;
},
{
glyphname = thorn;
layers = (
{
layerId = "E4B1A873-EC94-4624-AAD7-98A019FF1B0F";
paths = (
{
closed = 1;
nodes = (
"1087 550 LINE SMOOTH",
"1087 671 OFFCURVE",
"1033 874 OFFCURVE",
"927 1020 OFFCURVE",
"769 1102 OFFCURVE",
"665 1102 QCURVE SMOOTH",
"565 1102 OFFCURVE",
"413 1034 OFFCURVE",
"358 970 QCURVE",
"358 1558 LINE",
"173 1558 LINE",
"173 -416 LINE",
"358 -416 LINE",
"358 107 LINE",
"414 45 OFFCURVE",
"568 -20 OFFCURVE",
"668 -20 QCURVE SMOOTH",
"770 -20 OFFCURVE",
"926 64 OFFCURVE",
"1033 212 OFFCURVE",
"1087 413 OFFCURVE",
"1087 529 QCURVE",
"1087 529 LINE"
);
},
{
closed = 1;
nodes = (
"902 529 LINE SMOOTH",
"902 450 OFFCURVE",
"868 306 OFFCURVE",
"798 196 OFFCURVE",
"688 131 OFFCURVE",
"612 131 QCURVE SMOOTH",
"518 131 OFFCURVE",
"396 213 OFFCURVE",
"358 278 QCURVE",
"358 796 LINE",
"395 862 OFFCURVE",
"519 945 OFFCURVE",
"610 945 QCURVE SMOOTH",
"687 945 OFFCURVE",
"797 881 OFFCURVE",
"868 772 OFFCURVE",
"902 629 OFFCURVE",
"902 550 QCURVE",
"902 550 LINE"
);
}
);
userData = {
assembly = "NPUSHB[ ]\011/* 55 values pushed */
13 1 4 3 31 30 2 5 4 8 1 0 5 3 74 0 2 3 2 114 0 4 4 3 91 0 3 3 71 75 0 5 5 0 91 0 0 0 69 75 0 1 1 65 1 76 37 41 35 17 19 36 6 8 26 
CALL[ ]\011/* CallFunction */";
};
width = 1229;
}
);
note = thorn;
unicode = 00FE;
},
{
glyphname = Hbar;
layers = (
{
layerId = "E4B1A873-EC94-4624-AAD7-98A019FF1B0F";
paths = (
{
closed = 1;
nodes = (
"1084 1456 LINE",
"909 1456 LINE",
"909 1167 LINE",
"312 1167 LINE",
"312 1456 LINE",
"138 1456 LINE",
"138 1167 LINE",
"24 1167 LINE",
"24 1024 LINE",
"138 1024 LINE",
"138 0 LINE",
"312 0 LINE",
"312 673 LINE",
"909 673 LINE",
"909 0 LINE",
"1084 0 LINE",
"1084 1024 LINE",
"1212 1024 LINE",
"1212 1167 LINE",
"1084 1167 LINE",
"1084 1167 LINE"
);
},
{
closed = 1;
nodes = (
"312 1024 LINE",
"909 1024 LINE",
"909 830 LINE",
"312 830 LINE",
"312 830 LINE"
);
}
);
userData = {
assembly = "NPUSHB[ ]\011/* 51 values pushed */
8 6 2 0 11 5 2 1 10 0 1 97 0 10 0 3 2 10 3 97 9 1 7 7 60 75 4 1 2 2 61 2 76 23 22 21 20 19 18 17 17 17 17 17 17 17 17 16 12 8 29 
CALL[ ]\011/* CallFunction */";
};
width = 1229;
}
);
note = Hbar;
unicode = 0126;
},
{
glyphname = dotlessi;
layers = (
{
layerId = "E4B1A873-EC94-4624-AAD7-98A019FF1B0F";
paths = (
{
closed = 1;
nodes = (
"203 921 LINE",
"571 921 LINE",
"571 160 LINE",
"203 160 LINE",
"203 0 LINE",
"1109 0 LINE",
"1109 160 LINE",
"756 160 LINE",
"756 1082 LINE",
"203 1082 LINE",
"203 1082 LINE"
);
}
);
userData = {
assembly = "NPUSHB[ ]\011/* 30 values pushed */
0 4 4 0 89 0 0 0 63 75 3 1 1 1 2 89 0 2 2 61 2 76 17 17 17 17 16 5 8 25 
CALL[ ]\011/* CallFunction */";
};
width = 1229;
}
);
note = dotlessi;
unicode = 0131;
},
{
glyphname = IJ;
layers = (
{
layerId = "E4B1A873-EC94-4624-AAD7-98A019FF1B0F";
paths = (
{
closed = 1;
nodes = (
"313 1456 LINE",
"128 1456 LINE",
"128 0 LINE",
"313 0 LINE",
"313 0 LINE"
);
},
{
closed = 1;
nodes = (
"915 323 LINE SMOOTH",
"915 279 OFFCURVE",
"900 208 OFFCURVE",
"864 159 OFFCURVE",
"804 132 OFFCURVE",
"758 132 QCURVE SMOOTH",
"690 132 OFFCURVE",
"610 222 OFFCURVE",
"610 321 QCURVE",
"424 321 LINE",
"424 234 OFFCURVE",
"474 106 OFFCURVE",
"562 22 OFFCURVE",
"685 -19 OFFCURVE",
"758 -19 QCURVE SMOOTH",
"845 -19 OFFCURVE",
"974 27 OFFCURVE",
"1059 115 OFFCURVE",
"1100 242 OFFCURVE",
"1100 323 QCURVE SMOOTH",
"1100 1456 LINE",
"915 1456 LINE",
"915 1456 LINE"
);
}
);
userData = {
assembly = "MPPEM[ ]\011/* MeasurePixelPerEm */
PUSHB[ ]\011/* 1 value pushed */
27 
LT[ ]\011/* LessThan */
IF[ ]\011/* If */
NPUSHB[ ]\011/* 26 values pushed */
0 4 1 5 1 4 5 112 2 1 1 1 60 75 0 5 5 0 91 3 1 0 0 61 0 76 
ELSE[ ]\011/* Else */
NPUSHB[ ]\011/* 30 values pushed */
0 4 1 5 1 4 5 112 2 1 1 1 60 75 0 0 0 61 75 0 5 5 3 91 0 3 3 69 3 76 
EIF[ ]\011/* EndIf */
NPUSHB[ ]\011/* 9 values pushed */
34 20 37 17 17 16 6 8 26 
CALL[ ]\011/* CallFunction */";
};
width = 1229;
}
);
note = IJ;
unicode = 0132;
},
{
glyphname = ij;
layers = (
{
layerId = "E4B1A873-EC94-4624-AAD7-98A019FF1B0F";
paths = (
{
closed = 1;
nodes = (
"686 921 LINE",
"908 921 LINE",
"908 -5 LINE SMOOTH",
"908 -82 OFFCURVE",
"869 -185 OFFCURVE",
"801 -246 OFFCURVE",
"709 -271 OFFCURVE",
"657 -271 QCURVE SMOOTH",
"643 -271 OFFCURVE",
"595 -270 OFFCURVE",
"541 -267 OFFCURVE",
"489 -262 OFFCURVE",
"472 -259 QCURVE",
"459 -417 LINE",
"514 -427 OFFCURVE",
"613 -434 OFFCURVE",
"670 -434 QCURVE SMOOTH",
"770 -434 OFFCURVE",
"927 -378 OFFCURVE",
"1036 -268 OFFCURVE",
"1093 -109 OFFCURVE",
"1093 -5 QCURVE SMOOTH",
"1093 1082 LINE",
"686 1082 LINE",
"686 1082 LINE"
);
},
{
closed = 1;
nodes = (
"85 921 LINE",
"319 921 LINE",
"319 160 LINE",
"80 160 LINE",
"80 0 LINE",
"728 0 LINE",
"728 160 LINE",
"505 160 LINE",
"505 1082 LINE",
"85 1082 LINE",
"85 1082 LINE"
);
},
{
closed = 1;
nodes = (
"881 1318 OFFCURVE",
"935 1257 OFFCURVE",
"991 1257 QCURVE SMOOTH",
"1047 1257 OFFCURVE",
"1103 1318 OFFCURVE",
"1103 1363 QCURVE SMOOTH",
"1103 1408 OFFCURVE",
"1047 1471 OFFCURVE",
"991 1471 QCURVE SMOOTH",
"935 1471 OFFCURVE",
"881 1408 OFFCURVE",
"881 1363 QCURVE",
"881 1363 LINE"
);
},
{
closed = 1;
nodes = (
"303 1317 OFFCURVE",
"358 1256 OFFCURVE",
"414 1256 QCURVE SMOOTH",
"469 1256 OFFCURVE",
"525 1317 OFFCURVE",
"525 1362 QCURVE SMOOTH",
"525 1407 OFFCURVE",
"469 1470 OFFCURVE",
"414 1470 QCURVE SMOOTH",
"358 1470 OFFCURVE",
"303 1407 OFFCURVE",
"303 1362 QCURVE",
"303 1362 LINE"
);
}
);
userData = {
assembly = "NPUSHB[ ]\011/* 76 values pushed */
11 1 2 6 10 1 1 2 2 74 12 1 10 10 9 91 11 1 9 9 68 75 8 1 3 3 0 89 4 1 0 0 63 75 7 1 5 5 6 89 0 6 6 61 75 0 2 2 1 91 0 1 1 73 1 76 56 54 50 48 44 42 38 36 17 17 17 17 17 21 68 53 16 13 8 29 
CALL[ ]\011/* CallFunction */";
};
width = 1229;
}
);
note = ij;
unicode = 0133;
},
{
glyphname = kgreenlandic;
layers = (
{
layerId = "E4B1A873-EC94-4624-AAD7-98A019FF1B0F";
paths = (
{
closed = 1;
nodes = (
"904 0 LINE",
"1138 0 LINE",
"646 603 LINE",
"1102 1082 LINE",
"879 1082 LINE",
"481 671 LINE",
"371 551 LINE",
"371 1082 LINE",
"186 1082 LINE",
"186 0 LINE",
"371 0 LINE",
"371 344 LINE",
"521 477 LINE",
"521 477 LINE"
);
}
);
userData = {
assembly = "NPUSHB[ ]\011/* 28 values pushed */
10 6 1 3 0 1 1 74 2 1 1 1 63 75 3 1 0 0 61 0 76 18 19 17 18 4 8 24 
CALL[ ]\011/* CallFunction */";
};
width = 1229;
}
);
note = kgreenlandic;
unicode = 0138;
},
{
glyphname = Lslash;
layers = (
{
layerId = "E4B1A873-EC94-4624-AAD7-98A019FF1B0F";
paths = (
{
closed = 1;
nodes = (
"387 1456 LINE",
"202 1456 LINE",
"202 786 LINE",
"58 741 LINE",
"58 579 LINE",
"202 624 LINE",
"202 0 LINE",
"1099 0 LINE",
"1099 157 LINE",
"387 157 LINE",
"387 683 LINE",
"649 766 LINE",
"649 928 LINE",
"387 845 LINE",
"387 845 LINE"
);
}
);
userData = {
assembly = "NPUSHB[ ]\011/* 35 values pushed */
11 10 9 8 3 2 1 0 8 0 2 1 74 0 2 2 60 75 0 0 0 1 90 0 1 1 61 1 76 21 17 20 3 8 23 
CALL[ ]\011/* CallFunction */";
};
width = 1229;
}
);
note = Lslash;
unicode = 0141;
},
{
glyphname = lslash;
layers = (
{
layerId = "E4B1A873-EC94-4624-AAD7-98A019FF1B0F";
paths = (
{
closed = 1;
nodes = (
"756 1536 LINE",
"203 1536 LINE",
"203 1375 LINE",
"571 1375 LINE",
"571 888 LINE",
"232 734 LINE",
"232 572 LINE",
"571 726 LINE",
"571 160 LINE",
"203 160 LINE",
"203 0 LINE",
"1109 0 LINE",
"1109 160 LINE",
"756 160 LINE",
"756 811 LINE",
"1045 943 LINE",
"1046 1105 LINE",
"756 973 LINE",
"756 973 LINE"
);
}
);
userData = {
assembly = "NPUSHB[ ]\011/* 13 values pushed */
13 12 11 10 3 2 1 0 8 0 3 1 74 
MPPEM[ ]\011/* MeasurePixelPerEm */
PUSHB[ ]\011/* 1 value pushed */
33 
LT[ ]\011/* LessThan */
IF[ ]\011/* If */
NPUSHB[ ]\011/* 22 values pushed */
0 3 3 4 89 0 4 4 62 75 2 1 0 0 1 89 0 1 1 61 1 76 
ELSE[ ]\011/* Else */
NPUSHB[ ]\011/* 20 values pushed */
0 4 0 3 0 4 3 97 2 1 0 0 1 89 0 1 1 61 1 76 
EIF[ ]\011/* EndIf */
PUSHB[ ]\011/* 8 values pushed */
17 21 17 17 20 5 8 25 
CALL[ ]\011/* CallFunction */";
};
width = 1229;
}
);
note = lslash;
unicode = 0142;
},
{
glyphname = Eng;
layers = (
{
layerId = "E4B1A873-EC94-4624-AAD7-98A019FF1B0F";
paths = (
{
closed = 1;
nodes = (
"867 1456 LINE",
"867 389 LINE",
"360 1456 LINE",
"175 1456 LINE",
"175 0 LINE",
"360 0 LINE",
"360 1069 LINE",
"867 2 LINE",
"867 -89 LINE SMOOTH",
"867 -176 OFFCURVE",
"800 -285 OFFCURVE",
"735 -285 QCURVE SMOOTH",
"729 -285 OFFCURVE",
"703 -283 OFFCURVE",
"674 -280 OFFCURVE",
"647 -275 OFFCURVE",
"639 -272 QCURVE",
"625 -419 LINE",
"654 -429 OFFCURVE",
"705 -437 OFFCURVE",
"735 -437 QCURVE SMOOTH",
"811 -437 OFFCURVE",
"929 -390 OFFCURVE",
"1010 -300 OFFCURVE",
"1053 -171 OFFCURVE",
"1053 -89 QCURVE SMOOTH",
"1052 1456 LINE",
"1052 1456 LINE"
);
}
);
userData = {
assembly = "NPUSHB[ ]\011/* 52 values pushed */
25 20 19 3 2 3 10 1 1 2 9 1 0 1 3 74 5 4 2 3 3 60 75 0 2 2 61 75 0 1 1 0 91 0 0 0 73 0 76 0 0 0 26 0 26 17 21 39 37 6 8 24 
CALL[ ]\011/* CallFunction */";
};
width = 1229;
}
);
note = Eng;
unicode = 014A;
},
{
glyphname = eng;
layers = (
{
layerId = "E4B1A873-EC94-4624-AAD7-98A019FF1B0F";
paths = (
{
closed = 1;
nodes = (
"184 1082 LINE",
"184 0 LINE",
"369 0 LINE",
"369 810 LINE",
"406 872 OFFCURVE",
"532 945 OFFCURVE",
"626 945 QCURVE SMOOTH",
"744 945 OFFCURVE",
"862 821 OFFCURVE",
"862 678 QCURVE SMOOTH",
"862 -89 LINE SMOOTH",
"862 -179 OFFCURVE",
"791 -275 OFFCURVE",
"724 -275 QCURVE SMOOTH",
"717 -275 OFFCURVE",
"691 -273 OFFCURVE",
"661 -270 OFFCURVE",
"633 -265 OFFCURVE",
"624 -262 QCURVE",
"610 -419 LINE",
"640 -429 OFFCURVE",
"694 -437 OFFCURVE",
"724 -437 QCURVE SMOOTH",
"878 -436 OFFCURVE",
"1047 -256 OFFCURVE",
"1047 -89 QCURVE SMOOTH",
"1047 682 LINE SMOOTH",
"1047 790 OFFCURVE",
"997 949 OFFCURVE",
"903 1052 OFFCURVE",
"767 1102 OFFCURVE",
"681 1102 QCURVE SMOOTH",
"575 1102 OFFCURVE",
"416 1009 OFFCURVE",
"362 928 QCURVE",
"350 1082 LINE",
"350 1082 LINE"
);
}
);
userData = {
assembly = "NPUSHB[ ]\011/* 15 values pushed */
32 1 2 4 3 17 1 2 4 16 1 1 2 3 74 
MPPEM[ ]\011/* MeasurePixelPerEm */
PUSHB[ ]\011/* 1 value pushed */
25 
LT[ ]\011/* LessThan */
IF[ ]\011/* If */
NPUSHB[ ]\011/* 28 values pushed */
0 3 3 0 91 6 5 2 0 0 71 75 0 4 4 61 75 0 2 2 1 91 0 1 1 73 1 76 
ELSE[ ]\011/* Else */
NPUSHB[ ]\011/* 32 values pushed */
6 1 5 5 63 75 0 3 3 0 91 0 0 0 71 75 0 4 4 61 75 0 2 2 1 91 0 1 1 73 1 76 
EIF[ ]\011/* EndIf */
NPUSHB[ ]\011/* 14 values pushed */
0 0 0 35 0 35 19 37 39 39 35 7 8 25 
CALL[ ]\011/* CallFunction */";
};
width = 1229;
}
);
note = eng;
unicode = 014B;
},
{
glyphname = OE;
layers = (
{
layerId = "E4B1A873-EC94-4624-AAD7-98A019FF1B0F";
paths = (
{
closed = 1;
nodes = (
"1190 151 LINE",
"783 151 LINE",
"783 676 LINE",
"1127 676 LINE",
"1127 828 LINE",
"783 828 LINE",
"783 1304 LINE",
"1180 1304 LINE",
"1180 1456 LINE",
"762 1456 LINE",
"700 1464 OFFCURVE",
"566 1476 OFFCURVE",
"497 1476 QCURVE SMOOTH",
"400 1476 OFFCURVE",
"245 1408 OFFCURVE",
"137 1276 OFFCURVE",
"79 1081 OFFCURVE",
"79 953 QCURVE SMOOTH",
"79 502 LINE SMOOTH",
"79 374 OFFCURVE",
"138 179 OFFCURVE",
"247 47 OFFCURVE",
"402 -20 OFFCURVE",
"499 -20 QCURVE SMOOTH",
"568 -20 OFFCURVE",
"700 -7 OFFCURVE",
"762 0 QCURVE",
"1190 0 LINE",
"1190 0 LINE"
);
},
{
closed = 1;
nodes = (
"442 131 OFFCURVE",
"354 168 OFFCURVE",
"294 254 OFFCURVE",
"264 397 OFFCURVE",
"264 502 QCURVE SMOOTH",
"264 955 LINE SMOOTH",
"264 1060 OFFCURVE",
"294 1201 OFFCURVE",
"352 1287 OFFCURVE",
"440 1324 OFFCURVE",
"497 1324 QCURVE SMOOTH",
"523 1324 OFFCURVE",
"573 1322 OFFCURVE",
"598 1320 QCURVE",
"598 134 LINE",
"548 131 OFFCURVE",
"499 131 QCURVE",
"499 131 LINE"
);
}
);
userData = {
assembly = "MPPEM[ ]\011/* MeasurePixelPerEm */
PUSHB[ ]\011/* 1 value pushed */
25 
LT[ ]\011/* LessThan */
IF[ ]\011/* If */
PUSHB[ ]\011/* 6 values pushed */
31 1 4 2 1 74 
ELSE[ ]\011/* Else */
MPPEM[ ]\011/* MeasurePixelPerEm */
PUSHB[ ]\011/* 1 value pushed */
27 
LT[ ]\011/* LessThan */
IF[ ]\011/* If */
PUSHB[ ]\011/* 6 values pushed */
31 1 4 3 1 74 
ELSE[ ]\011/* Else */
PUSHB[ ]\011/* 6 values pushed */
31 1 4 9 1 74 
EIF[ ]\011/* EndIf */
EIF[ ]\011/* EndIf */
MPPEM[ ]\011/* MeasurePixelPerEm */
PUSHB[ ]\011/* 1 value pushed */
25 
LT[ ]\011/* LessThan */
IF[ ]\011/* If */
NPUSHB[ ]\011/* 34 values pushed */
0 5 0 6 7 5 6 97 9 1 4 4 2 91 3 1 2 2 68 75 10 8 2 7 7 0 91 1 1 0 0 61 0 76 
ELSE[ ]\011/* Else */
MPPEM[ ]\011/* MeasurePixelPerEm */
PUSHB[ ]\011/* 1 value pushed */
27 
LT[ ]\011/* LessThan */
IF[ ]\011/* If */
NPUSHB[ ]\011/* 55 values pushed */
0 5 0 6 7 5 6 97 9 1 4 4 2 91 0 2 2 68 75 9 1 4 4 3 89 0 3 3 60 75 10 8 2 7 7 0 89 0 0 0 61 75 10 8 2 7 7 1 91 0 1 1 69 1 76 
ELSE[ ]\011/* Else */
NPUSHB[ ]\011/* 50 values pushed */
0 5 0 6 7 5 6 97 0 9 9 2 91 0 2 2 68 75 0 4 4 3 89 0 3 3 60 75 0 7 7 0 89 0 0 0 61 75 10 1 8 8 1 91 0 1 1 69 1 76 
EIF[ ]\011/* EndIf */
EIF[ ]\011/* EndIf */
NPUSHB[ ]\011/* 19 values pushed */
30 28 35 32 28 44 30 44 17 17 17 17 18 41 34 16 11 8 28 
CALL[ ]\011/* CallFunction */";
};
width = 1229;
}
);
note = OE;
unicode = 0152;
},
{
glyphname = oe;
layers = (
{
layerId = "E4B1A873-EC94-4624-AAD7-98A019FF1B0F";
paths = (
{
closed = 1;
nodes = (
"46 441 LINE SMOOTH",
"46 336 OFFCURVE",
"91 166 OFFCURVE",
"179 46 OFFCURVE",
"307 -20 OFFCURVE",
"390 -20 QCURVE SMOOTH",
"473 -20 OFFCURVE",
"600 46 OFFCURVE",
"644 107 QCURVE",
"689 45 OFFCURVE",
"820 -20 OFFCURVE",
"907 -20 QCURVE SMOOTH",
"955 -20 OFFCURVE",
"1031 -4 OFFCURVE",
"1091 22 OFFCURVE",
"1136 56 OFFCURVE",
"1153 74 QCURVE",
"1098 200 LINE",
"1066 172 OFFCURVE",
"975 130 OFFCURVE",
"907 130 QCURVE SMOOTH",
"864 130 OFFCURVE",
"802 173 OFFCURVE",
"762 253 OFFCURVE",
"742 364 OFFCURVE",
"742 432 QCURVE SMOOTH",
"742 496 LINE",
"1200 496 LINE",
"1200 677 LINE SMOOTH",
"1200 768 OFFCURVE",
"1162 924 OFFCURVE",
"1083 1038 OFFCURVE",
"962 1102 OFFCURVE",
"879 1102 QCURVE SMOOTH",
"809 1102 OFFCURVE",
"689 1036 OFFCURVE",
"644 973 QCURVE",
"600 1035 OFFCURVE",
"472 1102 OFFCURVE",
"388 1102 QCURVE SMOOTH",
"306 1102 OFFCURVE",
"178 1036 OFFCURVE",
"91 914 OFFCURVE",
"46 744 OFFCURVE",
"46 639 QCURVE",
"46 639 LINE"
);
},
{
closed = 1;
nodes = (
"232 639 LINE SMOOTH",
"232 706 OFFCURVE",
"250 821 OFFCURVE",
"287 903 OFFCURVE",
"346 950 OFFCURVE",
"388 950 QCURVE SMOOTH",
"430 950 OFFCURVE",
"491 904 OFFCURVE",
"529 821 OFFCURVE",
"547 707 OFFCURVE",
"547 639 QCURVE SMOOTH",
"547 441 LINE SMOOTH",
"547 373 OFFCURVE",
"529 258 OFFCURVE",
"491 176 OFFCURVE",
"432 130 OFFCURVE",
"390 130 QCURVE SMOOTH",
"347 130 OFFCURVE",
"287 176 OFFCURVE",
"249 258 OFFCURVE",
"232 373 OFFCURVE",
"232 441 QCURVE",
"232 441 LINE"
);
},
{
closed = 1;
nodes = (
"742 651 LINE SMOOTH",
"742 718 OFFCURVE",
"761 829 OFFCURVE",
"796 907 OFFCURVE",
"847 950 OFFCURVE",
"879 950 QCURVE SMOOTH",
"916 950 OFFCURVE",
"967 913 OFFCURVE",
"1000 852 OFFCURVE",
"1015 774 OFFCURVE",
"1015 732 QCURVE SMOOTH",
"1015 647 LINE",
"742 647 LINE",
"742 647 LINE"
);
}
);
userData = {
assembly = "NPUSHB[ ]\011/* 68 values pushed */
8 1 7 0 27 1 3 2 36 28 2 4 3 3 74 10 1 8 0 2 3 8 2 97 9 1 7 7 0 91 1 1 0 0 71 75 6 1 3 3 4 91 5 1 4 4 69 4 76 68 67 75 73 67 79 68 79 41 41 36 39 37 21 36 36 11 8 28 
CALL[ ]\011/* CallFunction */";
};
width = 1229;
}
);
note = oe;
unicode = 0153;
},
{
glyphname = longs;
layers = (
{
layerId = "E4B1A873-EC94-4624-AAD7-98A019FF1B0F";
paths = (
{
closed = 1;
nodes = (
"642 0 LINE",
"642 1126 LINE SMOOTH",
"642 1195 OFFCURVE",
"678 1307 OFFCURVE",
"748 1385 OFFCURVE",
"851 1427 OFFCURVE",
"919 1427 QCURVE SMOOTH",
"948 1427 OFFCURVE",
"994 1421 OFFCURVE",
"1012 1416 QCURVE",
"1035 1558 LINE",
"998 1567 OFFCURVE",
"927 1579 OFFCURVE",
"890 1579 QCURVE SMOOTH",
"790 1579 OFFCURVE",
"630 1519 OFFCURVE",
"517 1404 OFFCURVE",
"456 1235 OFFCURVE",
"456 1126 QCURVE SMOOTH",
"456 0 LINE",
"456 0 LINE"
);
}
);
userData = {
assembly = "NPUSHB[ ]\011/* 36 values pushed */
9 1 1 0 10 1 2 1 2 74 0 0 0 1 2 0 1 99 3 1 2 2 61 2 76 0 0 0 19 0 19 37 37 4 8 22 
CALL[ ]\011/* CallFunction */";
};
width = 1229;
}
);
note = longs;
unicode = 017F;
},
{
glyphname = florin;
layers = (
{
layerId = "E4B1A873-EC94-4624-AAD7-98A019FF1B0F";
paths = (
{
closed = 1;
nodes = (
"895 1082 LINE",
"683 1082 LINE",
"683 1181 LINE SMOOTH",
"684 1298 OFFCURVE",
"808 1421 OFFCURVE",
"938 1422 QCURVE SMOOTH",
"978 1422 OFFCURVE",
"1049 1406 OFFCURVE",
"1075 1393 QCURVE",
"1098 1540 LINE",
"1051 1557 OFFCURVE",
"962 1579 OFFCURVE",
"915 1579 QCURVE SMOOTH",
"819 1579 OFFCURVE",
"665 1527 OFFCURVE",
"556 1426 OFFCURVE",
"498 1277 OFFCURVE",
"498 1181 QCURVE SMOOTH",
"498 1082 LINE",
"321 1082 LINE",
"321 939 LINE",
"498 939 LINE",
"498 -52 LINE SMOOTH",
"497 -161 OFFCURVE",
"405 -285 OFFCURVE",
"320 -285 QCURVE SMOOTH",
"309 -285 OFFCURVE",
"270 -281 OFFCURVE",
"226 -272 OFFCURVE",
"185 -261 OFFCURVE",
"174 -253 QCURVE",
"160 -401 LINE",
"199 -421 OFFCURVE",
"279 -437 OFFCURVE",
"320 -437 QCURVE SMOOTH",
"405 -437 OFFCURVE",
"540 -386 OFFCURVE",
"633 -289 OFFCURVE",
"683 -145 OFFCURVE",
"683 -52 QCURVE SMOOTH",
"683 939 LINE",
"895 939 LINE",
"895 939 LINE"
);
}
);
userData = {
assembly = "NPUSHB[ ]\011/* 60 values pushed */
32 1 6 5 33 1 4 6 11 1 2 0 10 1 1 2 4 74 0 5 0 6 4 5 6 99 3 1 0 0 4 89 7 1 4 4 63 75 0 2 2 1 91 0 1 1 73 1 76 19 37 37 17 19 39 37 16 8 8 28 
CALL[ ]\011/* CallFunction */";
};
width = 1229;
}
);
note = florin;
unicode = 0192;
},
{
glyphname = Ohorn;
layers = (
{
layerId = "E4B1A873-EC94-4624-AAD7-98A019FF1B0F";
paths = (
{
closed = 1;
nodes = (
"1114 810 LINE SMOOTH",
"1112 910 OFFCURVE",
"1072 1112 OFFCURVE",
"1028 1200 QCURVE",
"1122 1235 OFFCURVE",
"1222 1403 OFFCURVE",
"1221 1530 QCURVE",
"1054 1530 LINE",
"1053 1447 OFFCURVE",
"1003 1339 OFFCURVE",
"949 1321 QCURVE",
"888 1392 OFFCURVE",
"719 1476 OFFCURVE",
"606 1476 QCURVE SMOOTH",
"516 1476 OFFCURVE",
"371 1421 OFFCURVE",
"259 1324 OFFCURVE",
"178 1195 OFFCURVE",
"125 1047 OFFCURVE",
"100 888 OFFCURVE",
"99 810 QCURVE SMOOTH",
"99 644 LINE SMOOTH",
"100 566 OFFCURVE",
"126 408 OFFCURVE",
"179 260 OFFCURVE",
"261 131 OFFCURVE",
"373 35 OFFCURVE",
"518 -20 OFFCURVE",
"608 -20 QCURVE SMOOTH",
"698 -20 OFFCURVE",
"843 35 OFFCURVE",
"955 131 OFFCURVE",
"1036 259 OFFCURVE",
"1088 407 OFFCURVE",
"1113 566 OFFCURVE",
"1114 644 QCURVE",
"1114 644 LINE"
);
},
{
closed = 1;
nodes = (
"931 644 LINE SMOOTH",
"930 592 OFFCURVE",
"919 478 OFFCURVE",
"890 367 OFFCURVE",
"843 266 OFFCURVE",
"772 189 OFFCURVE",
"673 143 OFFCURVE",
"608 143 QCURVE SMOOTH",
"543 143 OFFCURVE",
"445 189 OFFCURVE",
"373 266 OFFCURVE",
"325 368 OFFCURVE",
"295 479 OFFCURVE",
"282 593 OFFCURVE",
"281 644 QCURVE SMOOTH",
"281 812 LINE SMOOTH",
"282 863 OFFCURVE",
"295 976 OFFCURVE",
"324 1087 OFFCURVE",
"372 1188 OFFCURVE",
"444 1265 OFFCURVE",
"542 1311 OFFCURVE",
"606 1311 QCURVE SMOOTH",
"671 1311 OFFCURVE",
"769 1266 OFFCURVE",
"841 1189 OFFCURVE",
"889 1088 OFFCURVE",
"918 977 OFFCURVE",
"930 864 OFFCURVE",
"931 812 QCURVE",
"931 812 LINE"
);
}
);
userData = {
assembly = "NPUSHB[ ]\011/* 10 values pushed */
25 1 3 1 32 1 4 3 2 74 
MPPEM[ ]\011/* MeasurePixelPerEm */
PUSHB[ ]\011/* 1 value pushed */
40 
LT[ ]\011/* LessThan */
IF[ ]\011/* If */
NPUSHB[ ]\011/* 26 values pushed */
0 2 2 62 75 0 3 3 1 91 0 1 1 68 75 0 4 4 0 91 0 0 0 69 0 76 
ELSE[ ]\011/* Else */
NPUSHB[ ]\011/* 26 values pushed */
0 2 1 2 114 0 3 3 1 91 0 1 1 68 75 0 4 4 0 91 0 0 0 69 0 76 
EIF[ ]\011/* EndIf */
PUSHB[ ]\011/* 8 values pushed */
45 45 21 45 38 5 8 25 
CALL[ ]\011/* CallFunction */";
};
width = 1229;
}
);
note = Ohorn;
unicode = 01A0;
},
{
glyphname = ohorn;
layers = (
{
layerId = "E4B1A873-EC94-4624-AAD7-98A019FF1B0F";
paths = (
{
closed = 1;
nodes = (
"119 529 LINE SMOOTH",
"119 412 OFFCURVE",
"187 212 OFFCURVE",
"314 64 OFFCURVE",
"497 -20 OFFCURVE",
"612 -20 QCURVE SMOOTH",
"726 -20 OFFCURVE",
"908 64 OFFCURVE",
"1035 212 OFFCURVE",
"1103 412 OFFCURVE",
"1103 529 QCURVE SMOOTH",
"1103 551 LINE SMOOTH",
"1103 643 OFFCURVE",
"1061 807 OFFCURVE",
"1020 875 QCURVE",
"1106 911 OFFCURVE",
"1197 1073 OFFCURVE",
"1198 1194 QCURVE",
"1030 1194 LINE",
"1030 1111 OFFCURVE",
"979 1007 OFFCURVE",
"925 990 QCURVE",
"864 1043 OFFCURVE",
"706 1102 OFFCURVE",
"610 1102 QCURVE SMOOTH",
"496 1102 OFFCURVE",
"314 1017 OFFCURVE",
"187 869 OFFCURVE",
"119 668 OFFCURVE",
"119 551 QCURVE",
"119 551 LINE"
);
},
{
closed = 1;
nodes = (
"304 551 LINE SMOOTH",
"304 630 OFFCURVE",
"342 775 OFFCURVE",
"419 885 OFFCURVE",
"533 950 OFFCURVE",
"610 950 QCURVE SMOOTH",
"687 950 OFFCURVE",
"802 885 OFFCURVE",
"879 775 OFFCURVE",
"918 630 OFFCURVE",
"918 551 QCURVE SMOOTH",
"918 529 LINE SMOOTH",
"918 449 OFFCURVE",
"880 304 OFFCURVE",
"803 194 OFFCURVE",
"688 130 OFFCURVE",
"612 130 QCURVE SMOOTH",
"535 130 OFFCURVE",
"419 194 OFFCURVE",
"342 304 OFFCURVE",
"304 449 OFFCURVE",
"304 529 QCURVE",
"304 529 LINE"
);
}
);
userData = {
assembly = "NPUSHB[ ]\011/* 44 values pushed */
8 1 4 0 15 1 3 4 2 74 0 1 0 1 114 0 4 4 0 91 0 0 0 71 75 0 3 3 2 91 0 2 2 69 2 76 41 41 43 21 36 5 8 25 
CALL[ ]\011/* CallFunction */";
};
width = 1229;
}
);
note = ohorn;
unicode = 01A1;
},
{
glyphname = Uhorn;
layers = (
{
layerId = "E4B1A873-EC94-4624-AAD7-98A019FF1B0F";
paths = (
{
closed = 1;
nodes = (
"909 1456 LINE",
"906 470 LINE SMOOTH",
"904 405 OFFCURVE",
"866 285 OFFCURVE",
"793 192 OFFCURVE",
"685 137 OFFCURVE",
"614 137 QCURVE SMOOTH",
"543 137 OFFCURVE",
"434 193 OFFCURVE",
"361 285 OFFCURVE",
"322 405 OFFCURVE",
"321 470 QCURVE SMOOTH",
"317 1456 LINE",
"141 1456 LINE",
"139 470 LINE SMOOTH",
"140 368 OFFCURVE",
"210 189 OFFCURVE",
"334 56 OFFCURVE",
"508 -20 OFFCURVE",
"614 -20 QCURVE SMOOTH",
"718 -20 OFFCURVE",
"892 57 OFFCURVE",
"1018 190 OFFCURVE",
"1088 368 OFFCURVE",
"1090 470 QCURVE SMOOTH",
"1089 1136 LINE",
"1255 1147 OFFCURVE",
"1411 1332 OFFCURVE",
"1411 1512 QCURVE",
"1244 1512 LINE",
"1244 1456 OFFCURVE",
"1229 1371 OFFCURVE",
"1193 1312 OFFCURVE",
"1133 1278 OFFCURVE",
"1088 1272 QCURVE",
"1088 1456 LINE",
"1088 1456 LINE"
);
}
);
userData = {
assembly = "NPUSHB[ ]\011/* 48 values pushed */
1 1 1 3 1 74 6 5 2 3 3 60 75 0 1 1 0 89 0 0 0 62 75 0 4 4 2 91 0 2 2 69 2 76 0 0 0 35 0 35 37 21 37 18 22 7 8 25 
CALL[ ]\011/* CallFunction */";
};
width = 1229;
}
);
note = Uhorn;
unicode = 01AF;
},
{
glyphname = uhorn;
layers = (
{
layerId = "E4B1A873-EC94-4624-AAD7-98A019FF1B0F";
paths = (
{
closed = 1;
nodes = (
"1175 1171 LINE",
"1175 1070 OFFCURVE",
"1123 959 OFFCURVE",
"1055 941 QCURVE",
"1055 1082 LINE",
"869 1082 LINE",
"869 306 LINE",
"835 228 OFFCURVE",
"696 136 OFFCURVE",
"583 136 QCURVE SMOOTH",
"530 136 OFFCURVE",
"449 164 OFFCURVE",
"393 233 OFFCURVE",
"365 349 OFFCURVE",
"365 437 QCURVE SMOOTH",
"365 1082 LINE",
"180 1082 LINE",
"180 439 LINE SMOOTH",
"180 318 OFFCURVE",
"233 145 OFFCURVE",
"331 33 OFFCURVE",
"469 -20 OFFCURVE",
"554 -20 QCURVE SMOOTH",
"660 -20 OFFCURVE",
"822 69 OFFCURVE",
"876 149 QCURVE",
"887 0 LINE",
"1055 0 LINE",
"1055 802 LINE",
"1202 821 OFFCURVE",
"1342 1001 OFFCURVE",
"1343 1171 QCURVE",
"1343 1171 LINE"
);
}
);
userData = {
assembly = "NPUSHB[ ]\011/* 9 values pushed */
28 25 6 3 4 3 2 1 74 
MPPEM[ ]\011/* MeasurePixelPerEm */
PUSHB[ ]\011/* 1 value pushed */
25 
LT[ ]\011/* LessThan */
IF[ ]\011/* If */
NPUSHB[ ]\011/* 24 values pushed */
6 1 5 2 5 114 4 1 2 2 63 75 0 3 3 0 91 1 1 0 0 61 0 76 
ELSE[ ]\011/* Else */
NPUSHB[ ]\011/* 28 values pushed */
6 1 5 2 5 114 4 1 2 2 63 75 0 0 0 61 75 0 3 3 1 91 0 1 1 69 1 76 
EIF[ ]\011/* EndIf */
NPUSHB[ ]\011/* 14 values pushed */
0 0 0 31 0 31 19 37 21 35 20 7 8 25 
CALL[ ]\011/* CallFunction */";
};
width = 1229;
}
);
note = uhorn;
unicode = 01B0;
},
{
glyphname = uni0237;
layers = (
{
layerId = "E4B1A873-EC94-4624-AAD7-98A019FF1B0F";
paths = (
{
closed = 1;
nodes = (
"260 921 LINE",
"624 921 LINE",
"624 -7 LINE SMOOTH",
"624 -84 OFFCURVE",
"585 -189 OFFCURVE",
"517 -253 OFFCURVE",
"426 -280 OFFCURVE",
"374 -280 QCURVE SMOOTH",
"360 -280 OFFCURVE",
"311 -279 OFFCURVE",
"257 -276 OFFCURVE",
"206 -271 OFFCURVE",
"189 -268 QCURVE",
"176 -420 LINE",
"231 -430 OFFCURVE",
"330 -437 OFFCURVE",
"387 -437 QCURVE SMOOTH",
"487 -437 OFFCURVE",
"644 -380 OFFCURVE",
"753 -271 OFFCURVE",
"810 -111 OFFCURVE",
"810 -7 QCURVE SMOOTH",
"810 1082 LINE",
"260 1082 LINE",
"260 1082 LINE"
);
}
);
userData = {
assembly = "NPUSHB[ ]\011/* 38 values pushed */
11 1 2 3 10 1 1 2 2 74 0 3 3 0 89 0 0 0 63 75 0 2 2 1 91 0 1 1 73 1 76 21 68 53 16 4 8 24 
CALL[ ]\011/* CallFunction */";
};
width = 1229;
}
);
note = uni0237;
unicode = 0237;
},
{
glyphname = schwa;
layers = (
{
layerId = "E4B1A873-EC94-4624-AAD7-98A019FF1B0F";
paths = (
{
closed = 1;
nodes = (
"534 1103 OFFCURVE",
"409 1080 OFFCURVE",
"310 1042 OFFCURVE",
"235 994 OFFCURVE",
"208 969 QCURVE",
"281 844 LINE",
"335 890 OFFCURVE",
"496 952 OFFCURVE",
"609 952 QCURVE SMOOTH",
"687 952 OFFCURVE",
"805 894 OFFCURVE",
"886 794 OFFCURVE",
"930 660 OFFCURVE",
"933 584 QCURVE",
"177 584 LINE",
"177 463 LINE SMOOTH",
"177 358 OFFCURVE",
"233 181 OFFCURVE",
"347 53 OFFCURVE",
"520 -19 OFFCURVE",
"637 -19 QCURVE SMOOTH",
"733 -20 OFFCURVE",
"908 60 OFFCURVE",
"1041 203 OFFCURVE",
"1119 401 OFFCURVE",
"1119 518 QCURVE SMOOTH",
"1119 562 LINE SMOOTH",
"1119 679 OFFCURVE",
"1048 877 OFFCURVE",
"916 1022 OFFCURVE",
"727 1103 OFFCURVE",
"609 1103 QCURVE",
"609 1103 LINE"
);
},
{
closed = 1;
nodes = (
"566 132 OFFCURVE",
"462 177 OFFCURVE",
"395 253 OFFCURVE",
"362 353 OFFCURVE",
"362 407 QCURVE SMOOTH",
"362 433 LINE",
"927 433 LINE",
"916 369 OFFCURVE",
"866 259 OFFCURVE",
"791 178 OFFCURVE",
"694 132 OFFCURVE",
"637 132 QCURVE",
"637 132 LINE"
);
}
);
userData = {
assembly = "NPUSHB[ ]\011/* 64 values pushed */
27 1 3 0 26 1 2 3 2 74 0 2 0 5 4 2 5 97 0 3 3 0 91 6 1 0 0 71 75 7 1 4 4 1 91 0 1 1 69 1 76 33 32 1 0 38 37 32 43 33 43 24 22 18 17 12 10 0 31 1 31 8 8 20 
CALL[ ]\011/* CallFunction */";
};
width = 1229;
}
);
note = schwa;
unicode = 0259;
},
{
glyphname = circumflex;
layers = (
{
layerId = "E4B1A873-EC94-4624-AAD7-98A019FF1B0F";
paths = (
{
closed = 1;
nodes = (
"550 1517 LINE",
"438 1517 LINE",
"193 1278 LINE",
"193 1252 LINE",
"345 1252 LINE",
"494 1403 LINE",
"644 1252 LINE",
"798 1252 LINE",
"798 1277 LINE",
"798 1277 LINE"
);
}
);
userData = {
assembly = "NPUSHB[ ]\011/* 26 values pushed */
6 3 0 3 0 2 1 74 1 1 0 2 0 115 0 2 2 62 2 76 18 18 17 3 8 23 
CALL[ ]\011/* CallFunction */";
};
width = 1229;
}
);
note = circumflex;
unicode = 02C6;
},
{
glyphname = caron;
layers = (
{
layerId = "E4B1A873-EC94-4624-AAD7-98A019FF1B0F";
paths = (
{
closed = 1;
nodes = (
"461 1517 LINE",
"304 1517 LINE",
"304 1496 LINE",
"555 1251 LINE",
"669 1251 LINE",
"923 1499 LINE",
"923 1517 LINE",
"763 1517 LINE",
"612 1365 LINE",
"612 1365 LINE"
);
}
);
userData = {
assembly = "NPUSHB[ ]\011/* 24 values pushed */
6 1 1 0 1 74 0 1 0 1 115 2 1 0 0 62 0 76 18 18 17 3 8 23 
CALL[ ]\011/* CallFunction */";
};
width = 1229;
}
);
note = caron;
unicode = 02C7;
},
{
glyphname = breve;
layers = (
{
layerId = "E4B1A873-EC94-4624-AAD7-98A019FF1B0F";
paths = (
{
closed = 1;
nodes = (
"763 1458 LINE",
"763 1428 OFFCURVE",
"745 1373 OFFCURVE",
"709 1333 OFFCURVE",
"654 1309 OFFCURVE",
"615 1309 QCURVE SMOOTH",
"575 1309 OFFCURVE",
"519 1333 OFFCURVE",
"483 1373 OFFCURVE",
"465 1428 OFFCURVE",
"465 1458 QCURVE",
"315 1458 LINE",
"315 1399 OFFCURVE",
"358 1300 OFFCURVE",
"436 1230 OFFCURVE",
"546 1191 OFFCURVE",
"615 1191 QCURVE SMOOTH",
"683 1191 OFFCURVE",
"793 1230 OFFCURVE",
"871 1300 OFFCURVE",
"913 1399 OFFCURVE",
"913 1458 QCURVE",
"913 1458 LINE"
);
}
);
userData = {
assembly = "NPUSHB[ ]\011/* 27 values pushed */
0 2 0 0 2 0 95 4 3 2 1 1 60 1 76 0 0 0 21 0 21 36 20 36 5 8 23 
CALL[ ]\011/* CallFunction */";
};
width = 1229;
}
);
note = breve;
unicode = 02D8;
},
{
glyphname = dotaccent;
layers = (
{
layerId = "E4B1A873-EC94-4624-AAD7-98A019FF1B0F";
paths = (
{
closed = 1;
nodes = (
"498 1312 OFFCURVE",
"556 1249 OFFCURVE",
"613 1249 QCURVE SMOOTH",
"670 1249 OFFCURVE",
"728 1312 OFFCURVE",
"728 1358 QCURVE SMOOTH",
"728 1406 OFFCURVE",
"670 1470 OFFCURVE",
"613 1470 QCURVE SMOOTH",
"556 1470 OFFCURVE",
"498 1406 OFFCURVE",
"498 1358 QCURVE",
"498 1358 LINE"
);
}
);
userData = {
assembly = "NPUSHB[ ]\011/* 16 values pushed */
0 1 1 0 91 0 0 0 68 1 76 36 34 2 8 22 
CALL[ ]\011/* CallFunction */";
};
width = 1229;
}
);
note = dotaccent;
unicode = 02D9;
},
{
glyphname = ring;
layers = (
{
layerId = "E4B1A873-EC94-4624-AAD7-98A019FF1B0F";
paths = (
{
closed = 1;
nodes = (
"410 1269 OFFCURVE",
"443 1197 OFFCURVE",
"498 1146 OFFCURVE",
"573 1118 OFFCURVE",
"615 1118 QCURVE SMOOTH",
"657 1118 OFFCURVE",
"730 1146 OFFCURVE",
"785 1197 OFFCURVE",
"817 1269 OFFCURVE",
"817 1312 QCURVE SMOOTH",
"817 1355 OFFCURVE",
"785 1428 OFFCURVE",
"730 1481 OFFCURVE",
"657 1511 OFFCURVE",
"615 1511 QCURVE SMOOTH",
"573 1511 OFFCURVE",
"498 1481 OFFCURVE",
"443 1428 OFFCURVE",
"410 1355 OFFCURVE",
"410 1312 QCURVE",
"410 1312 LINE"
);
},
{
closed = 1;
nodes = (
"509 1360 OFFCURVE",
"571 1421 OFFCURVE",
"615 1421 QCURVE SMOOTH",
"659 1421 OFFCURVE",
"718 1360 OFFCURVE",
"718 1312 QCURVE SMOOTH",
"718 1289 OFFCURVE",
"702 1251 OFFCURVE",
"674 1223 OFFCURVE",
"637 1207 OFFCURVE",
"615 1207 QCURVE SMOOTH",
"593 1207 OFFCURVE",
"555 1223 OFFCURVE",
"526 1252 OFFCURVE",
"509 1290 OFFCURVE",
"509 1312 QCURVE",
"509 1312 LINE"
);
}
);
userData = {
assembly = "NPUSHB[ ]\011/* 25 values pushed */
0 2 0 1 2 1 95 0 3 3 0 91 0 0 0 62 3 76 38 40 40 36 4 8 24 
CALL[ ]\011/* CallFunction */";
};
width = 1229;
}
);
note = ring;
unicode = 02DA;
},
{
glyphname = ogonek;
layers = (
{
layerId = "E4B1A873-EC94-4624-AAD7-98A019FF1B0F";
paths = (
{
closed = 1;
nodes = (
"644 56 LINE",
"588 29 OFFCURVE",
"497 -41 OFFCURVE",
"433 -119 OFFCURVE",
"398 -202 OFFCURVE",
"398 -243 QCURVE SMOOTH",
"398 -290 OFFCURVE",
"428 -361 OFFCURVE",
"480 -409 OFFCURVE",
"550 -433 OFFCURVE",
"591 -433 QCURVE SMOOTH",
"656 -433 OFFCURVE",
"741 -405 OFFCURVE",
"769 -389 QCURVE",
"738 -268 LINE",
"722 -276 OFFCURVE",
"669 -295 OFFCURVE",
"637 -294 QCURVE SMOOTH",
"595 -294 OFFCURVE",
"559 -253 OFFCURVE",
"559 -219 QCURVE SMOOTH",
"559 -153 OFFCURVE",
"653 -42 OFFCURVE",
"731 0 QCURVE",
"731 0 LINE"
);
}
);
userData = {
assembly = "NPUSHB[ ]\011/* 27 values pushed */
10 1 1 0 1 74 23 9 2 0 72 0 0 0 1 91 0 1 1 73 1 76 37 37 2 8 22 
CALL[ ]\011/* CallFunction */";
};
width = 1229;
}
);
note = ogonek;
unicode = 02DB;
},
{
glyphname = tilde;
layers = (
{
layerId = "E4B1A873-EC94-4624-AAD7-98A019FF1B0F";
paths = (
{
closed = 1;
nodes = (
"723 1521 LINE",
"723 1498 OFFCURVE",
"706 1457 OFFCURVE",
"679 1427 OFFCURVE",
"641 1409 OFFCURVE",
"620 1409 QCURVE SMOOTH",
"581 1409 OFFCURVE",
"516 1439 OFFCURVE",
"453 1474 OFFCURVE",
"386 1504 OFFCURVE",
"344 1504 QCURVE SMOOTH",
"298 1504 OFFCURVE",
"223 1466 OFFCURVE",
"169 1403 OFFCURVE",
"138 1320 OFFCURVE",
"138 1275 QCURVE",
"242 1251 LINE",
"243 1297 OFFCURVE",
"300 1362 OFFCURVE",
"344 1362 QCURVE SMOOTH",
"371 1362 OFFCURVE",
"415 1348 OFFCURVE",
"454 1327 OFFCURVE",
"492 1302 OFFCURVE",
"535 1281 OFFCURVE",
"587 1267 OFFCURVE",
"620 1267 QCURVE SMOOTH",
"665 1267 OFFCURVE",
"741 1303 OFFCURVE",
"795 1364 OFFCURVE",
"826 1446 OFFCURVE",
"826 1491 QCURVE",
"826 1491 LINE"
);
}
);
userData = {
assembly = "NPUSHB[ ]\011/* 18 values pushed */
0 1 3 2 16 1 0 1 2 74 31 1 2 72 15 1 0 71 
MPPEM[ ]\011/* MeasurePixelPerEm */
PUSHB[ ]\011/* 1 value pushed */
22 
LT[ ]\011/* LessThan */
IF[ ]\011/* If */
NPUSHB[ ]\011/* 21 values pushed */
0 1 1 2 91 0 2 2 62 75 0 0 0 3 91 0 3 3 60 0 76 
ELSE[ ]\011/* Else */
NPUSHB[ ]\011/* 18 values pushed */
0 3 0 0 3 0 95 0 1 1 2 91 0 2 2 62 1 76 
EIF[ ]\011/* EndIf */
PUSHB[ ]\011/* 7 values pushed */
35 39 37 36 4 8 24 
CALL[ ]\011/* CallFunction */";
};
width = 1229;
}
);
note = tilde;
unicode = 02DC;
},
{
glyphname = hungarumlaut;
layers = (
{
layerId = "E4B1A873-EC94-4624-AAD7-98A019FF1B0F";
paths = (
{
closed = 1;
nodes = (
"508 1250 LINE",
"677 1250 LINE",
"982 1519 LINE",
"757 1519 LINE",
"757 1519 LINE"
);
},
{
closed = 1;
nodes = (
"246 1250 LINE",
"396 1250 LINE",
"641 1519 LINE",
"434 1519 LINE",
"434 1519 LINE"
);
}
);
userData = {
assembly = "NPUSHB[ ]\011/* 20 values pushed */
3 1 1 1 0 89 2 1 0 0 62 1 76 17 17 17 16 4 8 24 
CALL[ ]\011/* CallFunction */";
};
width = 1229;
}
);
note = hungarumlaut;
unicode = 02DD;
},
{
glyphname = uni02F3;
layers = (
{
layerId = "E4B1A873-EC94-4624-AAD7-98A019FF1B0F";
paths = (
{
closed = 1;
nodes = (
"429 -265 OFFCURVE",
"453 -319 OFFCURVE",
"495 -357 OFFCURVE",
"551 -378 OFFCURVE",
"583 -378 QCURVE SMOOTH",
"614 -378 OFFCURVE",
"668 -357 OFFCURVE",
"709 -319 OFFCURVE",
"733 -265 OFFCURVE",
"733 -233 QCURVE SMOOTH",
"733 -201 OFFCURVE",
"709 -146 OFFCURVE",
"668 -107 OFFCURVE",
"614 -85 OFFCURVE",
"583 -85 QCURVE SMOOTH",
"551 -85 OFFCURVE",
"495 -107 OFFCURVE",
"453 -146 OFFCURVE",
"429 -201 OFFCURVE",
"429 -233 QCURVE",
"429 -233 LINE"
);
},
{
closed = 1;
nodes = (
"516 -204 OFFCURVE",
"555 -165 OFFCURVE",
"583 -165 QCURVE SMOOTH",
"609 -165 OFFCURVE",
"647 -204 OFFCURVE",
"647 -233 QCURVE SMOOTH",
"647 -261 OFFCURVE",
"609 -298 OFFCURVE",
"583 -298 QCURVE SMOOTH",
"555 -298 OFFCURVE",
"516 -260 OFFCURVE",
"515 -233 QCURVE",
"515 -233 LINE"
);
}
);
userData = {
assembly = "MPPEM[ ]\011/* MeasurePixelPerEm */
PUSHB[ ]\011/* 1 value pushed */
27 
LT[ ]\011/* LessThan */
IF[ ]\011/* If */
NPUSHB[ ]\011/* 19 values pushed */
0 0 0 3 2 0 3 99 0 2 2 1 91 0 1 1 65 1 76 
ELSE[ ]\011/* Else */
NPUSHB[ ]\011/* 24 values pushed */
0 0 0 3 2 0 3 99 0 2 1 1 2 87 0 2 2 1 91 0 1 2 1 79 
EIF[ ]\011/* EndIf */
PUSHB[ ]\011/* 7 values pushed */
36 38 40 36 4 8 24 
CALL[ ]\011/* CallFunction */";
};
width = 1229;
}
);
note = uni02F3;
unicode = 02F3;
},
{
glyphname = gravecomb;
layers = (
{
layerId = "E4B1A873-EC94-4624-AAD7-98A019FF1B0F";
paths = (
{
closed = 1;
nodes = (
"-644 1558 LINE",
"-822 1558 LINE",
"-643 1212 LINE",
"-517 1212 LINE",
"-517 1212 LINE"
);
}
);
userData = {
assembly = "NPUSHB[ ]\011/* 14 values pushed */
0 1 0 1 114 0 0 0 105 17 16 2 8 22 
CALL[ ]\011/* CallFunction */";
};
width = 1106;
}
);
note = gravecomb;
unicode = 0300;
},
{
glyphname = acutecomb;
layers = (
{
layerId = "E4B1A873-EC94-4624-AAD7-98A019FF1B0F";
paths = (
{
closed = 1;
nodes = (
"-664 1212 LINE",
"-548 1212 LINE",
"-362 1559 LINE",
"-534 1559 LINE",
"-534 1559 LINE"
);
}
);
userData = {
assembly = "NPUSHB[ ]\011/* 14 values pushed */
0 0 1 0 114 0 1 1 105 17 16 2 8 22 
CALL[ ]\011/* CallFunction */";
};
width = 1106;
}
);
note = acutecomb;
unicode = 0301;
},
{
glyphname = hook;
layers = (
{
layerId = "E4B1A873-EC94-4624-AAD7-98A019FF1B0F";
paths = (
{
closed = 1;
nodes = (
"-525 1241 LINE",
"-524 1312 LINE",
"-496 1316 OFFCURVE",
"-440 1336 OFFCURVE",
"-396 1372 OFFCURVE",
"-369 1426 OFFCURVE",
"-369 1464 QCURVE SMOOTH",
"-369 1552 OFFCURVE",
"-528 1652 OFFCURVE",
"-672 1652 QCURVE",
"-679 1546 LINE",
"-646 1546 OFFCURVE",
"-586 1538 OFFCURVE",
"-540 1520 OFFCURVE",
"-513 1490 OFFCURVE",
"-513 1468 QCURVE SMOOTH",
"-513 1427 OFFCURVE",
"-587 1399 OFFCURVE",
"-658 1394 QCURVE",
"-657 1241 LINE",
"-657 1241 LINE"
);
}
);
userData = {
assembly = "NPUSHB[ ]\011/* 43 values pushed */
18 1 3 0 1 74 0 2 0 1 0 2 1 99 0 0 3 3 0 87 0 0 0 3 89 4 1 3 0 3 77 0 0 0 19 0 19 17 22 17 5 8 23 
CALL[ ]\011/* CallFunction */";
};
width = 1106;
}
);
note = hook;
unicode = 0309;
},
{
glyphname = uni030F;
layers = (
{
layerId = "E4B1A873-EC94-4624-AAD7-98A019FF1B0F";
paths = (
{
closed = 1;
nodes = (
"-794 1518 LINE",
"-1019 1518 LINE",
"-713 1252 LINE",
"-544 1252 LINE",
"-544 1252 LINE"
);
},
{
closed = 1;
nodes = (
"-472 1518 LINE",
"-679 1518 LINE",
"-433 1252 LINE",
"-283 1252 LINE",
"-283 1252 LINE"
);
}
);
userData = {
assembly = "NPUSHB[ ]\011/* 20 values pushed */
2 1 0 0 1 89 3 1 1 1 62 0 76 17 17 17 16 4 8 24 
CALL[ ]\011/* CallFunction */";
};
width = 1106;
}
);
note = uni030F;
unicode = 030F;
},
{
glyphname = dotbelow;
layers = (
{
layerId = "E4B1A873-EC94-4624-AAD7-98A019FF1B0F";
paths = (
{
closed = 1;
nodes = (
"-729 -281 OFFCURVE",
"-671 -344 OFFCURVE",
"-614 -344 QCURVE SMOOTH",
"-557 -344 OFFCURVE",
"-499 -281 OFFCURVE",
"-499 -235 QCURVE SMOOTH",
"-499 -187 OFFCURVE",
"-557 -123 OFFCURVE",
"-614 -123 QCURVE SMOOTH",
"-671 -123 OFFCURVE",
"-729 -187 OFFCURVE",
"-729 -235 QCURVE",
"-729 -235 LINE"
);
}
);
userData = {
assembly = "NPUSHB[ ]\011/* 21 values pushed */
0 0 1 1 0 87 0 0 0 1 91 0 1 0 1 79 36 34 2 8 22 
CALL[ ]\011/* CallFunction */";
};
width = 1106;
}
);
note = dotbelow;
unicode = 0323;
},
{
glyphname = tonos;
layers = (
{
layerId = "E4B1A873-EC94-4624-AAD7-98A019FF1B0F";
paths = (
{
closed = 1;
nodes = (
"553 1271 LINE",
"643 1271 LINE",
"813 1658 LINE",
"618 1658 LINE",
"618 1658 LINE"
);
}
);
userData = {
assembly = "NPUSHB[ ]\011/* 21 values pushed */
0 0 1 1 0 85 0 0 0 1 89 0 1 0 1 77 17 16 2 7 22 
CALL[ ]\011/* CallFunction */";
};
width = 1229;
}
);
note = tonos;
unicode = 0384;
},
{
glyphname = dieresistonos;
layers = (
{
layerId = "E4B1A873-EC94-4624-AAD7-98A019FF1B0F";
paths = (
{
closed = 1;
nodes = (
"580 1463 LINE",
"715 1463 LINE",
"833 1727 LINE",
"628 1727 LINE",
"628 1727 LINE"
);
},
{
closed = 1;
nodes = (
"275 1314 OFFCURVE",
"332 1250 OFFCURVE",
"389 1250 QCURVE SMOOTH",
"446 1250 OFFCURVE",
"504 1314 OFFCURVE",
"504 1360 QCURVE SMOOTH",
"504 1408 OFFCURVE",
"446 1472 OFFCURVE",
"389 1472 QCURVE SMOOTH",
"332 1472 OFFCURVE",
"275 1408 OFFCURVE",
"275 1360 QCURVE",
"275 1360 LINE"
);
},
{
closed = 1;
nodes = (
"782 1314 OFFCURVE",
"839 1250 OFFCURVE",
"896 1250 QCURVE SMOOTH",
"953 1250 OFFCURVE",
"1011 1314 OFFCURVE",
"1011 1360 QCURVE SMOOTH",
"1011 1408 OFFCURVE",
"953 1472 OFFCURVE",
"896 1472 QCURVE SMOOTH",
"839 1472 OFFCURVE",
"782 1408 OFFCURVE",
"782 1360 QCURVE",
"782 1360 LINE"
);
}
);
userData = {
assembly = "NPUSHB[ ]\011/* 30 values pushed */
0 0 0 1 3 0 1 97 5 1 3 3 2 91 4 1 2 2 48 3 76 36 36 36 35 17 16 6 7 26 
CALL[ ]\011/* CallFunction */";
};
width = 1229;
}
);
note = dieresistonos;
unicode = 0385;
},
{
glyphname = Gamma;
layers = (
{
layerId = "E4B1A873-EC94-4624-AAD7-98A019FF1B0F";
paths = (
{
closed = 1;
nodes = (
"1072 1456 LINE",
"181 1456 LINE",
"181 0 LINE",
"367 0 LINE",
"367 1304 LINE",
"1072 1304 LINE",
"1072 1304 LINE"
);
}
);
userData = {
assembly = "NPUSHB[ ]\011/* 22 values pushed */
0 0 0 2 89 0 2 2 40 75 0 1 1 41 1 76 17 17 16 3 7 23 
CALL[ ]\011/* CallFunction */";
};
width = 1229;
}
);
note = Gamma;
unicode = 0393;
},
{
glyphname = Delta;
layers = (
{
layerId = "E4B1A873-EC94-4624-AAD7-98A019FF1B0F";
paths = (
{
closed = 1;
nodes = (
"46 0 LINE",
"1204 0 LINE",
"724 1456 LINE",
"564 1456 LINE",
"564 1456 LINE"
);
},
{
closed = 1;
nodes = (
"641 1203 LINE",
"967 151 LINE",
"286 151 LINE",
"286 151 LINE"
);
}
);
userData = {
assembly = "NPUSHB[ ]\011/* 28 values pushed */
6 1 2 0 1 74 0 0 0 40 75 0 2 2 1 90 0 1 1 41 1 76 17 17 16 3 7 23 
CALL[ ]\011/* CallFunction */";
};
width = 1229;
}
);
note = Delta;
unicode = "0394,2206";
},
{
glyphname = Theta;
layers = (
{
layerId = "E4B1A873-EC94-4624-AAD7-98A019FF1B0F";
paths = (
{
closed = 1;
nodes = (
"845 811 LINE",
"381 811 LINE",
"381 660 LINE",
"845 660 LINE",
"845 660 LINE"
);
},
{
closed = 1;
nodes = (
"1121 810 LINE SMOOTH",
"1120 888 OFFCURVE",
"1095 1048 OFFCURVE",
"1042 1196 OFFCURVE",
"961 1325 OFFCURVE",
"849 1421 OFFCURVE",
"703 1476 OFFCURVE",
"613 1476 QCURVE SMOOTH",
"523 1476 OFFCURVE",
"378 1421 OFFCURVE",
"266 1324 OFFCURVE",
"185 1195 OFFCURVE",
"132 1047 OFFCURVE",
"107 888 OFFCURVE",
"106 810 QCURVE SMOOTH",
"106 644 LINE SMOOTH",
"107 566 OFFCURVE",
"133 408 OFFCURVE",
"186 260 OFFCURVE",
"268 131 OFFCURVE",
"380 35 OFFCURVE",
"525 -20 OFFCURVE",
"615 -20 QCURVE SMOOTH",
"705 -20 OFFCURVE",
"850 35 OFFCURVE",
"962 131 OFFCURVE",
"1043 259 OFFCURVE",
"1095 407 OFFCURVE",
"1120 566 OFFCURVE",
"1121 644 QCURVE",
"1121 644 LINE"
);
},
{
closed = 1;
nodes = (
"938 644 LINE SMOOTH",
"937 592 OFFCURVE",
"926 478 OFFCURVE",
"897 367 OFFCURVE",
"850 266 OFFCURVE",
"779 189 OFFCURVE",
"680 143 OFFCURVE",
"615 143 QCURVE SMOOTH",
"550 143 OFFCURVE",
"452 189 OFFCURVE",
"380 266 OFFCURVE",
"332 368 OFFCURVE",
"302 479 OFFCURVE",
"289 593 OFFCURVE",
"288 644 QCURVE SMOOTH",
"288 812 LINE SMOOTH",
"289 863 OFFCURVE",
"302 976 OFFCURVE",
"331 1087 OFFCURVE",
"379 1188 OFFCURVE",
"451 1265 OFFCURVE",
"549 1311 OFFCURVE",
"613 1311 QCURVE SMOOTH",
"678 1311 OFFCURVE",
"776 1266 OFFCURVE",
"848 1189 OFFCURVE",
"896 1088 OFFCURVE",
"925 977 OFFCURVE",
"937 864 OFFCURVE",
"938 812 QCURVE",
"938 812 LINE"
);
}
);
userData = {
assembly = "NPUSHB[ ]\011/* 38 values pushed */
0 1 0 0 5 1 0 97 0 4 4 3 91 0 3 3 48 75 0 5 5 2 91 0 2 2 49 2 76 45 45 45 39 17 16 6 7 26 
CALL[ ]\011/* CallFunction */";
};
width = 1229;
}
);
note = Theta;
unicode = 0398;
},
{
glyphname = Lambda;
layers = (
{
layerId = "E4B1A873-EC94-4624-AAD7-98A019FF1B0F";
paths = (
{
closed = 1;
nodes = (
"995 0 LINE",
"1184 0 LINE",
"699 1456 LINE",
"538 1456 LINE",
"54 0 LINE",
"243 0 LINE",
"618 1180 LINE",
"618 1180 LINE"
);
}
);
userData = {
assembly = "NPUSHB[ ]\011/* 18 values pushed */
0 1 1 40 75 2 1 0 0 41 0 76 17 17 17 3 7 23 
CALL[ ]\011/* CallFunction */";
};
width = 1229;
}
);
note = Lambda;
unicode = 039B;
},
{
glyphname = Xi;
layers = (
{
layerId = "E4B1A873-EC94-4624-AAD7-98A019FF1B0F";
paths = (
{
closed = 1;
nodes = (
"145 0 LINE",
"1079 0 LINE",
"1079 151 LINE",
"145 151 LINE",
"145 151 LINE"
);
},
{
closed = 1;
nodes = (
"230 678 LINE",
"984 678 LINE",
"984 830 LINE",
"230 830 LINE",
"230 830 LINE"
);
},
{
closed = 1;
nodes = (
"147 1304 LINE",
"1065 1304 LINE",
"1065 1456 LINE",
"147 1456 LINE",
"147 1456 LINE"
);
}
);
userData = {
assembly = "NPUSHB[ ]\011/* 38 values pushed */
0 2 0 3 0 2 3 97 0 5 5 4 89 0 4 4 40 75 0 0 0 1 89 0 1 1 41 1 76 17 17 17 17 17 16 6 7 26 
CALL[ ]\011/* CallFunction */";
};
width = 1229;
}
);
note = Xi;
unicode = 039E;
},
{
glyphname = Pi;
layers = (
{
layerId = "E4B1A873-EC94-4624-AAD7-98A019FF1B0F";
paths = (
{
closed = 1;
nodes = (
"1066 1456 LINE",
"162 1456 LINE",
"162 0 LINE",
"347 0 LINE",
"347 1304 LINE",
"881 1304 LINE",
"881 0 LINE",
"1066 0 LINE",
"1066 0 LINE"
);
}
);
userData = {
assembly = "NPUSHB[ ]\011/* 24 values pushed */
0 1 1 3 89 0 3 3 40 75 2 1 0 0 41 0 76 17 17 17 16 4 7 24 
CALL[ ]\011/* CallFunction */";
};
width = 1229;
}
);
note = Pi;
unicode = 03A0;
},
